<svg xmlns="http://www.w3.org/2000/svg" xmlns:xlink="http://www.w3.org/1999/xlink" width="500" zoomAndPan="magnify" viewBox="0 0 375 374.999991" height="500" preserveAspectRatio="xMidYMid meet" version="1.0"><defs><clipPath id="3e22ef09dd"><path d="M 5 50.300781 L 91 50.300781 L 91 83 L 5 83 Z M 5 50.300781 " clip-rule="nonzero"/></clipPath></defs><path fill="#11355c" d="M 106.007812 140.101562 C 101.792969 141.234375 98 143.945312 95.667969 147.988281 C 95.660156 147.988281 95.652344 147.988281 95.644531 147.988281 C 93.019531 152.65625 92.914062 157.875 94.359375 161.964844 C 95.808594 166.058594 98.5 169.222656 101.890625 171.183594 L 126.386719 185.316406 C 126.707031 185.523438 127.046875 185.691406 127.40625 185.828125 C 127.761719 185.964844 128.128906 186.0625 128.507812 186.125 C 128.882812 186.1875 129.261719 186.207031 129.644531 186.195312 C 130.027344 186.179688 130.402344 186.125 130.773438 186.035156 C 131.144531 185.941406 131.5 185.816406 131.847656 185.652344 C 132.191406 185.488281 132.515625 185.289062 132.824219 185.0625 C 133.128906 184.832031 133.40625 184.574219 133.660156 184.289062 C 133.914062 184.003906 134.136719 183.695312 134.328125 183.363281 C 134.519531 183.03125 134.675781 182.6875 134.796875 182.324219 C 134.917969 181.960938 135 181.59375 135.046875 181.214844 C 135.09375 180.832031 135.101562 180.453125 135.070312 180.070312 C 135.039062 179.691406 134.972656 179.316406 134.867188 178.949219 C 134.757812 178.582031 134.617188 178.230469 134.441406 177.890625 C 134.261719 177.554688 134.054688 177.238281 133.8125 176.941406 C 133.570312 176.644531 133.300781 176.375 133.007812 176.132812 C 132.710938 175.890625 132.394531 175.683594 132.054688 175.503906 L 107.582031 161.367188 C 106.789062 160.90625 105.558594 159.59375 105.058594 158.179688 C 104.5625 156.785156 104.519531 155.4375 105.523438 153.613281 C 107.125 150.863281 110.464844 149.9375 113.230469 151.53125 L 132.808594 162.851562 C 133.132812 163.039062 133.46875 163.191406 133.820312 163.308594 C 134.175781 163.429688 134.535156 163.511719 134.90625 163.5625 C 135.273438 163.609375 135.644531 163.625 136.019531 163.597656 C 136.390625 163.574219 136.753906 163.511719 137.117188 163.417969 C 137.476562 163.320312 137.824219 163.1875 138.15625 163.023438 C 138.492188 162.859375 138.804688 162.664062 139.101562 162.4375 C 139.394531 162.207031 139.667969 161.953125 139.914062 161.671875 C 140.15625 161.390625 140.375 161.089844 140.558594 160.769531 C 140.746094 160.445312 140.898438 160.109375 141.019531 159.753906 C 141.136719 159.398438 141.222656 159.039062 141.269531 158.667969 C 141.320312 158.300781 141.332031 157.929688 141.304688 157.558594 C 141.28125 157.1875 141.222656 156.820312 141.125 156.460938 C 141.027344 156.101562 140.898438 155.753906 140.730469 155.417969 C 140.566406 155.085938 140.371094 154.769531 140.144531 154.472656 C 139.917969 154.179688 139.664062 153.90625 139.382812 153.664062 C 139.101562 153.417969 138.800781 153.199219 138.476562 153.015625 L 118.898438 141.714844 C 114.859375 139.382812 110.226562 138.925781 106.007812 140.054688 Z M 106.007812 140.101562 " fill-opacity="1" fill-rule="evenodd"/><path fill="#11355c" d="M 228.886719 232.886719 C 228.273438 232.925781 227.6875 233.0625 227.121094 233.292969 C 226.554688 233.523438 226.039062 233.835938 225.574219 234.234375 C 225.109375 234.632812 224.71875 235.09375 224.402344 235.617188 C 224.085938 236.140625 223.863281 236.699219 223.726562 237.296875 C 223.59375 237.894531 223.554688 238.496094 223.617188 239.105469 C 223.675781 239.714844 223.832031 240.300781 224.082031 240.859375 C 224.328125 241.414062 224.660156 241.921875 225.074219 242.375 C 225.484375 242.824219 225.960938 243.199219 226.492188 243.496094 L 359.578125 320 C 359.902344 320.191406 360.242188 320.347656 360.59375 320.472656 C 360.949219 320.597656 361.3125 320.6875 361.683594 320.738281 C 362.058594 320.789062 362.429688 320.804688 362.804688 320.785156 C 363.179688 320.761719 363.550781 320.703125 363.914062 320.605469 C 364.277344 320.511719 364.628906 320.378906 364.964844 320.214844 C 365.300781 320.046875 365.621094 319.851562 365.917969 319.625 C 366.214844 319.394531 366.488281 319.140625 366.738281 318.855469 C 366.984375 318.574219 367.203125 318.269531 367.390625 317.945312 C 367.574219 317.621094 367.730469 317.277344 367.847656 316.921875 C 367.96875 316.5625 368.050781 316.199219 368.097656 315.828125 C 368.144531 315.453125 368.15625 315.082031 368.128906 314.707031 C 368.101562 314.332031 368.035156 313.964844 367.933594 313.601562 C 367.835938 313.238281 367.699219 312.890625 367.53125 312.554688 C 367.359375 312.21875 367.160156 311.902344 366.925781 311.609375 C 366.695312 311.316406 366.433594 311.046875 366.148438 310.800781 C 365.863281 310.558594 365.554688 310.34375 365.226562 310.164062 L 232.140625 233.660156 C 231.136719 233.066406 230.050781 232.8125 228.886719 232.890625 Z M 228.886719 232.886719 " fill-opacity="1" fill-rule="evenodd"/><path fill="#11355c" d="M 260.644531 224.933594 C 260.007812 224.90625 259.378906 224.980469 258.765625 225.164062 C 258.152344 225.347656 257.589844 225.628906 257.070312 226.003906 C 256.550781 226.378906 256.109375 226.828125 255.742188 227.351562 C 255.375 227.878906 255.105469 228.449219 254.933594 229.0625 C 254.761719 229.679688 254.695312 230.308594 254.734375 230.949219 C 254.773438 231.585938 254.914062 232.199219 255.160156 232.789062 C 255.410156 233.382812 255.746094 233.914062 256.171875 234.390625 C 256.601562 234.867188 257.09375 235.257812 257.65625 235.566406 L 359.578125 294.457031 C 359.902344 294.660156 360.242188 294.828125 360.597656 294.964844 C 360.957031 295.101562 361.324219 295.199219 361.699219 295.261719 C 362.078125 295.324219 362.457031 295.347656 362.835938 295.332031 C 363.21875 295.316406 363.59375 295.261719 363.964844 295.171875 C 364.335938 295.078125 364.695312 294.949219 365.039062 294.789062 C 365.386719 294.625 365.710938 294.429688 366.015625 294.199219 C 366.320312 293.96875 366.601562 293.710938 366.855469 293.425781 C 367.109375 293.140625 367.332031 292.832031 367.523438 292.5 C 367.714844 292.171875 367.871094 291.824219 367.988281 291.460938 C 368.113281 291.097656 368.195312 290.726562 368.242188 290.347656 C 368.289062 289.96875 368.296875 289.589844 368.265625 289.210938 C 368.234375 288.828125 368.164062 288.457031 368.058594 288.089844 C 367.953125 287.71875 367.8125 287.367188 367.632812 287.027344 C 367.457031 286.691406 367.246094 286.371094 367.003906 286.074219 C 366.765625 285.777344 366.496094 285.511719 366.199219 285.269531 C 365.902344 285.027344 365.585938 284.816406 365.25 284.640625 L 263.324219 225.730469 C 262.5 225.238281 261.605469 224.972656 260.644531 224.9375 Z M 260.644531 224.933594 " fill-opacity="1" fill-rule="evenodd"/><path fill="#11355c" d="M 167.691406 93.820312 C 152.121094 92.453125 136.457031 100.03125 128.203125 114.335938 L 111.191406 143.757812 C 111.003906 144.078125 110.851562 144.417969 110.730469 144.769531 C 110.609375 145.125 110.527344 145.484375 110.476562 145.855469 C 110.425781 146.226562 110.414062 146.597656 110.4375 146.96875 C 110.464844 147.34375 110.523438 147.707031 110.621094 148.066406 C 110.714844 148.429688 110.847656 148.777344 111.011719 149.109375 C 111.175781 149.445312 111.371094 149.761719 111.601562 150.058594 C 111.828125 150.355469 112.082031 150.625 112.363281 150.871094 C 112.640625 151.117188 112.945312 151.332031 113.269531 151.519531 C 113.589844 151.707031 113.929688 151.859375 114.28125 151.980469 C 114.636719 152.097656 115 152.183594 115.367188 152.234375 C 115.738281 152.28125 116.109375 152.292969 116.480469 152.269531 C 116.855469 152.242188 117.21875 152.179688 117.582031 152.085938 C 117.941406 151.988281 118.289062 151.855469 118.621094 151.6875 C 118.957031 151.523438 119.273438 151.328125 119.566406 151.097656 C 119.863281 150.871094 120.132812 150.617188 120.378906 150.335938 C 120.625 150.054688 120.839844 149.753906 121.027344 149.429688 L 138.011719 120.007812 C 146.050781 106.082031 163.457031 100.960938 177.746094 108.332031 L 237.746094 139.261719 C 249.058594 145.097656 262.066406 146.78125 274.488281 143.980469 L 337.785156 129.6875 C 342.652344 128.585938 347.625 128.4375 352.46875 129.179688 C 352.476562 129.179688 352.484375 129.179688 352.492188 129.179688 C 354.910156 129.519531 357.296875 130.128906 359.625 130.953125 C 359.976562 131.089844 360.34375 131.191406 360.71875 131.257812 C 361.09375 131.320312 361.46875 131.347656 361.851562 131.335938 C 362.230469 131.324219 362.605469 131.277344 362.976562 131.1875 C 363.347656 131.101562 363.703125 130.980469 364.050781 130.820312 C 364.394531 130.660156 364.722656 130.46875 365.027344 130.242188 C 365.335938 130.015625 365.617188 129.761719 365.871094 129.480469 C 366.128906 129.199219 366.355469 128.894531 366.546875 128.570312 C 366.742188 128.242188 366.902344 127.898438 367.027344 127.539062 C 367.152344 127.179688 367.242188 126.8125 367.292969 126.433594 C 367.347656 126.058594 367.359375 125.679688 367.335938 125.300781 C 367.308594 124.921875 367.25 124.546875 367.148438 124.179688 C 367.050781 123.8125 366.914062 123.457031 366.742188 123.117188 C 366.570312 122.777344 366.367188 122.457031 366.132812 122.160156 C 365.898438 121.859375 365.636719 121.585938 365.347656 121.339844 C 365.054688 121.09375 364.746094 120.878906 364.410156 120.695312 C 364.078125 120.511719 363.730469 120.363281 363.367188 120.253906 C 360.382812 119.210938 357.320312 118.441406 354.199219 117.972656 C 347.960938 117.019531 341.539062 117.222656 335.285156 118.640625 L 272.007812 132.910156 C 262.183594 135.121094 251.898438 133.804688 242.949219 129.1875 L 182.953125 98.257812 C 178.058594 95.738281 172.882812 94.28125 167.691406 93.828125 Z M 167.691406 93.820312 " fill-opacity="1" fill-rule="evenodd"/><path fill="#11355c" d="M 346.246094 139.855469 L 288.839844 155.121094 C 288.292969 155.265625 287.785156 155.484375 287.304688 155.78125 C 286.828125 156.078125 286.402344 156.4375 286.03125 156.863281 C 285.660156 157.285156 285.355469 157.753906 285.125 158.265625 C 284.894531 158.78125 284.742188 159.316406 284.667969 159.875 C 284.59375 160.433594 284.605469 160.992188 284.699219 161.546875 C 284.792969 162.101562 284.964844 162.632812 285.214844 163.136719 C 285.46875 163.640625 285.785156 164.09375 286.171875 164.503906 C 286.5625 164.914062 287 165.257812 287.488281 165.535156 L 359.246094 206.566406 C 359.570312 206.753906 359.910156 206.90625 360.261719 207.023438 C 360.617188 207.140625 360.976562 207.222656 361.347656 207.269531 C 361.71875 207.316406 362.085938 207.328125 362.460938 207.300781 C 362.832031 207.273438 363.195312 207.210938 363.554688 207.113281 C 363.914062 207.015625 364.261719 206.882812 364.59375 206.714844 C 364.929688 206.546875 365.242188 206.351562 365.535156 206.121094 C 365.832031 205.890625 366.101562 205.636719 366.34375 205.355469 C 366.589844 205.074219 366.804688 204.773438 366.988281 204.449219 C 367.171875 204.125 367.324219 203.785156 367.441406 203.433594 C 367.558594 203.082031 367.644531 202.71875 367.6875 202.351562 C 367.734375 201.980469 367.746094 201.609375 367.71875 201.238281 C 367.695312 200.867188 367.632812 200.5 367.535156 200.140625 C 367.433594 199.78125 367.304688 199.4375 367.136719 199.101562 C 366.96875 198.769531 366.773438 198.457031 366.542969 198.160156 C 366.316406 197.867188 366.0625 197.597656 365.78125 197.351562 C 365.5 197.109375 365.195312 196.894531 364.871094 196.707031 L 305.117188 162.542969 L 349.148438 150.824219 C 350.613281 150.4375 352.183594 150.652344 353.488281 151.402344 L 359.292969 155.234375 C 359.601562 155.441406 359.929688 155.613281 360.277344 155.753906 C 360.621094 155.894531 360.976562 156 361.34375 156.070312 C 361.710938 156.140625 362.078125 156.175781 362.449219 156.171875 C 362.824219 156.167969 363.191406 156.128906 363.558594 156.054688 C 363.921875 155.980469 364.277344 155.871094 364.621094 155.726562 C 364.964844 155.578125 365.289062 155.402344 365.597656 155.191406 C 365.90625 154.984375 366.191406 154.746094 366.453125 154.480469 C 366.714844 154.214844 366.949219 153.929688 367.152344 153.617188 C 367.359375 153.304688 367.53125 152.980469 367.671875 152.632812 C 367.8125 152.285156 367.917969 151.929688 367.988281 151.5625 C 368.058594 151.199219 368.09375 150.828125 368.089844 150.457031 C 368.085938 150.082031 368.050781 149.714844 367.972656 149.347656 C 367.898438 148.984375 367.789062 148.628906 367.644531 148.289062 C 367.5 147.945312 367.320312 147.617188 367.113281 147.308594 C 366.902344 147 366.667969 146.71875 366.402344 146.453125 C 366.136719 146.191406 365.847656 145.957031 365.535156 145.753906 L 359.425781 141.742188 C 359.324219 141.667969 359.21875 141.597656 359.113281 141.527344 C 355.210938 139.296875 350.589844 138.691406 346.246094 139.84375 Z M 346.246094 139.855469 " fill-opacity="1" fill-rule="evenodd"/><path fill="#11355c" d="M 347.953125 215.847656 C 347.3125 215.824219 346.6875 215.902344 346.078125 216.089844 C 345.46875 216.277344 344.902344 216.554688 344.386719 216.929688 C 343.871094 217.308594 343.433594 217.757812 343.066406 218.28125 C 342.703125 218.804688 342.4375 219.375 342.265625 219.992188 C 342.09375 220.605469 342.027344 221.234375 342.066406 221.871094 C 342.105469 222.507812 342.25 223.121094 342.496094 223.707031 C 342.742188 224.300781 343.078125 224.832031 343.507812 225.308594 C 343.933594 225.78125 344.425781 226.175781 344.984375 226.480469 L 359.578125 234.902344 C 359.902344 235.105469 360.242188 235.277344 360.597656 235.410156 C 360.957031 235.546875 361.324219 235.644531 361.699219 235.707031 C 362.078125 235.769531 362.457031 235.789062 362.839844 235.773438 C 363.21875 235.757812 363.597656 235.707031 363.96875 235.617188 C 364.335938 235.523438 364.695312 235.394531 365.039062 235.230469 C 365.386719 235.070312 365.710938 234.871094 366.015625 234.644531 C 366.324219 234.414062 366.601562 234.15625 366.855469 233.871094 C 367.109375 233.582031 367.332031 233.277344 367.523438 232.945312 C 367.714844 232.613281 367.867188 232.265625 367.988281 231.90625 C 368.109375 231.542969 368.195312 231.171875 368.242188 230.792969 C 368.289062 230.414062 368.296875 230.03125 368.265625 229.652344 C 368.234375 229.269531 368.164062 228.898438 368.058594 228.53125 C 367.953125 228.164062 367.8125 227.8125 367.632812 227.472656 C 367.457031 227.136719 367.246094 226.820312 367.003906 226.523438 C 366.765625 226.226562 366.496094 225.957031 366.199219 225.714844 C 365.902344 225.472656 365.585938 225.265625 365.25 225.085938 L 350.652344 216.644531 C 349.820312 216.148438 348.917969 215.886719 347.953125 215.851562 Z M 347.953125 215.847656 " fill-opacity="1" fill-rule="evenodd"/><path fill="#11355c" d="M 209.566406 154.816406 C 187.929688 142.320312 160.09375 149.78125 147.605469 171.421875 C 135.113281 193.066406 142.570312 220.90625 164.207031 233.402344 C 185.84375 245.898438 213.675781 238.4375 226.167969 216.796875 C 238.660156 195.152344 231.199219 167.308594 209.566406 154.816406 Z M 203.894531 164.636719 C 220.222656 174.070312 225.773438 194.789062 216.347656 211.125 C 206.917969 227.460938 186.203125 233.011719 169.875 223.582031 C 153.546875 214.148438 147.996094 193.429688 157.425781 177.09375 C 166.851562 160.761719 187.566406 155.207031 203.894531 164.636719 Z M 203.894531 164.636719 " fill-opacity="1" fill-rule="nonzero"/><path fill="#11355c" d="M 198.226562 174.460938 C 187.4375 168.230469 173.472656 171.976562 167.246094 182.765625 C 161.015625 193.558594 164.757812 207.523438 175.546875 213.757812 C 186.335938 219.988281 200.296875 216.246094 206.527344 205.453125 C 212.753906 194.660156 209.015625 180.695312 198.226562 174.460938 Z M 192.554688 184.285156 C 198.035156 187.449219 199.871094 194.296875 196.707031 199.78125 C 193.539062 205.265625 186.695312 207.101562 181.214844 203.933594 C 175.734375 200.761719 173.898438 193.921875 177.066406 188.4375 C 180.230469 182.953125 187.074219 181.117188 192.554688 184.285156 Z M 192.554688 184.285156 " fill-opacity="1" fill-rule="nonzero"/><path fill="#11355c" d="M 70.507812 127.859375 C 67.375 127.859375 64.828125 130.375 64.816406 133.507812 L 64.660156 144.960938 C 55.617188 147.964844 48.097656 156.652344 46.875 167.25 C 45.429688 179.152344 51.972656 190.648438 62.933594 195.5 C 73.894531 200.347656 86.796875 197.441406 94.625 188.363281 C 99.78125 182.617188 90.945312 175.011719 86.03125 180.964844 C 81.433594 186.296875 73.957031 187.980469 67.515625 185.128906 C 61.074219 182.28125 57.277344 175.617188 58.125 168.625 C 58.976562 161.628906 64.257812 156.046875 71.191406 154.820312 C 73.855469 154.347656 75.8125 152.054688 75.867188 149.347656 L 76.15625 133.730469 C 76.265625 130.527344 73.710938 127.871094 70.507812 127.859375 Z M 70.507812 127.859375 " fill-opacity="1" fill-rule="nonzero"/><path fill="#11355c" d="M 70.195312 103.640625 C 60.871094 103.640625 53.1875 111.328125 53.1875 120.660156 C 53.1875 129.988281 60.871094 137.671875 70.195312 137.671875 C 79.523438 137.671875 87.207031 129.988281 87.207031 120.660156 C 87.207031 111.328125 79.523438 103.640625 70.195312 103.640625 Z M 70.195312 114.984375 C 73.394531 114.984375 75.867188 117.460938 75.867188 120.660156 C 75.867188 123.855469 73.394531 126.332031 70.195312 126.332031 C 67 126.332031 64.527344 123.855469 64.527344 120.660156 C 64.527344 117.460938 67 114.984375 70.195312 114.984375 Z M 70.195312 114.984375 " fill-opacity="1" fill-rule="nonzero"/><path fill="#11355c" d="M 64.816406 74.066406 L 64.746094 110.265625 L 76.085938 110.265625 L 76.15625 74.042969 Z M 64.816406 74.066406 " fill-opacity="1" fill-rule="evenodd"/><g clip-path="url(#3e22ef09dd)"><path fill="#11355c" d="M 5.28125 48.535156 L 5.28125 59.878906 L 76.152344 59.878906 C 77.785156 59.878906 78.988281 61.078125 78.988281 62.710938 L 78.988281 68.382812 C 78.988281 70.015625 77.789062 71.21875 76.152344 71.21875 L 5.28125 71.21875 L 5.28125 82.5625 L 76.152344 82.5625 C 83.914062 82.5625 90.328125 76.144531 90.328125 68.382812 L 90.328125 62.710938 C 90.328125 54.945312 83.914062 48.53125 76.152344 48.53125 Z M 5.28125 48.535156 " fill-opacity="1" fill-rule="evenodd"/></g></svg>