<svg xmlns="http://www.w3.org/2000/svg" xmlns:xlink="http://www.w3.org/1999/xlink" width="500" zoomAndPan="magnify" viewBox="0 0 375 374.999991" height="500" preserveAspectRatio="xMidYMid meet" version="1.0"><defs><clipPath id="a029a98e1d"><path d="M 5.710938 5.710938 L 369.460938 5.710938 L 369.460938 369.460938 L 5.710938 369.460938 Z M 5.710938 5.710938 " clip-rule="nonzero"/></clipPath></defs><g clip-path="url(#a029a98e1d)"><path fill="#11355c" d="M 187.496094 369.285156 C 87.089844 369.285156 5.710938 287.90625 5.710938 187.496094 C 5.710938 87.089844 87.089844 5.710938 187.496094 5.710938 C 287.90625 5.710938 369.285156 87.089844 369.285156 187.496094 C 369.285156 287.90625 287.90625 369.285156 187.496094 369.285156 Z M 187.496094 20.285156 C 95.1875 20.285156 20.285156 95.1875 20.285156 187.496094 C 20.285156 279.808594 95.1875 354.707031 187.496094 354.707031 C 279.808594 354.707031 354.707031 279.808594 354.707031 187.496094 C 354.707031 95.1875 279.808594 20.285156 187.496094 20.285156 Z M 172.921875 289.121094 L 158.347656 289.121094 L 158.347656 274.542969 L 172.921875 274.542969 L 172.921875 151.058594 L 158.347656 151.058594 L 158.347656 136.484375 L 202.070312 136.484375 L 202.070312 274.542969 L 216.648438 274.542969 L 216.648438 289.121094 Z M 187.496094 121.90625 C 175.351562 121.90625 165.632812 112.191406 165.632812 100.042969 C 165.632812 87.898438 175.351562 78.179688 187.496094 78.179688 C 199.644531 78.179688 209.359375 87.898438 209.359375 100.042969 C 209.359375 112.191406 199.644531 121.90625 187.496094 121.90625 Z M 187.496094 121.90625 " fill-opacity="1" fill-rule="evenodd"/></g></svg>