<svg xmlns="http://www.w3.org/2000/svg" xmlns:xlink="http://www.w3.org/1999/xlink" width="500" zoomAndPan="magnify" viewBox="0 0 375 374.999991" height="500" preserveAspectRatio="xMidYMid meet" version="1.0"><defs><clipPath id="70f5e71737"><path d="M 5.285156 34.210938 L 369.785156 34.210938 L 369.785156 340.960938 L 5.285156 340.960938 Z M 5.285156 34.210938 " clip-rule="nonzero"/></clipPath></defs><g clip-path="url(#70f5e71737)"><path fill="#11355c" d="M 49.054688 168.402344 L 16.003906 148.488281 L 49.054688 118.234375 Z M 318.011719 42.148438 L 318.011719 109.332031 C 318.015625 109.363281 318.011719 109.394531 318.011719 109.429688 L 318.011719 173.179688 L 220.859375 231.71875 C 220.84375 231.726562 220.824219 231.738281 220.808594 231.746094 L 187.496094 251.820312 L 154.164062 231.738281 C 154.160156 231.738281 154.15625 231.734375 154.15625 231.730469 L 56.976562 173.179688 L 56.976562 42.148438 Z M 358.988281 148.488281 L 325.933594 168.402344 L 325.933594 118.234375 Z M 230.125 235.386719 L 361.609375 156.15625 L 361.609375 329.121094 Z M 152.265625 239.84375 L 185.453125 259.839844 C 186.707031 260.597656 188.285156 260.597656 189.539062 259.839844 L 222.726562 239.84375 L 353.191406 332.847656 L 21.796875 332.847656 Z M 13.378906 156.15625 L 144.867188 235.386719 L 13.378906 329.121094 Z M 369.53125 149.144531 C 369.53125 149.105469 369.527344 149.070312 369.527344 149.03125 C 369.523438 148.976562 369.515625 148.921875 369.515625 148.863281 C 369.5 148.679688 369.476562 148.496094 369.4375 148.316406 C 369.425781 148.269531 369.421875 148.222656 369.410156 148.171875 C 369.351562 147.957031 369.28125 147.746094 369.191406 147.546875 C 369.171875 147.492188 369.140625 147.445312 369.117188 147.394531 C 369.035156 147.230469 368.945312 147.074219 368.839844 146.921875 C 368.808594 146.871094 368.777344 146.824219 368.742188 146.78125 C 368.605469 146.597656 368.457031 146.425781 368.289062 146.269531 C 368.273438 146.257812 368.261719 146.238281 368.25 146.222656 L 325.933594 107.488281 L 325.933594 38.1875 C 325.933594 36 324.160156 34.226562 321.972656 34.226562 L 53.015625 34.226562 C 50.828125 34.226562 49.054688 36 49.054688 38.1875 L 49.054688 107.492188 L 6.742188 146.222656 C 6.726562 146.238281 6.714844 146.257812 6.699219 146.269531 C 6.535156 146.425781 6.382812 146.597656 6.246094 146.78125 C 6.210938 146.824219 6.179688 146.875 6.148438 146.921875 C 6.046875 147.074219 5.957031 147.226562 5.875 147.390625 C 5.851562 147.445312 5.820312 147.492188 5.796875 147.546875 C 5.707031 147.746094 5.636719 147.957031 5.582031 148.171875 C 5.566406 148.222656 5.5625 148.269531 5.554688 148.316406 C 5.511719 148.5 5.488281 148.679688 5.476562 148.863281 C 5.472656 148.921875 5.464844 148.976562 5.464844 149.03125 C 5.464844 149.070312 5.457031 149.105469 5.457031 149.144531 L 5.457031 336.808594 C 5.457031 336.824219 5.460938 336.839844 5.460938 336.855469 C 5.464844 337.023438 5.488281 337.191406 5.511719 337.355469 C 5.523438 337.449219 5.523438 337.546875 5.546875 337.636719 C 5.574219 337.769531 5.625 337.898438 5.667969 338.03125 C 5.707031 338.148438 5.734375 338.265625 5.78125 338.378906 C 5.824219 338.476562 5.886719 338.570312 5.941406 338.667969 C 6.011719 338.800781 6.078125 338.9375 6.164062 339.0625 C 6.175781 339.078125 6.179688 339.09375 6.191406 339.109375 C 6.3125 339.277344 6.445312 339.429688 6.585938 339.574219 C 6.613281 339.601562 6.644531 339.628906 6.671875 339.65625 C 6.832031 339.8125 7.003906 339.953125 7.183594 340.078125 C 7.191406 340.082031 7.199219 340.089844 7.207031 340.097656 C 7.398438 340.222656 7.597656 340.328125 7.800781 340.417969 C 7.847656 340.441406 7.894531 340.460938 7.941406 340.480469 C 8.144531 340.5625 8.355469 340.628906 8.574219 340.675781 C 8.617188 340.683594 8.660156 340.691406 8.703125 340.699219 C 8.9375 340.738281 9.171875 340.769531 9.410156 340.769531 C 9.414062 340.769531 9.414062 340.769531 9.417969 340.769531 L 365.570312 340.769531 C 365.574219 340.769531 365.574219 340.769531 365.578125 340.769531 C 365.816406 340.769531 366.050781 340.738281 366.285156 340.699219 C 366.328125 340.691406 366.371094 340.683594 366.417969 340.675781 C 366.632812 340.628906 366.84375 340.5625 367.046875 340.480469 C 367.09375 340.460938 367.140625 340.441406 367.1875 340.417969 C 367.390625 340.328125 367.59375 340.222656 367.78125 340.097656 C 367.789062 340.089844 367.796875 340.082031 367.804688 340.078125 C 367.984375 339.953125 368.15625 339.8125 368.316406 339.65625 C 368.347656 339.628906 368.375 339.601562 368.402344 339.574219 C 368.546875 339.429688 368.679688 339.277344 368.800781 339.109375 C 368.808594 339.09375 368.8125 339.078125 368.824219 339.0625 C 368.910156 338.9375 368.976562 338.800781 369.050781 338.667969 C 369.101562 338.570312 369.164062 338.476562 369.207031 338.378906 C 369.253906 338.265625 369.28125 338.148438 369.320312 338.03125 C 369.363281 337.898438 369.414062 337.769531 369.441406 337.636719 C 369.460938 337.546875 369.464844 337.449219 369.476562 337.355469 C 369.5 337.191406 369.527344 337.023438 369.527344 336.855469 C 369.527344 336.839844 369.53125 336.824219 369.53125 336.808594 L 369.53125 149.144531 " fill-opacity="1" fill-rule="nonzero"/></g><path fill="#11355c" d="M 96.859375 153.105469 L 278.132812 153.105469 C 280.320312 153.105469 282.09375 151.332031 282.09375 149.144531 C 282.09375 146.957031 280.320312 145.183594 278.132812 145.183594 L 96.859375 145.183594 C 94.671875 145.183594 92.898438 146.957031 92.898438 149.144531 C 92.898438 151.332031 94.671875 153.105469 96.859375 153.105469 " fill-opacity="1" fill-rule="nonzero"/><path fill="#11355c" d="M 96.859375 191.003906 L 278.132812 191.003906 C 280.320312 191.003906 282.09375 189.230469 282.09375 187.042969 C 282.09375 184.855469 280.320312 183.082031 278.132812 183.082031 L 96.859375 183.082031 C 94.671875 183.082031 92.898438 184.855469 92.898438 187.042969 C 92.898438 189.230469 94.671875 191.003906 96.859375 191.003906 " fill-opacity="1" fill-rule="nonzero"/><path fill="#11355c" d="M 102.429688 123.550781 C 104.617188 123.550781 106.390625 121.777344 106.390625 119.589844 L 106.390625 83.527344 L 128.148438 121.554688 C 128.867188 122.8125 130.191406 123.550781 131.585938 123.550781 C 131.925781 123.550781 132.265625 123.507812 132.605469 123.417969 C 134.339844 122.957031 135.546875 121.386719 135.546875 119.589844 L 135.546875 67.761719 C 135.546875 65.574219 133.773438 63.800781 131.585938 63.800781 C 129.398438 63.800781 127.625 65.574219 127.625 67.761719 L 127.625 104.691406 L 105.867188 66.664062 C 104.976562 65.105469 103.152344 64.339844 101.414062 64.804688 C 99.675781 65.261719 98.46875 66.835938 98.46875 68.628906 L 98.46875 119.589844 C 98.46875 121.777344 100.238281 123.550781 102.429688 123.550781 " fill-opacity="1" fill-rule="nonzero"/><path fill="#11355c" d="M 259.625 115.625 C 251.9375 115.421875 250.4375 111.191406 250.316406 110.800781 C 249.785156 108.671875 247.636719 107.378906 245.519531 107.90625 C 243.394531 108.433594 242.097656 110.582031 242.625 112.703125 C 242.730469 113.128906 245.375 123.164062 259.410156 123.542969 C 259.542969 123.546875 259.671875 123.550781 259.804688 123.550781 C 267.429688 123.550781 274.753906 117.621094 276.246094 110.15625 C 276.867188 107.046875 277.601562 96.398438 260.9375 89.980469 C 253.484375 87.109375 249.699219 83.015625 250.554688 78.746094 C 251.308594 74.96875 255.382812 71.625 259.410156 71.722656 C 267.023438 71.929688 268.566406 76.085938 268.738281 76.628906 C 269.289062 78.703125 271.417969 79.964844 273.511719 79.445312 C 275.632812 78.921875 276.929688 76.769531 276.40625 74.648438 C 276.300781 74.222656 273.65625 64.183594 259.625 63.808594 C 251.910156 63.667969 244.304688 69.601562 242.785156 77.195312 C 242.164062 80.304688 241.429688 90.953125 258.089844 97.375 C 265.546875 100.246094 269.332031 104.339844 268.476562 108.605469 C 267.722656 112.382812 263.675781 115.679688 259.625 115.625 " fill-opacity="1" fill-rule="nonzero"/><path fill="#11355c" d="M 199.574219 123.503906 C 199.78125 123.535156 199.988281 123.550781 200.195312 123.550781 C 201.75 123.550781 203.191406 122.628906 203.828125 121.167969 L 213.167969 99.601562 L 222.511719 121.167969 C 223.144531 122.628906 224.585938 123.550781 226.144531 123.550781 C 226.347656 123.550781 226.554688 123.535156 226.761719 123.503906 C 228.546875 123.222656 229.917969 121.765625 230.089844 119.96875 L 235.054688 68.140625 C 235.265625 65.964844 233.667969 64.027344 231.492188 63.816406 C 229.328125 63.621094 227.378906 65.207031 227.171875 67.386719 L 223.667969 103.910156 L 216.800781 88.0625 C 216.769531 87.984375 216.714844 87.917969 216.679688 87.84375 C 216.605469 87.703125 216.535156 87.5625 216.449219 87.433594 C 216.382812 87.332031 216.304688 87.242188 216.226562 87.148438 C 216.144531 87.042969 216.058594 86.9375 215.964844 86.84375 C 215.867188 86.746094 215.765625 86.667969 215.664062 86.582031 C 215.566406 86.503906 215.476562 86.421875 215.371094 86.355469 C 215.242188 86.269531 215.105469 86.203125 214.972656 86.132812 C 214.894531 86.089844 214.824219 86.042969 214.742188 86.003906 C 214.722656 85.996094 214.703125 85.992188 214.6875 85.984375 C 214.542969 85.925781 214.390625 85.886719 214.238281 85.84375 C 214.136719 85.816406 214.035156 85.773438 213.933594 85.753906 C 213.808594 85.730469 213.679688 85.726562 213.554688 85.714844 C 213.421875 85.699219 213.292969 85.679688 213.164062 85.679688 C 213.0625 85.679688 212.957031 85.699219 212.859375 85.707031 C 212.703125 85.71875 212.546875 85.726562 212.394531 85.757812 C 212.308594 85.773438 212.230469 85.804688 212.140625 85.828125 C 211.972656 85.875 211.804688 85.921875 211.644531 85.988281 C 211.628906 85.996094 211.609375 85.996094 211.59375 86.003906 C 211.523438 86.035156 211.464844 86.082031 211.394531 86.117188 C 211.246094 86.191406 211.097656 86.265625 210.957031 86.355469 C 210.863281 86.421875 210.785156 86.492188 210.695312 86.5625 C 210.582031 86.652344 210.472656 86.742188 210.367188 86.847656 C 210.277344 86.9375 210.203125 87.035156 210.125 87.128906 C 210.039062 87.234375 209.953125 87.328125 209.882812 87.4375 C 209.796875 87.5625 209.730469 87.699219 209.664062 87.832031 C 209.625 87.910156 209.570312 87.980469 209.535156 88.0625 L 202.667969 103.910156 L 199.167969 67.386719 C 198.960938 65.207031 197.019531 63.617188 194.847656 63.816406 C 192.667969 64.027344 191.070312 65.964844 191.277344 68.140625 L 196.25 119.96875 C 196.421875 121.765625 197.789062 123.222656 199.574219 123.503906 " fill-opacity="1" fill-rule="nonzero"/><path fill="#11355c" d="M 152.695312 123.550781 L 182.417969 123.550781 C 184.605469 123.550781 186.378906 121.777344 186.378906 119.589844 C 186.378906 117.402344 184.605469 115.628906 182.417969 115.628906 L 156.65625 115.628906 L 156.65625 97.636719 L 168.75 97.636719 C 170.9375 97.636719 172.710938 95.863281 172.710938 93.675781 C 172.710938 91.492188 170.9375 89.714844 168.75 89.714844 L 156.65625 89.714844 L 156.65625 71.722656 L 182.417969 71.722656 C 184.605469 71.722656 186.378906 69.949219 186.378906 67.761719 C 186.378906 65.574219 184.605469 63.800781 182.417969 63.800781 L 152.695312 63.800781 C 150.507812 63.800781 148.734375 65.574219 148.734375 67.761719 L 148.734375 119.589844 C 148.734375 121.777344 150.507812 123.550781 152.695312 123.550781 " fill-opacity="1" fill-rule="nonzero"/></svg>