<svg xmlns="http://www.w3.org/2000/svg" xmlns:xlink="http://www.w3.org/1999/xlink" width="500" zoomAndPan="magnify" viewBox="0 0 375 374.999991" height="500" preserveAspectRatio="xMidYMid meet" version="1.0"><defs><clipPath id="62459b9d06"><path d="M 7.070312 117.132812 L 367.820312 117.132812 L 367.820312 258 L 7.070312 258 Z M 7.070312 117.132812 " clip-rule="nonzero"/></clipPath></defs><g clip-path="url(#62459b9d06)"><path fill="#11355c" d="M 359.753906 169.25 L 348.386719 169.25 C 340.3125 139.28125 312.976562 117.132812 280.492188 117.132812 C 249.089844 117.132812 222.441406 137.8125 213.410156 166.265625 C 212.195312 165.59375 210.960938 164.957031 209.699219 164.371094 C 203.210938 161.355469 196.285156 159.632812 189.105469 159.152344 C 188.882812 159.113281 188.65625 159.105469 188.429688 159.085938 C 188.246094 159.074219 188.070312 159.042969 187.886719 159.035156 C 187.796875 159.03125 187.710938 159.050781 187.621094 159.046875 C 187.53125 159.050781 187.445312 159.03125 187.355469 159.035156 C 187.164062 159.042969 186.980469 159.078125 186.789062 159.089844 C 186.5625 159.105469 186.332031 159.113281 186.105469 159.152344 C 178.9375 159.636719 172.019531 161.359375 165.539062 164.371094 C 164.277344 164.957031 163.042969 165.59375 161.828125 166.265625 C 152.800781 137.8125 126.148438 117.132812 94.742188 117.132812 C 61.453125 117.132812 33.554688 140.386719 26.273438 171.492188 L 15.242188 171.492188 C 10.816406 171.492188 7.226562 175.078125 7.226562 179.503906 C 7.226562 183.929688 10.816406 187.515625 15.242188 187.515625 L 24.363281 187.515625 C 24.363281 226.324219 55.9375 257.898438 94.742188 257.898438 C 133.554688 257.898438 165.125 226.324219 165.125 187.515625 C 165.125 186.140625 164.996094 184.796875 164.917969 183.445312 C 167.238281 181.707031 169.664062 180.125 172.296875 178.902344 C 177.109375 176.664062 182.265625 175.394531 187.617188 175.089844 C 192.976562 175.398438 198.128906 176.664062 202.941406 178.902344 C 205.570312 180.121094 208 181.703125 210.320312 183.445312 C 210.242188 184.800781 210.113281 186.140625 210.113281 187.515625 C 210.113281 226.324219 241.6875 257.898438 280.496094 257.898438 C 319.304688 257.898438 350.878906 226.324219 350.878906 187.515625 C 350.878906 186.757812 350.785156 186.023438 350.765625 185.273438 L 359.757812 185.273438 C 364.179688 185.273438 367.769531 181.6875 367.769531 177.261719 C 367.769531 172.835938 364.179688 169.25 359.753906 169.25 Z M 94.742188 241.875 C 64.769531 241.875 40.386719 217.488281 40.386719 187.515625 C 40.386719 157.542969 64.773438 133.15625 94.742188 133.15625 C 122.46875 133.15625 145.375 154.039062 148.65625 180.890625 C 148.65625 180.898438 148.65625 180.902344 148.660156 180.90625 C 148.921875 183.078125 149.101562 185.273438 149.101562 187.515625 C 149.101562 217.488281 124.714844 241.875 94.742188 241.875 Z M 280.492188 241.875 C 250.519531 241.875 226.136719 217.488281 226.136719 187.515625 C 226.136719 185.273438 226.316406 183.074219 226.582031 180.898438 C 226.582031 180.898438 226.582031 180.894531 226.582031 180.890625 C 229.867188 154.035156 252.769531 133.15625 280.496094 133.15625 C 310.46875 133.15625 334.851562 157.542969 334.851562 187.515625 C 334.851562 217.488281 310.464844 241.875 280.492188 241.875 Z M 280.492188 241.875 " fill-opacity="1" fill-rule="nonzero"/></g></svg>