<svg xmlns="http://www.w3.org/2000/svg" xmlns:xlink="http://www.w3.org/1999/xlink" width="500" zoomAndPan="magnify" viewBox="0 0 375 374.999991" height="500" preserveAspectRatio="xMidYMid meet" version="1.0"><defs><clipPath id="05156c0b24"><path d="M 95.632812 6.035156 L 279.382812 6.035156 L 279.382812 369 L 95.632812 369 Z M 95.632812 6.035156 " clip-rule="nonzero"/></clipPath></defs><g clip-path="url(#05156c0b24)"><path fill="#11355c" d="M 174.839844 64.675781 L 181.011719 64.066406 L 181.011719 24.507812 L 180.964844 24.089844 C 180.960938 24.078125 180.9375 22.394531 181.816406 21.398438 C 182.703125 20.398438 184.703125 19.84375 187.453125 19.84375 C 189.988281 19.84375 191.9375 20.347656 192.671875 21.183594 C 193.304688 21.910156 193.324219 23.238281 193.273438 23.757812 L 193.179688 24.152344 L 193.179688 63.683594 L 199.699219 63.992188 C 213.71875 64.65625 225.789062 66.269531 235.582031 68.785156 C 238.894531 69.828125 248.964844 74.164062 248.964844 88.21875 C 248.964844 96.476562 247.664062 99.894531 246.886719 101.195312 C 246.355469 102.085938 245.984375 102.367188 244.714844 102.367188 C 244.019531 102.367188 243.183594 102.25 242.222656 102.035156 L 238.730469 100.957031 C 238.707031 100.945312 238.679688 100.941406 238.65625 100.929688 L 229.65625 97.386719 L 229.65625 97.761719 C 220.476562 94.886719 210.800781 92.882812 200.765625 91.792969 L 193.179688 90.96875 L 193.179688 170.527344 L 197.703125 172.15625 C 222.40625 181.070312 240.214844 191.230469 250.636719 202.359375 C 260.714844 213.128906 265.613281 225.824219 265.613281 241.160156 C 265.613281 258.976562 260.160156 272.855469 248.953125 283.589844 C 237.605469 294.457031 220.886719 301.191406 199.265625 303.601562 L 193.179688 304.28125 L 193.179688 348.789062 C 193.179688 348.804688 193.085938 350.714844 192.25 352.445312 C 191.46875 354.070312 190.355469 355.152344 187.453125 355.152344 C 182.375 355.152344 181.25 350.601562 181.011719 348.507812 L 181.011719 304.65625 L 174.203125 304.625 C 161.855469 304.566406 149.785156 302.988281 138.398438 299.960938 L 136.832031 299.53125 C 127.121094 296.847656 117.078125 294.074219 113.777344 288.082031 C 112.050781 284.953125 112.050781 280.675781 113.777344 275 C 114.921875 271.226562 117.40625 266.894531 126.503906 266.894531 C 133.25 266.894531 139.71875 269.359375 139.761719 269.375 L 151.273438 273.882812 L 151.042969 272.671875 C 159.175781 274.753906 166.769531 276.039062 173.714844 276.503906 L 181.011719 276.992188 L 181.011719 200.453125 L 176.554688 198.792969 C 150.171875 188.988281 132.097656 178.429688 122.820312 167.417969 C 113.714844 156.605469 109.289062 143.714844 109.289062 127.992188 C 109.289062 111.199219 115.058594 97.292969 126.933594 85.472656 C 138.828125 73.628906 154.949219 66.632812 174.839844 64.675781 Z M 117.273438 75.769531 C 102.890625 90.085938 95.597656 107.660156 95.597656 127.992188 C 95.597656 146.8125 101.234375 163.042969 112.351562 176.238281 C 122.746094 188.582031 140.753906 199.625 167.324219 209.933594 L 167.324219 262.050781 C 160.316406 261.015625 152.625 259.152344 144.367188 256.480469 C 143.792969 256.269531 142.628906 255.867188 141.046875 255.410156 L 135.414062 253.589844 L 135.414062 254.074219 C 132.730469 253.574219 129.667969 253.203125 126.503906 253.203125 C 113.335938 253.203125 104.164062 259.527344 100.675781 271.023438 C 97.863281 280.28125 98.234375 288.242188 101.78125 294.683594 C 107.867188 305.738281 121.320312 309.449219 133.1875 312.726562 L 134.808594 313.175781 C 145.273438 315.957031 156.179688 317.617188 167.324219 318.136719 L 167.324219 348.835938 L 167.34375 349.34375 C 167.929688 357.183594 173.765625 368.84375 187.453125 368.84375 C 201.59375 368.84375 206.816406 356.90625 206.871094 348.835938 L 206.871094 316.410156 C 228.664062 313.082031 245.984375 305.382812 258.417969 293.480469 C 272.277344 280.210938 279.304688 262.609375 279.304688 241.160156 C 279.304688 222.445312 273.019531 206.246094 260.632812 193.003906 C 249.230469 180.828125 231.613281 170.320312 206.871094 160.949219 L 206.871094 106.425781 C 214.664062 107.691406 222.164062 109.585938 229.289062 112.070312 C 229.40625 112.128906 229.53125 112.1875 229.65625 112.246094 L 229.65625 112.3125 L 234.585938 114.035156 L 234.585938 114.03125 L 234.71875 114.085938 C 234.898438 114.144531 235.066406 114.199219 235.238281 114.257812 L 243.347656 117.078125 L 243.347656 116.007812 C 243.8125 116.039062 244.265625 116.054688 244.714844 116.054688 C 250.769531 116.054688 255.585938 113.34375 258.648438 108.207031 C 261.382812 103.617188 262.65625 97.265625 262.65625 88.21875 C 262.65625 69.40625 250.152344 58.917969 239.445312 55.652344 L 239.160156 55.570312 C 230.015625 53.207031 219.179688 51.574219 206.871094 50.703125 L 206.871094 25.367188 C 207.109375 23.203125 207.292969 17.335938 203.207031 12.441406 C 200.8125 9.574219 196.136719 6.15625 187.453125 6.15625 C 178.835938 6.15625 174.058594 9.511719 171.566406 12.324219 C 167.195312 17.261719 167.195312 23.269531 167.324219 25.199219 L 167.324219 51.816406 C 146.996094 54.878906 130.183594 62.921875 117.273438 75.769531 " fill-opacity="1" fill-rule="nonzero"/></g><path fill="#11355c" d="M 167.324219 108.320312 L 167.324219 143.375 C 166.40625 142.6875 165.546875 141.992188 164.75 141.292969 C 159.148438 136.367188 156.394531 130.96875 156.394531 124.984375 C 156.394531 119.121094 157.816406 112.300781 167.324219 108.320312 Z M 171.125 161.578125 L 181.011719 166.488281 L 181.011719 91.117188 L 172.957031 92.570312 C 147.953125 97.066406 142.703125 112.679688 142.703125 124.984375 C 142.703125 126.386719 142.789062 127.757812 142.957031 129.113281 C 144.578125 142.1875 154.035156 153.09375 171.125 161.578125 " fill-opacity="1" fill-rule="nonzero"/><path fill="#11355c" d="M 206.871094 226.59375 C 218.503906 234.078125 218.503906 241.035156 218.503906 243.636719 C 218.503906 249.59375 217.003906 256.5 206.871094 260.25 Z M 232.195312 243.636719 C 232.195312 238.65625 231.023438 234.011719 228.695312 229.714844 C 224.246094 221.511719 215.570312 214.585938 202.746094 209.023438 L 193.179688 204.875 L 193.179688 276.941406 L 201.0625 275.730469 C 228.148438 271.566406 232.195312 253.839844 232.195312 243.636719 " fill-opacity="1" fill-rule="nonzero"/></svg>