<svg xmlns="http://www.w3.org/2000/svg" xmlns:xlink="http://www.w3.org/1999/xlink" width="500" zoomAndPan="magnify" viewBox="0 0 375 374.999991" height="500" preserveAspectRatio="xMidYMid meet" version="1.0"><defs><clipPath id="27064b6257"><path d="M 50.503906 5.058594 L 324.253906 5.058594 L 324.253906 370 L 50.503906 370 Z M 50.503906 5.058594 " clip-rule="nonzero"/></clipPath></defs><path fill="#11355c" d="M 168.742188 60.523438 C 172.191406 60.523438 175 63.328125 175 66.78125 C 175 69.695312 177.363281 72.050781 180.269531 72.050781 C 183.179688 72.050781 185.539062 69.695312 185.539062 66.78125 C 185.539062 59.371094 180.679688 53.140625 174.011719 50.914062 L 174.011719 45.472656 C 174.011719 42.558594 171.652344 40.203125 168.742188 40.203125 C 165.832031 40.203125 163.472656 42.558594 163.472656 45.472656 L 163.472656 50.914062 C 156.804688 53.136719 151.945312 59.371094 151.945312 66.78125 C 151.945312 76.046875 159.484375 83.578125 168.742188 83.578125 C 168.941406 83.578125 169.136719 83.570312 169.328125 83.546875 C 172.503906 83.84375 175 86.527344 175 89.78125 C 175 93.234375 172.191406 96.039062 168.742188 96.039062 C 165.292969 96.039062 162.484375 93.234375 162.484375 89.78125 C 162.484375 86.867188 160.121094 84.511719 157.214844 84.511719 C 154.304688 84.511719 151.945312 86.867188 151.945312 89.78125 C 151.945312 97.191406 156.804688 103.421875 163.472656 105.648438 L 163.472656 109.230469 C 163.472656 112.140625 165.832031 114.496094 168.742188 114.496094 C 171.652344 114.496094 174.011719 112.140625 174.011719 109.230469 L 174.011719 105.648438 C 180.679688 103.425781 185.539062 97.191406 185.539062 89.78125 C 185.539062 80.515625 178 72.980469 168.742188 72.980469 C 168.542969 72.980469 168.347656 72.992188 168.15625 73.015625 C 164.980469 72.71875 162.484375 70.035156 162.484375 66.78125 C 162.484375 63.328125 165.292969 60.523438 168.742188 60.523438 Z M 168.742188 60.523438 " fill-opacity="1" fill-rule="nonzero"/><g clip-path="url(#27064b6257)"><path fill="#11355c" d="M 308.609375 157.332031 L 281.746094 157.332031 L 281.746094 143.132812 C 281.746094 134.417969 274.65625 127.324219 265.941406 127.324219 L 220.652344 127.324219 C 233.457031 114.023438 240.828125 96.203125 240.828125 77.347656 C 240.828125 37.597656 208.492188 5.25 168.742188 5.25 C 128.988281 5.25 96.644531 37.597656 96.644531 77.347656 C 96.644531 96.183594 104.019531 114.015625 116.828125 127.324219 L 66.382812 127.324219 C 57.667969 127.324219 50.578125 134.417969 50.578125 143.132812 L 50.578125 323.921875 C 50.578125 326.660156 51.339844 329.199219 52.574219 331.453125 C 51.976562 332.304688 51.621094 333.335938 51.621094 334.457031 L 51.621094 353.929688 C 51.621094 362.644531 58.710938 369.734375 67.425781 369.734375 L 308.609375 369.734375 C 317.324219 369.734375 324.417969 362.644531 324.417969 353.929688 L 324.417969 173.132812 C 324.414062 164.421875 317.324219 157.332031 308.609375 157.332031 Z M 271.207031 254.738281 L 212.121094 254.738281 C 200.425781 254.738281 190.910156 245.222656 190.910156 233.527344 C 190.910156 221.832031 200.425781 212.320312 212.121094 212.320312 L 271.207031 212.320312 Z M 107.183594 77.351562 C 107.183594 43.410156 134.800781 15.792969 168.742188 15.792969 C 202.679688 15.792969 230.289062 43.410156 230.289062 77.351562 C 230.289062 97.21875 220.714844 115.753906 204.621094 127.328125 L 188.289062 127.328125 C 208.257812 119.488281 222.453125 100.066406 222.453125 77.351562 C 222.453125 47.734375 198.359375 23.636719 168.742188 23.636719 C 139.125 23.636719 115.027344 47.734375 115.027344 77.351562 C 115.027344 100.066406 129.226562 119.488281 149.195312 127.328125 L 132.851562 127.328125 C 116.757812 115.75 107.183594 97.203125 107.183594 77.351562 Z M 168.742188 120.527344 C 144.9375 120.527344 125.566406 101.160156 125.566406 77.351562 C 125.566406 53.542969 144.9375 34.175781 168.742188 34.175781 C 192.546875 34.175781 211.914062 53.542969 211.914062 77.351562 C 211.914062 101.160156 192.546875 120.527344 168.742188 120.527344 Z M 66.382812 137.867188 L 131.109375 137.867188 C 131.113281 137.867188 131.113281 137.867188 131.113281 137.867188 L 204.808594 137.867188 C 205.230469 137.972656 205.664062 138.03125 206.097656 138.03125 C 206.476562 138.03125 206.851562 137.953125 207.21875 137.867188 L 265.941406 137.867188 C 268.84375 137.867188 271.207031 140.230469 271.207031 143.136719 L 271.207031 201.78125 L 212.121094 201.78125 C 194.617188 201.78125 180.371094 216.023438 180.371094 233.527344 C 180.371094 251.035156 194.617188 265.277344 212.121094 265.277344 L 271.207031 265.277344 L 271.207031 323.925781 C 271.207031 326.828125 268.84375 329.191406 265.941406 329.191406 L 66.382812 329.191406 C 63.480469 329.191406 61.117188 326.828125 61.117188 323.925781 L 61.117188 167.867188 L 247.960938 167.867188 C 250.871094 167.867188 253.230469 165.511719 253.230469 162.601562 C 253.230469 159.6875 250.871094 157.332031 247.960938 157.332031 L 61.117188 157.332031 L 61.117188 143.132812 C 61.117188 140.226562 63.476562 137.867188 66.382812 137.867188 Z M 313.875 353.933594 C 313.875 356.835938 311.511719 359.199219 308.609375 359.199219 L 67.425781 359.199219 C 64.519531 359.199219 62.15625 356.835938 62.15625 353.933594 L 62.15625 339.082031 C 63.511719 339.460938 64.90625 339.726562 66.382812 339.726562 L 265.941406 339.726562 C 274.65625 339.726562 281.746094 332.636719 281.746094 323.921875 L 281.746094 167.867188 L 308.609375 167.867188 C 311.511719 167.867188 313.875 170.234375 313.875 173.136719 Z M 313.875 353.933594 " fill-opacity="1" fill-rule="nonzero"/></g><path fill="#11355c" d="M 208.183594 233.527344 C 208.183594 236.4375 210.542969 238.796875 213.449219 238.796875 L 231.0625 238.796875 C 233.972656 238.796875 236.332031 236.4375 236.332031 233.527344 C 236.332031 230.613281 233.972656 228.257812 231.0625 228.257812 L 213.449219 228.257812 C 210.542969 228.257812 208.183594 230.613281 208.183594 233.527344 Z M 208.183594 233.527344 " fill-opacity="1" fill-rule="nonzero"/></svg>