<svg xmlns="http://www.w3.org/2000/svg" xmlns:xlink="http://www.w3.org/1999/xlink" width="500" zoomAndPan="magnify" viewBox="0 0 375 374.999991" height="500" preserveAspectRatio="xMidYMid meet" version="1.0"><defs><clipPath id="1cb4f119cc"><path d="M 153 23.21875 L 234 23.21875 L 234 104 L 153 104 Z M 153 23.21875 " clip-rule="nonzero"/></clipPath><clipPath id="258fa38a39"><path d="M 18 212 L 127 212 L 127 354.71875 L 18 354.71875 Z M 18 212 " clip-rule="nonzero"/></clipPath><clipPath id="7b7baaf1fc"><path d="M 138 212 L 248 212 L 248 354.71875 L 138 354.71875 Z M 138 212 " clip-rule="nonzero"/></clipPath><clipPath id="9ff2910229"><path d="M 259 212 L 368 212 L 368 354.71875 L 259 354.71875 Z M 259 212 " clip-rule="nonzero"/></clipPath></defs><path fill="#11355c" d="M 172.8125 160.511719 C 172.8125 138.421875 154.902344 120.511719 132.808594 120.511719 C 110.71875 120.511719 92.808594 138.421875 92.808594 160.511719 C 92.808594 182.605469 110.71875 200.515625 132.808594 200.515625 C 154.902344 200.515625 172.8125 182.605469 172.8125 160.511719 " fill-opacity="1" fill-rule="nonzero"/><path fill="#11355c" d="M 293.296875 160.511719 C 293.296875 138.421875 275.386719 120.511719 253.296875 120.511719 C 231.203125 120.511719 213.292969 138.421875 213.292969 160.511719 C 213.292969 182.605469 231.203125 200.515625 253.296875 200.515625 C 275.386719 200.515625 293.296875 182.605469 293.296875 160.511719 " fill-opacity="1" fill-rule="nonzero"/><g clip-path="url(#1cb4f119cc)"><path fill="#11355c" d="M 193.054688 103.234375 C 215.144531 103.234375 233.054688 85.328125 233.054688 63.234375 C 233.054688 41.144531 215.144531 23.230469 193.054688 23.230469 C 170.960938 23.230469 153.050781 41.144531 153.050781 63.234375 C 153.050781 85.328125 170.960938 103.234375 193.054688 103.234375 " fill-opacity="1" fill-rule="nonzero"/></g><g clip-path="url(#258fa38a39)"><path fill="#11355c" d="M 92.414062 286.808594 C 104.644531 279.964844 113.007812 267.039062 113.007812 252.03125 C 113.007812 229.9375 95.097656 212.03125 73.007812 212.03125 C 50.914062 212.03125 33.007812 229.9375 33.007812 252.03125 C 33.007812 266.914062 41.222656 279.742188 53.277344 286.632812 C 32.855469 294.476562 18.195312 314.1875 18.195312 337.28125 L 18.195312 354.996094 L 126.933594 354.996094 L 126.933594 337.28125 C 126.933594 314.390625 112.550781 294.792969 92.414062 286.808594 " fill-opacity="1" fill-rule="nonzero"/></g><g clip-path="url(#7b7baaf1fc)"><path fill="#11355c" d="M 212.902344 286.808594 C 225.128906 279.964844 233.492188 267.039062 233.492188 252.03125 C 233.492188 229.9375 215.585938 212.03125 193.492188 212.03125 C 171.402344 212.03125 153.488281 229.9375 153.488281 252.03125 C 153.488281 266.914062 161.710938 279.742188 173.761719 286.632812 C 153.34375 294.476562 138.683594 314.183594 138.683594 337.28125 L 138.683594 354.996094 L 247.421875 354.996094 L 247.421875 337.28125 C 247.421875 314.390625 233.039062 294.792969 212.902344 286.808594 " fill-opacity="1" fill-rule="nonzero"/></g><g clip-path="url(#9ff2910229)"><path fill="#11355c" d="M 333.386719 286.808594 C 345.617188 279.964844 353.980469 267.039062 353.980469 252.03125 C 353.980469 229.9375 336.070312 212.03125 313.980469 212.03125 C 291.882812 212.03125 273.976562 229.9375 273.976562 252.03125 C 273.976562 266.914062 282.195312 279.742188 294.25 286.632812 C 273.828125 294.476562 259.171875 314.183594 259.171875 337.28125 L 259.171875 354.996094 L 367.910156 354.996094 L 367.910156 337.28125 C 367.910156 314.390625 353.523438 294.792969 333.386719 286.808594 " fill-opacity="1" fill-rule="nonzero"/></g></svg>