<svg xmlns="http://www.w3.org/2000/svg" xmlns:xlink="http://www.w3.org/1999/xlink" width="500" zoomAndPan="magnify" viewBox="0 0 375 374.999991" height="500" preserveAspectRatio="xMidYMid meet" version="1.0"><path fill="#11355c" d="M 185.804688 21.347656 C 186.917969 21 188.054688 21 189.167969 21.324219 L 318.246094 59.859375 L 318.246094 94.753906 L 290.851562 113.371094 C 276.390625 97.074219 221.742188 92.410156 187.5 92.410156 C 153.253906 92.410156 98.585938 97.074219 84.144531 113.371094 L 21.09375 70.515625 Z M 330.132812 86.699219 L 330.132812 63.414062 L 353.925781 70.515625 Z M 224.222656 167.996094 C 217.214844 154.859375 203.378906 145.898438 187.5 145.898438 C 171.617188 145.898438 157.78125 154.859375 150.773438 167.996094 C 107.984375 164.027344 92.964844 154.835938 92.410156 151.863281 C 93.523438 145.804688 128.089844 134.011719 187.5 134.011719 C 246.90625 134.011719 281.472656 145.804688 282.585938 151.816406 C 282.03125 154.835938 267.011719 164.027344 224.222656 167.996094 Z M 204.234375 193.441406 C 204.886719 191.5625 205.328125 189.585938 205.328125 187.5 C 205.328125 177.65625 197.339844 169.667969 187.5 169.667969 C 177.65625 169.667969 169.667969 177.65625 169.667969 187.5 C 169.667969 189.585938 170.109375 191.5625 170.761719 193.441406 L 158.457031 193.441406 C 158.0625 191.492188 157.78125 189.519531 157.78125 187.5 C 157.78125 171.109375 171.109375 157.78125 187.5 157.78125 C 203.886719 157.78125 217.214844 171.109375 217.214844 187.5 C 217.214844 189.519531 216.933594 191.492188 216.539062 193.441406 Z M 181.554688 187.5 C 181.554688 184.226562 184.226562 181.554688 187.5 181.554688 C 190.769531 181.554688 193.441406 184.226562 193.441406 187.5 C 193.441406 190.769531 190.769531 193.441406 187.5 193.441406 C 184.226562 193.441406 181.554688 190.769531 181.554688 187.5 Z M 279.199219 219.90625 L 300.113281 332.824219 C 301.066406 338.046875 299.695312 343.386719 296.285156 347.472656 C 292.894531 351.558594 287.902344 353.90625 282.585938 353.90625 L 92.410156 353.90625 C 87.09375 353.90625 82.101562 351.558594 78.710938 347.472656 C 75.300781 343.386719 73.929688 338.046875 74.882812 332.824219 L 95.796875 219.90625 C 97.355469 211.457031 104.734375 205.328125 113.324219 205.328125 L 261.671875 205.328125 C 270.261719 205.328125 277.640625 211.457031 279.199219 219.90625 Z M 282.585938 136.914062 C 261.507812 125.582031 216.957031 122.125 187.5 122.125 C 158.039062 122.125 113.488281 125.582031 92.410156 136.914062 L 92.410156 122.148438 C 93.546875 116.089844 128.113281 104.296875 187.5 104.296875 C 246.882812 104.296875 281.449219 116.089844 282.585938 122.125 Z M 324.1875 157.78125 C 320.914062 157.78125 318.246094 155.113281 318.246094 151.839844 C 318.246094 148.566406 320.914062 145.898438 324.1875 145.898438 C 327.460938 145.898438 330.132812 148.566406 330.132812 151.839844 C 330.132812 155.113281 327.460938 157.78125 324.1875 157.78125 Z M 14.40625 80.382812 L 80.523438 125.28125 L 80.523438 151.839844 C 80.523438 170.132812 122.308594 177.050781 146.6875 179.558594 C 146.175781 182.136719 145.898438 184.78125 145.898438 187.5 C 145.898438 189.519531 146.128906 191.492188 146.40625 193.441406 L 113.324219 193.441406 C 99 193.441406 86.722656 203.65625 84.097656 217.746094 L 63.203125 330.664062 C 61.578125 339.371094 63.902344 348.261719 69.566406 355.089844 C 75.230469 361.890625 83.5625 365.789062 92.410156 365.789062 L 282.585938 365.789062 C 291.433594 365.789062 299.765625 361.890625 305.429688 355.089844 C 311.09375 348.261719 313.417969 339.371094 311.792969 330.664062 L 290.898438 217.746094 C 288.273438 203.65625 275.996094 193.441406 261.671875 193.441406 L 228.589844 193.441406 C 228.867188 191.492188 229.101562 189.519531 229.101562 187.5 C 229.101562 184.78125 228.820312 182.136719 228.308594 179.558594 C 252.6875 177.050781 294.472656 170.132812 294.472656 151.839844 L 294.472656 125.28125 L 318.246094 109.125 L 318.246094 135.101562 C 311.351562 137.5625 306.359375 144.109375 306.359375 151.839844 C 306.359375 161.683594 314.347656 169.667969 324.1875 169.667969 C 334.03125 169.667969 342.019531 161.683594 342.019531 151.839844 C 342.019531 144.109375 337.027344 137.5625 330.132812 135.101562 L 330.132812 101.066406 L 360.636719 80.335938 C 364.445312 77.714844 366.371094 73.257812 365.652344 68.683594 C 364.929688 64.109375 361.726562 60.441406 357.316406 59.117188 L 192.558594 9.949219 C 189.238281 8.949219 185.734375 8.949219 182.414062 9.949219 L 17.703125 59.117188 C 13.269531 60.441406 10.066406 64.085938 9.34375 68.683594 C 8.625 73.257812 10.550781 77.738281 14.40625 80.382812 " fill-opacity="1" fill-rule="nonzero"/><path fill="#11355c" d="M 205.328125 300.417969 C 205.328125 308.148438 200.335938 314.695312 193.441406 317.15625 L 193.441406 283.679688 C 200.335938 286.140625 205.328125 292.6875 205.328125 300.417969 Z M 169.667969 252.871094 C 169.667969 245.140625 174.660156 238.59375 181.554688 236.132812 L 181.554688 269.609375 C 174.660156 267.148438 169.667969 260.601562 169.667969 252.871094 Z M 205.328125 252.871094 C 205.328125 256.144531 207.996094 258.816406 211.269531 258.816406 C 214.542969 258.816406 217.214844 256.144531 217.214844 252.871094 C 217.214844 238.523438 207 226.523438 193.441406 223.761719 L 193.441406 223.15625 C 193.441406 219.882812 190.769531 217.214844 187.5 217.214844 C 184.226562 217.214844 181.554688 219.882812 181.554688 223.15625 L 181.554688 223.761719 C 167.996094 226.523438 157.78125 238.523438 157.78125 252.871094 C 157.78125 267.21875 167.996094 279.222656 181.554688 281.984375 L 181.554688 317.15625 C 174.660156 314.695312 169.667969 308.148438 169.667969 300.417969 C 169.667969 297.144531 167 294.472656 163.726562 294.472656 C 160.453125 294.472656 157.78125 297.144531 157.78125 300.417969 C 157.78125 314.761719 167.996094 326.765625 181.554688 329.527344 L 181.554688 330.132812 C 181.554688 333.40625 184.226562 336.074219 187.5 336.074219 C 190.769531 336.074219 193.441406 333.40625 193.441406 330.132812 L 193.441406 329.527344 C 207 326.765625 217.214844 314.761719 217.214844 300.417969 C 217.214844 286.070312 207 274.066406 193.441406 271.304688 L 193.441406 236.132812 C 200.335938 238.59375 205.328125 245.140625 205.328125 252.871094 " fill-opacity="1" fill-rule="nonzero"/></svg>