<svg xmlns="http://www.w3.org/2000/svg" xmlns:xlink="http://www.w3.org/1999/xlink" width="500" zoomAndPan="magnify" viewBox="0 0 375 374.999991" height="500" preserveAspectRatio="xMidYMid meet" version="1.0"><defs><clipPath id="26f049a24f"><path d="M 128 245 L 184 245 L 184 363.914062 L 128 363.914062 Z M 128 245 " clip-rule="nonzero"/></clipPath><clipPath id="a8ccadb6de"><path d="M 193 245 L 248 245 L 248 363.914062 L 193 363.914062 Z M 193 245 " clip-rule="nonzero"/></clipPath></defs><g clip-path="url(#26f049a24f)"><path fill="#11355c" d="M 128.910156 358.375 C 128.910156 360.042969 129.476562 361.144531 130.578125 362.246094 C 131.679688 363.347656 133.347656 363.914062 134.449219 363.914062 L 183.167969 363.914062 L 183.167969 245.992188 L 128.910156 245.992188 L 128.910156 358.375 " fill-opacity="1" fill-rule="nonzero"/></g><g clip-path="url(#a8ccadb6de)"><path fill="#11355c" d="M 193.675781 363.914062 L 241.828125 363.914062 C 244.628906 363.914062 247.363281 361.144531 247.363281 358.375 L 247.363281 245.457031 L 194.238281 245.457031 L 193.675781 363.914062 " fill-opacity="1" fill-rule="nonzero"/></g><path fill="#11355c" d="M 188.703125 91.558594 C 210.847656 91.558594 228.554688 73.28125 228.554688 51.140625 C 228.554688 28.996094 210.847656 10.722656 188.703125 10.722656 C 166.5625 10.722656 148.851562 28.996094 148.851562 51.140625 C 148.851562 73.28125 166.5625 91.558594 188.703125 91.558594 " fill-opacity="1" fill-rule="nonzero"/><path fill="#11355c" d="M 274.507812 210.578125 L 312.726562 136.945312 L 350.910156 210.578125 Z M 25.964844 210.578125 L 64.148438 136.945312 L 102.363281 210.578125 Z M 365.285156 213.34375 L 322.128906 129.742188 L 323.230469 129.742188 C 333.734375 129.742188 342.574219 120.902344 342.574219 110.367188 C 342.574219 99.859375 333.734375 90.992188 323.230469 90.992188 L 243.496094 90.992188 L 224.6875 87.6875 C 215.25 97.09375 202.542969 102.628906 188.703125 102.628906 C 174.863281 102.628906 162.125 97.09375 152.722656 87.6875 L 133.914062 91.558594 L 54.179688 91.558594 C 43.671875 91.558594 34.804688 100.394531 34.804688 110.933594 C 34.804688 121.4375 43.671875 130.308594 54.179688 130.308594 L 55.277344 130.308594 C 8.789062 219.414062 12.125 213.34375 11.558594 215.011719 L 11.558594 216.113281 C 11.558594 245.457031 35.367188 268.703125 64.714844 268.703125 C 94.03125 268.703125 117.304688 244.894531 117.304688 216.113281 C 117.304688 212.777344 117.304688 215.546875 73.554688 129.742188 L 129.476562 128.640625 L 129.476562 234.386719 L 248.496094 234.386719 L 248.496094 128.640625 L 304.390625 129.742188 L 260.667969 213.34375 C 260.105469 213.878906 260.105469 215.011719 260.105469 216.113281 C 260.105469 245.457031 283.914062 268.703125 313.261719 268.703125 C 342.605469 268.703125 365.851562 244.894531 365.851562 215.546875 C 365.851562 215.011719 365.851562 213.878906 365.285156 213.34375 " fill-opacity="1" fill-rule="nonzero"/></svg>