<svg xmlns="http://www.w3.org/2000/svg" xmlns:xlink="http://www.w3.org/1999/xlink" width="500" zoomAndPan="magnify" viewBox="0 0 375 374.999991" height="500" preserveAspectRatio="xMidYMid meet" version="1.0"><defs><clipPath id="69f77d3a61"><path d="M 5.957031 39 L 368.957031 39 L 368.957031 336 L 5.957031 336 Z M 5.957031 39 " clip-rule="nonzero"/></clipPath></defs><g clip-path="url(#69f77d3a61)"><path fill="#11355c" d="M 369.15625 151.660156 C 369.15625 138.011719 361.792969 125.335938 349.9375 118.5625 C 346.570312 116.648438 342.328125 117.824219 340.429688 121.164062 C 338.523438 124.5 339.6875 128.757812 343.023438 130.667969 C 350.550781 134.960938 355.21875 143.003906 355.21875 151.652344 C 355.21875 162.601562 347.699219 172.085938 337.457031 174.914062 C 334.597656 131.527344 308.207031 92.347656 265.578125 69 C 244.09375 57.203125 219.535156 50.136719 194.542969 48.582031 C 192.179688 48.460938 189.980469 49.460938 188.570312 51.304688 C 187.15625 53.152344 186.765625 55.585938 187.519531 57.785156 C 187.722656 58.386719 203.539062 104.199219 208.710938 119.175781 L 174.820312 145.917969 C 173.234375 147.171875 172.269531 149.050781 172.179688 151.074219 L 171.433594 167.484375 L 159.042969 140.941406 L 190.3125 116.117188 C 192.898438 114.066406 193.6875 110.492188 192.214844 107.546875 L 165.390625 53.855469 C 164.046875 51.167969 161.128906 49.648438 158.160156 50.074219 C 143.78125 52.15625 129.894531 56.003906 116.785156 61.515625 C 105.027344 46.714844 84.191406 38.976562 68.140625 39.0625 C 62.859375 39.109375 58.089844 42.105469 55.722656 46.878906 C 53.304688 51.730469 53.796875 57.4375 57.011719 61.773438 C 62.574219 69.273438 69.296875 80.34375 70.699219 91.238281 C 55.253906 105.289062 43.601562 121.441406 36.632812 138.816406 L 20.765625 143.644531 C 11.910156 146.347656 5.957031 154.382812 5.957031 163.644531 L 5.957031 202.066406 C 5.957031 211.3125 11.894531 219.339844 20.730469 222.046875 L 38.265625 227.425781 C 46.667969 248.214844 60.871094 266.910156 79.613281 281.867188 L 76.503906 308.339844 C 75.164062 319.769531 83.003906 330.195312 94.359375 332.0625 L 115.257812 335.519531 C 116.4375 335.714844 117.613281 335.8125 118.785156 335.8125 C 125.957031 335.8125 132.765625 332.210938 136.777344 326.085938 L 145.476562 312.789062 C 157.894531 315.546875 170.652344 317.066406 183.664062 317.066406 C 196.667969 317.066406 209.421875 315.546875 221.832031 312.789062 L 230.53125 326.078125 C 234.539062 332.21875 241.347656 335.8125 248.519531 335.8125 C 249.6875 335.8125 250.867188 335.714844 252.042969 335.519531 L 272.957031 332.0625 C 284.296875 330.1875 292.144531 319.769531 290.8125 308.347656 L 287.71875 281.84375 C 317.816406 257.832031 335.683594 224.464844 337.574219 189.011719 C 355.492188 185.875 369.15625 170.160156 369.15625 151.660156 Z M 276.128906 273.191406 C 274.15625 274.679688 273.117188 277.105469 273.402344 279.558594 L 276.957031 309.964844 C 277.425781 313.988281 274.664062 317.660156 270.679688 318.3125 L 249.757812 321.769531 C 246.777344 322.28125 243.828125 320.960938 242.191406 318.441406 L 236.007812 308.988281 C 237.285156 308.59375 238.585938 308.285156 239.847656 307.855469 C 243.488281 306.613281 245.4375 302.65625 244.191406 299.003906 C 242.949219 295.367188 238.976562 293.394531 235.339844 294.660156 C 202.453125 305.875 164.855469 305.875 131.957031 294.660156 C 128.3125 293.386719 124.351562 295.367188 123.113281 299.003906 C 121.871094 302.648438 123.816406 306.613281 127.460938 307.855469 C 128.722656 308.285156 130.019531 308.585938 131.292969 308.984375 L 125.105469 318.441406 C 123.46875 320.949219 120.492188 322.257812 117.53125 321.761719 L 96.621094 318.308594 C 92.621094 317.644531 89.863281 313.980469 90.335938 309.957031 L 93.90625 279.585938 C 94.199219 277.121094 93.160156 274.703125 91.179688 273.210938 C 71.988281 258.722656 57.769531 240.085938 50.0625 219.335938 C 49.3125 217.300781 47.652344 215.730469 45.574219 215.097656 L 24.808594 208.71875 C 21.875 207.820312 19.894531 205.144531 19.894531 202.066406 L 19.894531 163.644531 C 19.894531 160.558594 21.882812 157.882812 24.828125 156.976562 L 43.953125 151.148438 C 46.042969 150.515625 47.722656 148.925781 48.46875 146.871094 C 55.972656 126.304688 71.632812 106.570312 92.582031 91.292969 C 95.6875 89.023438 96.371094 84.667969 94.105469 81.558594 C 91.84375 78.449219 87.480469 77.765625 84.371094 80.03125 C 83.828125 80.429688 83.332031 80.855469 82.796875 81.257812 C 79.613281 70.441406 73.472656 60.433594 68.273438 53 C 81.625 53.160156 100.789062 60.761719 108.273438 73.726562 C 110.074219 76.847656 113.960938 78.074219 117.238281 76.5625 C 129.195312 71.015625 141.949219 67.027344 155.203125 64.679688 L 177.210938 108.730469 L 146.058594 133.457031 C 143.53125 135.460938 142.714844 138.941406 144.074219 141.867188 L 170.785156 199.070312 C 172.144531 201.980469 175.332031 203.621094 178.460938 202.957031 C 181.609375 202.335938 183.921875 199.640625 184.070312 196.433594 L 185.957031 154.898438 L 221.234375 127.066406 C 223.5625 125.226562 224.476562 122.125 223.507812 119.324219 C 223.507812 119.324219 210.640625 82.066406 204.238281 63.523438 C 223.511719 66.03125 242.210938 72.074219 258.886719 81.238281 C 299.542969 103.503906 323.808594 141.46875 323.808594 182.78125 C 323.804688 217.363281 306.421875 250.316406 276.128906 273.191406 Z M 112.144531 151.050781 C 114.867188 153.769531 114.867188 158.179688 112.144531 160.90625 C 110.785156 162.265625 109 162.949219 107.214844 162.949219 C 105.429688 162.949219 103.648438 162.265625 102.289062 160.90625 L 95.527344 154.148438 L 88.769531 160.90625 C 87.410156 162.265625 85.625 162.949219 83.84375 162.949219 C 82.058594 162.949219 80.273438 162.265625 78.914062 160.90625 C 76.191406 158.179688 76.191406 153.769531 78.914062 151.050781 L 85.675781 144.292969 L 78.914062 137.53125 C 76.191406 134.816406 76.191406 130.402344 78.914062 127.679688 C 81.640625 124.953125 86.042969 124.953125 88.769531 127.679688 L 95.527344 134.4375 L 102.289062 127.679688 C 105.011719 124.953125 109.417969 124.953125 112.144531 127.679688 C 114.867188 130.402344 114.867188 134.816406 112.144531 137.53125 L 105.382812 144.292969 Z M 112.144531 151.050781 " fill-opacity="1" fill-rule="nonzero"/></g></svg>