<svg xmlns="http://www.w3.org/2000/svg" xmlns:xlink="http://www.w3.org/1999/xlink" width="500" zoomAndPan="magnify" viewBox="0 0 375 374.999991" height="500" preserveAspectRatio="xMidYMid meet" version="1.0"><defs><clipPath id="2f76f0750e"><path d="M 4.601562 87 L 257 87 L 257 347.714844 L 4.601562 347.714844 Z M 4.601562 87 " clip-rule="nonzero"/></clipPath><clipPath id="dddd3bff2c"><path d="M 204 27.464844 L 370.601562 27.464844 L 370.601562 245 L 204 245 Z M 204 27.464844 " clip-rule="nonzero"/></clipPath></defs><path fill="#11355c" d="M 130.339844 233.21875 C 141.488281 233.21875 150.34375 224.359375 150.34375 213.214844 C 150.34375 202.070312 141.488281 193.210938 130.339844 193.210938 C 119.195312 193.210938 110.335938 202.070312 110.335938 213.214844 C 110.335938 224.359375 119.195312 233.21875 130.339844 233.21875 Z M 130.339844 204.640625 C 135.199219 204.640625 138.914062 208.355469 138.914062 213.214844 C 138.914062 218.070312 135.199219 221.789062 130.339844 221.789062 C 125.484375 221.789062 121.769531 218.070312 121.769531 213.214844 C 121.769531 208.355469 125.484375 204.640625 130.339844 204.640625 Z M 130.339844 204.640625 " fill-opacity="1" fill-rule="nonzero"/><g clip-path="url(#2f76f0750e)"><path fill="#11355c" d="M 250.363281 313.234375 L 244.648438 313.234375 L 244.648438 256.078125 L 233.21875 256.078125 L 233.21875 313.234375 L 221.789062 313.234375 L 221.789062 296.085938 C 221.789062 292.945312 219.214844 290.371094 216.074219 290.371094 L 214.359375 290.371094 L 214.359375 256.078125 L 210.355469 256.078125 C 207.785156 256.078125 205.214844 255.507812 202.925781 254.363281 L 202.925781 290.371094 L 189.210938 290.371094 L 189.210938 201.785156 L 193.210938 201.785156 L 193.210938 190.351562 L 181.78125 190.351562 L 181.78125 178.921875 L 193.210938 178.921875 L 193.210938 167.492188 L 47.46875 167.492188 L 47.46875 156.058594 L 193.210938 156.058594 L 193.210938 144.628906 L 61.757812 144.628906 L 61.757812 131.484375 L 130.339844 99.476562 L 193.210938 128.625 L 193.210938 116.050781 L 132.914062 88.046875 C 131.484375 87.476562 129.484375 87.476562 128.054688 88.046875 L 53.753906 122.625 C 51.753906 123.480469 50.324219 125.484375 50.324219 127.769531 L 50.324219 144.628906 L 41.753906 144.628906 C 38.609375 144.628906 36.039062 147.203125 36.039062 150.34375 L 36.039062 167.492188 L 21.75 167.492188 C 18.605469 167.492188 16.035156 170.0625 16.035156 173.207031 L 16.035156 313.234375 L 10.316406 313.234375 C 7.175781 313.234375 4.601562 315.804688 4.601562 318.949219 L 4.601562 341.8125 C 4.601562 344.953125 7.175781 347.527344 10.316406 347.527344 L 250.363281 347.527344 C 253.507812 347.527344 256.082031 344.953125 256.082031 341.8125 L 256.082031 318.949219 C 256.082031 315.804688 253.507812 313.234375 250.363281 313.234375 Z M 181.78125 301.804688 L 210.355469 301.804688 L 210.355469 313.234375 L 181.78125 313.234375 Z M 82.902344 201.785156 L 84.617188 201.785156 C 87.761719 201.785156 90.332031 199.210938 90.332031 196.066406 L 90.332031 178.921875 L 170.347656 178.921875 L 170.347656 196.066406 C 170.347656 199.210938 172.921875 201.785156 176.066406 201.785156 L 177.78125 201.785156 L 177.78125 290.371094 L 176.066406 290.371094 C 172.921875 290.371094 170.347656 292.945312 170.347656 296.085938 L 170.347656 313.234375 L 158.917969 313.234375 L 158.917969 250.363281 C 158.917969 247.222656 156.347656 244.648438 153.203125 244.648438 L 107.480469 244.648438 C 104.335938 244.648438 101.765625 247.222656 101.765625 250.363281 L 101.765625 313.234375 L 90.332031 313.234375 L 90.332031 296.085938 C 90.332031 292.945312 87.761719 290.371094 84.617188 290.371094 L 82.902344 290.371094 Z M 147.488281 256.078125 L 147.488281 313.234375 L 113.195312 313.234375 L 113.195312 256.078125 Z M 50.324219 178.921875 L 78.902344 178.921875 L 78.902344 190.351562 L 50.324219 190.351562 Z M 71.472656 201.785156 L 71.472656 290.371094 L 57.757812 290.371094 L 57.757812 201.785156 Z M 50.324219 301.804688 L 78.902344 301.804688 L 78.902344 313.234375 L 50.324219 313.234375 Z M 27.464844 178.921875 L 38.894531 178.921875 L 38.894531 196.066406 C 38.894531 199.210938 41.46875 201.785156 44.609375 201.785156 L 46.324219 201.785156 L 46.324219 290.371094 L 44.609375 290.371094 C 41.46875 290.371094 38.894531 292.945312 38.894531 296.085938 L 38.894531 313.234375 L 27.464844 313.234375 Z M 244.648438 336.09375 L 16.035156 336.09375 L 16.035156 324.664062 L 244.648438 324.664062 Z M 244.648438 336.09375 " fill-opacity="1" fill-rule="nonzero"/></g><g clip-path="url(#dddd3bff2c)"><path fill="#11355c" d="M 364.671875 27.464844 C 356.957031 27.464844 352.671875 29.464844 349.242188 31.179688 C 346.382812 32.605469 344.097656 33.75 338.953125 33.75 C 333.808594 33.75 331.523438 32.605469 328.667969 31.179688 C 325.238281 29.464844 320.949219 27.464844 313.234375 27.464844 C 305.519531 27.464844 301.230469 29.464844 297.804688 31.179688 C 294.945312 32.605469 292.660156 33.75 287.515625 33.75 C 282.371094 33.75 280.085938 32.605469 277.226562 31.179688 C 273.796875 29.464844 269.511719 27.464844 261.796875 27.464844 C 254.082031 27.464844 249.792969 29.464844 246.363281 31.179688 C 243.507812 32.605469 241.21875 33.75 236.078125 33.75 C 230.933594 33.75 228.648438 32.605469 225.789062 31.179688 C 222.359375 29.464844 218.074219 27.464844 210.355469 27.464844 C 207.214844 27.464844 204.640625 30.035156 204.640625 33.179688 L 204.640625 238.933594 C 204.640625 242.078125 207.214844 244.648438 210.355469 244.648438 L 318.949219 244.648438 C 320.378906 244.648438 321.808594 244.078125 322.949219 242.933594 L 368.675781 197.210938 C 369.816406 196.066406 370.386719 194.640625 370.386719 193.210938 L 370.386719 33.179688 C 370.386719 30.035156 367.816406 27.464844 364.671875 27.464844 Z M 324.664062 225.214844 L 324.664062 198.925781 L 350.957031 198.925781 Z M 358.957031 187.496094 L 318.949219 187.496094 C 315.804688 187.496094 313.234375 190.066406 313.234375 193.210938 L 313.234375 233.21875 L 216.074219 233.21875 L 216.074219 81.761719 L 358.957031 81.761719 Z M 358.957031 70.328125 L 216.074219 70.328125 L 216.074219 39.464844 C 217.789062 40.039062 219.214844 40.609375 220.644531 41.464844 C 224.074219 43.179688 228.359375 45.179688 236.078125 45.179688 C 243.792969 45.179688 248.078125 43.179688 251.507812 41.464844 C 254.367188 40.039062 256.652344 38.894531 261.796875 38.894531 C 266.941406 38.894531 269.226562 40.039062 272.082031 41.464844 C 275.511719 43.179688 279.800781 45.179688 287.515625 45.179688 C 295.230469 45.179688 299.515625 43.179688 302.945312 41.464844 C 305.804688 40.039062 308.089844 38.894531 313.234375 38.894531 C 318.378906 38.894531 320.664062 40.039062 323.523438 41.464844 C 326.953125 43.179688 331.238281 45.179688 338.953125 45.179688 C 346.667969 45.179688 350.957031 43.179688 354.386719 41.464844 C 355.8125 40.609375 357.242188 40.039062 358.957031 39.464844 Z M 358.957031 70.328125 " fill-opacity="1" fill-rule="nonzero"/></g><path fill="#11355c" d="M 285.515625 154.34375 C 290.660156 155.773438 295.800781 157.203125 297.804688 160.347656 C 299.230469 162.632812 299.230469 165.203125 298.089844 167.207031 C 295.515625 170.921875 288.945312 171.777344 284.085938 170.921875 C 282.085938 170.632812 280.085938 169.777344 278.371094 168.347656 C 275.796875 166.347656 272.371094 166.917969 270.367188 169.492188 C 268.367188 172.0625 268.941406 175.492188 271.511719 177.492188 C 274.65625 179.777344 278.371094 181.492188 282.085938 182.066406 C 282.085938 182.066406 282.085938 182.066406 282.371094 182.066406 L 282.371094 187.78125 C 282.371094 190.925781 284.941406 193.496094 288.085938 193.496094 C 291.230469 193.496094 293.800781 190.925781 293.800781 187.78125 L 293.800781 182.066406 C 299.230469 181.207031 304.375 178.636719 307.804688 173.777344 C 311.804688 168.0625 311.804688 160.347656 307.804688 154.058594 C 303.519531 147.203125 295.800781 145.199219 288.945312 143.199219 C 282.085938 141.484375 278.085938 140.058594 276.65625 136.34375 C 275.511719 132.914062 279.226562 130.339844 281.226562 129.484375 C 285.800781 127.769531 291.800781 128.339844 296.375 130.914062 C 298.945312 132.625 302.660156 131.769531 304.089844 128.910156 C 305.804688 126.339844 304.945312 122.625 302.089844 121.195312 C 300.089844 120.054688 298.089844 119.195312 296.089844 118.339844 L 296.089844 113.195312 C 296.089844 110.050781 293.515625 107.480469 290.371094 107.480469 C 287.230469 107.480469 284.65625 110.050781 284.65625 113.195312 L 284.65625 117.195312 C 282.085938 117.480469 279.511719 118.050781 276.941406 118.910156 C 267.511719 122.625 262.9375 131.484375 265.796875 140.058594 C 268.65625 149.773438 278.085938 152.34375 285.515625 154.34375 Z M 285.515625 154.34375 " fill-opacity="1" fill-rule="nonzero"/></svg>