<svg xmlns="http://www.w3.org/2000/svg" xmlns:xlink="http://www.w3.org/1999/xlink" width="500" zoomAndPan="magnify" viewBox="0 0 375 374.999991" height="500" preserveAspectRatio="xMidYMid meet" version="1.0"><defs><clipPath id="f290c20c83"><path d="M 64 160 L 207 160 L 207 369.855469 L 64 369.855469 Z M 64 160 " clip-rule="nonzero"/></clipPath><clipPath id="80ca8dd34c"><path d="M 176 217 L 287 217 L 287 369.855469 L 176 369.855469 Z M 176 217 " clip-rule="nonzero"/></clipPath><clipPath id="f0d6975783"><path d="M 93 5.355469 L 360.367188 5.355469 L 360.367188 259 L 93 259 Z M 93 5.355469 " clip-rule="nonzero"/></clipPath><clipPath id="31e4e69579"><path d="M 14.617188 202 L 46 202 L 46 216 L 14.617188 216 Z M 14.617188 202 " clip-rule="nonzero"/></clipPath></defs><g clip-path="url(#f290c20c83)"><path fill="#11355c" d="M 100.496094 369.636719 L 76.371094 369.636719 C 69.566406 369.636719 64.023438 364.09375 64.023438 357.289062 C 64.023438 341.214844 77.15625 334.476562 84.667969 331.617188 L 99.539062 270.261719 C 101 264.207031 104.667969 258.972656 109.847656 255.53125 L 152.652344 226.996094 L 111.132812 190.957031 C 104.738281 185.414062 101.070312 177.375 101.070312 168.90625 C 101.070312 166.09375 101.488281 163.328125 102.3125 160.667969 L 114.105469 164.335938 C 113.652344 165.800781 113.417969 167.339844 113.417969 168.90625 C 113.417969 173.792969 115.539062 178.4375 119.222656 181.625 L 172.964844 228.285156 L 116.6875 265.804688 C 114.09375 267.53125 112.269531 270.144531 111.53125 273.167969 L 95.074219 341.101562 L 91.839844 342.1875 C 78.246094 346.746094 76.371094 352.136719 76.371094 357.292969 L 100.496094 357.292969 C 106.207031 357.292969 111.140625 353.410156 112.496094 347.855469 L 128.96875 279.878906 L 182.984375 243.871094 C 189.679688 239.402344 193.679688 231.933594 193.679688 223.882812 C 193.679688 216.421875 190.296875 209.507812 184.402344 204.921875 L 165.0625 189.878906 L 172.644531 180.136719 L 191.984375 195.179688 C 200.910156 202.121094 206.027344 212.589844 206.027344 223.890625 C 206.027344 236.074219 199.972656 247.382812 189.832031 254.148438 L 139.839844 287.480469 L 124.496094 350.769531 C 121.796875 361.890625 111.9375 369.648438 100.5 369.648438 Z M 100.496094 369.636719 " fill-opacity="1" fill-rule="nonzero"/></g><path fill="#11355c" d="M 230.722656 209.113281 C 229.085938 209.113281 227.410156 208.863281 225.617188 208.335938 L 155.507812 187.246094 L 159.066406 175.417969 L 229.117188 196.496094 C 229.734375 196.675781 230.253906 196.765625 230.722656 196.765625 C 234.132812 196.765625 236.898438 194 236.898438 190.589844 C 236.898438 187.84375 235.09375 185.480469 232.410156 184.707031 L 133.164062 154.191406 C 129.34375 153.027344 124.945312 153.484375 121.386719 155.421875 L 115.453125 144.597656 C 121.882812 141.078125 129.742188 140.257812 136.757812 142.375 L 235.914062 172.867188 C 243.710938 175.097656 249.238281 182.402344 249.238281 190.589844 C 249.238281 200.804688 240.929688 209.113281 230.714844 209.113281 Z M 230.722656 209.113281 " fill-opacity="1" fill-rule="nonzero"/><g clip-path="url(#80ca8dd34c)"><path fill="#11355c" d="M 260.75 369.636719 C 258.722656 369.636719 256.699219 369.097656 254.882812 368.082031 C 247.480469 363.933594 243.070312 356.480469 243.070312 348.152344 C 243.070312 346.027344 243.5 343.136719 244.042969 340.09375 L 213.949219 314.976562 C 211.851562 313.152344 210.199219 311.070312 208.953125 308.703125 L 176.1875 255.570312 L 186.707031 249.097656 L 219.671875 302.582031 C 220.410156 303.949219 221.109375 304.84375 221.964844 305.582031 L 257.5625 335.289062 L 256.855469 338.878906 C 256.417969 341.074219 255.421875 346.148438 255.421875 348.152344 C 255.421875 351.957031 257.476562 355.382812 260.925781 357.3125 L 272.230469 337.664062 C 273.355469 335.734375 273.945312 333.519531 273.945312 331.25 C 273.945312 327.894531 272.6875 324.945312 270.195312 322.480469 L 235.710938 293.144531 L 194.347656 223.472656 L 204.960938 217.167969 L 245.289062 285.078125 L 278.550781 313.394531 C 283.738281 318.511719 286.308594 324.582031 286.308594 331.257812 C 286.308594 335.699219 285.136719 340.0625 282.929688 343.863281 L 271.589844 363.425781 C 269.425781 367.238281 265.273438 369.640625 260.769531 369.640625 Z M 260.75 369.636719 " fill-opacity="1" fill-rule="nonzero"/></g><path fill="#11355c" d="M 97.984375 172.074219 C 87.460938 172.074219 77.964844 166.171875 73.207031 156.664062 L 67.027344 144.316406 C 65.039062 140.347656 64.023438 136.179688 64.023438 131.941406 C 64.023438 116.621094 76.488281 104.160156 91.808594 104.160156 C 102.332031 104.160156 111.828125 110.058594 116.585938 119.570312 L 122.761719 131.917969 C 124.753906 135.890625 125.765625 140.050781 125.765625 144.289062 C 125.765625 159.609375 113.304688 172.074219 97.984375 172.074219 Z M 91.808594 116.507812 C 83.292969 116.507812 76.371094 123.429688 76.371094 131.941406 C 76.371094 134.242188 76.941406 136.539062 78.066406 138.785156 L 84.242188 151.140625 C 86.886719 156.429688 92.152344 159.726562 97.976562 159.726562 C 106.492188 159.726562 113.414062 152.804688 113.414062 144.289062 C 113.414062 141.992188 112.839844 139.691406 111.71875 137.445312 C 111.71875 137.445312 105.542969 125.089844 105.542969 125.089844 C 102.894531 119.800781 97.628906 116.507812 91.808594 116.507812 Z M 91.808594 116.507812 " fill-opacity="1" fill-rule="nonzero"/><g clip-path="url(#f0d6975783)"><path fill="#11355c" d="M 265.246094 258.511719 C 260.96875 258.511719 256.984375 257.160156 253.695312 254.605469 L 185.652344 205.957031 L 192.839844 195.914062 L 261.078125 244.710938 C 262.660156 245.9375 264.195312 246.164062 265.246094 246.164062 C 267.058594 246.164062 268.765625 245.296875 269.945312 243.78125 L 346.765625 146.902344 C 347.804688 145.566406 348.023438 143.9375 348.023438 142.804688 C 348.023438 141.128906 347.136719 139.433594 345.648438 138.28125 L 187.886719 19.078125 C 186.445312 17.945312 184.804688 17.730469 183.683594 17.730469 C 181.957031 17.730469 180.351562 18.570312 179.15625 20.105469 L 103.609375 115.339844 L 93.9375 107.671875 L 169.449219 12.476562 C 172.945312 7.980469 178.148438 5.382812 183.683594 5.382812 C 188.082031 5.382812 192.132812 6.730469 195.40625 9.285156 L 353.160156 128.488281 C 357.699219 132.019531 360.371094 137.355469 360.371094 142.8125 C 360.371094 147.210938 359.023438 151.261719 356.46875 154.539062 L 279.640625 251.414062 C 276.136719 255.910156 270.878906 258.511719 265.238281 258.511719 Z M 265.246094 258.511719 " fill-opacity="1" fill-rule="nonzero"/></g><path fill="#11355c" d="M 159.574219 35.085938 L 166.996094 25.21875 L 344.8125 159.019531 L 337.390625 168.882812 Z M 159.574219 35.085938 " fill-opacity="1" fill-rule="nonzero"/><path fill="#11355c" d="M 145.804688 52.449219 L 153.230469 42.582031 L 331.050781 176.386719 L 323.625 186.253906 Z M 145.804688 52.449219 " fill-opacity="1" fill-rule="nonzero"/><path fill="#11355c" d="M 136.390625 99.578125 L 143.875 89.757812 L 176.949219 114.972656 L 169.464844 124.789062 Z M 136.390625 99.578125 " fill-opacity="1" fill-rule="nonzero"/><g clip-path="url(#31e4e69579)"><path fill="#11355c" d="M 14.636719 202.945312 L 45.507812 202.945312 L 45.507812 215.292969 L 14.636719 215.292969 Z M 14.636719 202.945312 " fill-opacity="1" fill-rule="nonzero"/></g><path fill="#11355c" d="M 25.132812 299.644531 L 52.65625 281.296875 L 59.507812 291.570312 L 31.980469 309.917969 Z M 25.132812 299.644531 " fill-opacity="1" fill-rule="nonzero"/></svg>