<svg xmlns="http://www.w3.org/2000/svg" xmlns:xlink="http://www.w3.org/1999/xlink" width="500" zoomAndPan="magnify" viewBox="0 0 375 374.999991" height="500" preserveAspectRatio="xMidYMid meet" version="1.0"><defs><clipPath id="eaa734675d"><path d="M 7 8 L 368 8 L 368 368.1875 L 7 368.1875 Z M 7 8 " clip-rule="nonzero"/></clipPath></defs><g clip-path="url(#eaa734675d)"><path fill="#11355c" d="M 355.40625 128.320312 L 311.675781 95.507812 L 311.675781 37.511719 C 311.675781 27.835938 303.800781 20.023438 294.183594 20.023438 L 265.589844 20.023438 C 255.914062 20.023438 248.097656 27.898438 248.097656 37.511719 L 248.097656 47.871094 L 202.570312 13.695312 C 193.515625 6.933594 180.921875 6.933594 171.929688 13.695312 L 18.972656 128.320312 C 6.132812 137.996094 3.402344 156.046875 12.832031 168.578125 C 18.351562 175.894531 26.785156 179.742188 35.46875 179.742188 C 38.386719 179.742188 41.300781 179.246094 44.152344 178.375 L 44.402344 240.777344 L 43.039062 240.777344 C 33.671875 240.777344 26.105469 248.40625 26.105469 257.710938 L 26.105469 266.953125 C 26.105469 276.316406 33.734375 283.882812 43.039062 283.882812 L 44.589844 283.882812 L 44.773438 338.035156 C 44.773438 354.59375 58.234375 368.054688 74.796875 368.054688 L 300.882812 368.242188 C 308.886719 368.242188 316.453125 365.140625 322.097656 359.433594 C 327.804688 353.726562 330.90625 346.222656 330.90625 338.15625 L 330.71875 283.824219 L 331.402344 283.824219 C 340.765625 283.824219 348.335938 276.191406 348.335938 266.890625 L 348.335938 257.648438 C 348.335938 248.28125 340.707031 240.714844 331.402344 240.714844 L 330.53125 240.714844 L 330.285156 178.253906 C 341.574219 181.726562 354.164062 178.253906 361.546875 168.515625 C 370.972656 155.984375 368.246094 137.933594 355.34375 128.257812 Z M 260.441406 37.511719 C 260.441406 34.722656 262.738281 32.425781 265.527344 32.425781 L 294.121094 32.425781 C 296.914062 32.425781 299.210938 34.722656 299.210938 37.511719 L 299.210938 86.265625 L 260.441406 57.175781 Z M 38.449219 266.953125 L 38.449219 257.710938 C 38.449219 255.226562 40.496094 253.179688 42.976562 253.179688 L 107.792969 253.179688 L 107.792969 271.480469 L 42.976562 271.480469 C 40.496094 271.480469 38.449219 269.433594 38.449219 266.953125 Z M 318.5 338.28125 C 318.5 342.996094 316.636719 347.398438 313.351562 350.75 C 310 354.097656 305.597656 355.898438 300.882812 355.898438 L 74.796875 355.710938 C 65.058594 355.710938 57.179688 347.773438 57.179688 338.035156 L 56.992188 283.882812 L 107.855469 283.882812 L 107.855469 299.886719 C 107.855469 317.378906 122.121094 331.644531 139.613281 331.644531 L 234.886719 331.644531 C 252.378906 331.644531 266.644531 317.378906 266.644531 299.886719 L 266.644531 283.882812 L 318.375 283.882812 L 318.5625 338.21875 Z M 233.027344 204.242188 L 218.636719 204.242188 L 218.636719 184.207031 C 218.636719 166.902344 204.554688 152.757812 187.1875 152.757812 C 169.820312 152.757812 155.742188 166.839844 155.742188 184.207031 L 155.742188 204.242188 L 141.351562 204.242188 L 141.351562 184.082031 C 141.351562 158.839844 161.882812 138.246094 187.1875 138.246094 C 212.496094 138.246094 233.027344 158.777344 233.027344 184.082031 Z M 206.230469 204.242188 L 168.207031 204.242188 L 168.207031 184.207031 C 168.207031 173.726562 176.769531 165.164062 187.25 165.164062 C 197.734375 165.164062 206.292969 173.726562 206.292969 184.207031 L 206.292969 204.242188 Z M 139.550781 216.648438 L 234.824219 216.648438 C 245.492188 216.648438 254.175781 225.332031 254.175781 236 L 254.175781 299.949219 C 254.175781 310.617188 245.492188 319.300781 234.824219 319.300781 L 139.550781 319.300781 C 128.882812 319.300781 120.199219 310.617188 120.199219 299.949219 L 120.199219 236 C 120.199219 225.332031 128.882812 216.648438 139.550781 216.648438 Z M 335.929688 257.710938 L 335.929688 266.953125 C 335.929688 269.433594 333.882812 271.480469 331.402344 271.480469 L 266.582031 271.480469 L 266.582031 253.179688 L 331.402344 253.179688 C 333.882812 253.179688 335.929688 255.226562 335.929688 257.710938 Z M 266.582031 240.777344 L 266.582031 236 C 266.582031 222.230469 257.714844 210.570312 245.433594 206.164062 L 245.433594 184.019531 C 245.433594 151.890625 219.316406 125.777344 187.1875 125.777344 C 155.058594 125.777344 128.945312 151.890625 128.945312 184.019531 L 128.945312 206.164062 C 116.664062 210.570312 107.792969 222.167969 107.792969 236 L 107.792969 240.777344 L 56.746094 240.777344 L 56.496094 171.242188 L 179.3125 79.195312 C 183.964844 75.722656 190.414062 75.722656 195.066406 79.195312 L 317.941406 171.242188 L 318.1875 240.714844 L 266.644531 240.714844 Z M 351.621094 161.132812 C 346.289062 168.203125 335.992188 169.382812 328.609375 163.863281 L 202.507812 69.332031 C 193.515625 62.574219 180.921875 62.574219 171.867188 69.332031 L 45.765625 163.863281 C 38.386719 169.445312 28.089844 168.203125 22.753906 161.132812 C 17.421875 154.0625 19.09375 143.828125 26.476562 138.246094 L 179.3125 23.558594 C 181.605469 21.820312 184.398438 20.953125 187.1875 20.953125 C 189.980469 20.953125 192.769531 21.820312 195.066406 23.558594 L 347.898438 138.246094 C 355.28125 143.828125 356.957031 154.0625 351.621094 161.132812 Z M 165.105469 298.273438 C 164.734375 300.136719 165.105469 301.996094 166.347656 303.484375 C 167.527344 304.972656 169.324219 305.78125 171.183594 305.78125 L 203.253906 305.78125 C 205.113281 305.78125 206.914062 304.910156 208.089844 303.484375 C 209.269531 301.996094 209.703125 300.136719 209.332031 298.273438 L 204.492188 275.945312 C 210.449219 270.921875 214.046875 263.414062 214.046875 255.539062 C 214.046875 240.777344 202.011719 228.742188 187.3125 228.742188 C 172.613281 228.742188 160.515625 240.777344 160.515625 255.539062 C 160.515625 263.414062 164.113281 270.859375 170.070312 275.945312 L 165.230469 298.273438 Z M 187.1875 241.210938 C 195.128906 241.210938 201.515625 247.660156 201.515625 255.601562 C 201.515625 260.6875 198.847656 265.339844 194.320312 267.945312 C 192.027344 269.308594 190.785156 271.976562 191.40625 274.644531 L 195.5 293.4375 L 178.816406 293.4375 L 182.910156 274.644531 C 183.464844 272.039062 182.289062 269.308594 179.992188 267.945312 C 175.464844 265.339844 172.796875 260.6875 172.796875 255.601562 C 172.796875 247.660156 179.25 241.210938 187.1875 241.210938 Z M 187.1875 241.210938 " fill-opacity="1" fill-rule="nonzero"/></g></svg>