<svg xmlns="http://www.w3.org/2000/svg" xmlns:xlink="http://www.w3.org/1999/xlink" width="500" zoomAndPan="magnify" viewBox="0 0 375 374.999991" height="500" preserveAspectRatio="xMidYMid meet" version="1.0"><defs><clipPath id="c058354721"><path d="M 27.882812 6.171875 L 347.382812 6.171875 L 347.382812 361.671875 L 27.882812 361.671875 Z M 27.882812 6.171875 " clip-rule="nonzero"/></clipPath></defs><path fill="#ffffff" d="M 35.554688 56.476562 L 35.554688 37.726562 L 339.4375 37.726562 L 339.4375 56.476562 Z M 222.351562 105.53125 C 222.429688 105.46875 222.511719 105.410156 222.59375 105.355469 C 223.765625 104.496094 225.179688 104.046875 226.636719 104.046875 C 228.121094 104.046875 229.574219 104.523438 230.777344 105.394531 L 308.460938 161.835938 C 311.589844 164.109375 312.292969 168.5 310.023438 171.628906 C 308.929688 173.140625 307.292969 174.144531 305.449219 174.441406 C 303.605469 174.738281 301.742188 174.289062 300.230469 173.191406 L 227.882812 120.632812 C 227.152344 120.105469 226.160156 120.105469 225.429688 120.632812 L 153.089844 173.191406 C 151.578125 174.289062 149.707031 174.738281 147.863281 174.441406 C 146.019531 174.144531 144.386719 173.144531 143.289062 171.632812 C 141.019531 168.503906 141.722656 164.109375 144.851562 161.835938 Z M 226.65625 209.472656 C 227.210938 209.472656 227.746094 209.253906 228.136719 208.863281 L 240.917969 196.074219 C 241.808594 195.183594 242.988281 194.710938 244.242188 194.710938 C 245.488281 194.710938 246.671875 195.1875 247.554688 196.070312 C 248.441406 196.957031 248.925781 198.144531 248.925781 199.390625 C 248.925781 200.621094 248.453125 201.785156 247.597656 202.671875 L 247.554688 202.714844 L 234.769531 215.496094 C 233.957031 216.308594 233.957031 217.636719 234.769531 218.449219 L 247.554688 231.234375 C 248.4375 232.117188 248.925781 233.304688 248.925781 234.554688 C 248.925781 235.800781 248.4375 236.984375 247.554688 237.867188 C 246.671875 238.75 245.488281 239.234375 244.242188 239.234375 C 242.992188 239.234375 241.808594 238.753906 240.921875 237.867188 L 228.136719 225.085938 C 227.746094 224.691406 227.210938 224.472656 226.660156 224.472656 C 226.101562 224.472656 225.578125 224.691406 225.183594 225.085938 L 212.390625 237.867188 C 211.507812 238.75 210.324219 239.234375 209.078125 239.234375 C 207.832031 239.234375 206.636719 238.75 205.753906 237.859375 C 204.875 236.972656 204.398438 235.796875 204.398438 234.554688 C 204.398438 233.304688 204.875 232.121094 205.761719 231.234375 L 218.550781 218.449219 C 219.367188 217.632812 219.363281 216.3125 218.550781 215.496094 L 205.761719 202.703125 C 204.875 201.816406 204.398438 200.640625 204.398438 199.394531 C 204.398438 198.148438 204.875 196.964844 205.753906 196.078125 C 206.640625 195.1875 207.828125 194.710938 209.078125 194.710938 C 210.328125 194.710938 211.507812 195.1875 212.394531 196.070312 L 225.1875 208.863281 C 225.574219 209.257812 226.101562 209.472656 226.65625 209.472656 Z M 226.65625 209.472656 " fill-opacity="1" fill-rule="evenodd"/><g clip-path="url(#c058354721)"><path fill="#11355c" d="M 146.898438 164.652344 L 224.503906 108.277344 C 224.53125 108.246094 224.5625 108.226562 224.59375 108.207031 C 225.1875 107.753906 225.90625 107.53125 226.636719 107.53125 C 227.367188 107.53125 228.105469 107.761719 228.726562 108.214844 L 306.414062 164.652344 C 307.988281 165.796875 308.347656 168.011719 307.203125 169.585938 C 306.652344 170.351562 305.832031 170.855469 304.898438 171.003906 C 303.964844 171.152344 303.035156 170.921875 302.277344 170.375 L 229.929688 117.816406 C 227.980469 116.398438 225.332031 116.398438 223.382812 117.816406 L 151.042969 170.375 C 150.285156 170.921875 149.347656 171.152344 148.414062 171.003906 C 147.484375 170.855469 146.667969 170.351562 146.109375 169.585938 C 144.96875 168.011719 145.324219 165.796875 146.898438 164.652344 Z M 282.9375 250.214844 L 282.9375 170.101562 L 226.65625 129.210938 L 170.382812 170.101562 L 170.382812 250.214844 C 170.382812 251.234375 171.242188 252.089844 172.253906 252.089844 L 186.328125 252.089844 C 178.125 242.683594 173.144531 230.402344 173.144531 216.96875 C 173.144531 187.464844 197.152344 163.453125 226.660156 163.453125 C 256.167969 163.453125 280.175781 187.464844 280.175781 216.96875 C 280.175781 230.402344 275.1875 242.683594 266.992188 252.089844 L 281.066406 252.089844 C 282.078125 252.089844 282.9375 251.234375 282.9375 250.214844 Z M 184.289062 216.96875 C 184.289062 193.609375 203.292969 174.601562 226.65625 174.601562 C 250.023438 174.601562 269.03125 193.609375 269.03125 216.96875 C 269.03125 240.335938 250.023438 259.34375 226.65625 259.34375 C 203.292969 259.34375 184.289062 240.335938 184.289062 216.96875 Z M 146.667969 182.011719 C 147.449219 182.132812 148.226562 182.199219 149 182.199219 C 152.078125 182.199219 155.0625 181.234375 157.589844 179.394531 L 159.238281 178.207031 L 159.238281 250.214844 C 159.238281 257.398438 165.074219 263.238281 172.253906 263.238281 L 199.804688 263.238281 C 207.707031 267.84375 216.875 270.492188 226.65625 270.492188 C 236.4375 270.492188 245.609375 267.84375 253.507812 263.238281 L 281.0625 263.238281 C 288.246094 263.238281 294.082031 257.398438 294.082031 250.214844 L 294.082031 178.203125 L 295.722656 179.394531 C 298.898438 181.695312 302.769531 182.628906 306.652344 182.007812 C 310.523438 181.394531 313.933594 179.304688 316.234375 176.128906 C 320.976562 169.578125 319.511719 160.386719 312.96875 155.636719 L 235.28125 99.191406 C 230.109375 95.433594 222.976562 95.476562 217.90625 99.28125 L 140.347656 155.636719 C 133.804688 160.386719 132.34375 169.578125 137.082031 176.128906 C 139.390625 179.304688 142.785156 181.394531 146.667969 182.011719 Z M 261.546875 75.644531 L 191.765625 75.644531 L 191.765625 64.140625 L 261.546875 64.140625 Z M 335.953125 94.78125 C 335.953125 90.371094 332.375 86.789062 327.964844 86.789062 L 125.347656 86.789062 C 120.945312 86.789062 117.355469 90.371094 117.355469 94.78125 L 117.355469 264.847656 C 117.355469 269.25 120.945312 272.835938 125.347656 272.835938 L 327.964844 272.835938 C 332.375 272.835938 335.953125 269.25 335.953125 264.847656 Z M 82.25 350.445312 L 70.476562 350.445312 L 70.476562 64.140625 L 82.25 64.140625 Z M 39.039062 41.210938 L 335.957031 41.210938 L 335.957031 52.992188 L 39.039062 52.992188 Z M 70.476562 17.417969 L 82.25 17.417969 L 82.25 30.0625 L 70.476562 30.0625 Z M 339.953125 64.140625 C 343.898438 64.140625 347.105469 60.929688 347.105469 56.984375 L 347.105469 37.21875 C 347.105469 33.273438 343.898438 30.0625 339.953125 30.0625 L 93.398438 30.0625 L 93.398438 13.425781 C 93.398438 9.484375 90.195312 6.273438 86.25 6.273438 L 66.484375 6.273438 C 62.539062 6.273438 59.328125 9.484375 59.328125 13.425781 L 59.328125 30.0625 L 35.042969 30.0625 C 31.101562 30.0625 27.894531 33.273438 27.894531 37.21875 L 27.894531 56.984375 C 27.894531 60.929688 31.101562 64.140625 35.042969 64.140625 L 59.328125 64.140625 L 59.328125 354.445312 C 59.328125 358.386719 62.539062 361.589844 66.484375 361.589844 L 86.25 361.589844 C 90.195312 361.589844 93.398438 358.386719 93.398438 354.445312 L 93.398438 64.140625 L 180.617188 64.140625 L 180.617188 75.644531 L 125.347656 75.644531 C 114.800781 75.644531 106.210938 84.226562 106.210938 94.78125 L 106.210938 264.847656 C 106.210938 275.394531 114.800781 283.984375 125.347656 283.984375 L 327.964844 283.984375 C 338.519531 283.984375 347.105469 275.394531 347.105469 264.847656 L 347.105469 94.78125 C 347.105469 84.226562 338.519531 75.644531 327.964844 75.644531 L 272.695312 75.644531 L 272.695312 64.140625 Z M 245.09375 200.25 L 232.304688 213.03125 C 230.132812 215.207031 230.132812 218.738281 232.304688 220.914062 L 245.09375 233.699219 C 245.378906 233.984375 245.441406 234.324219 245.441406 234.550781 C 245.441406 234.78125 245.378906 235.117188 245.09375 235.402344 C 244.804688 235.691406 244.46875 235.753906 244.242188 235.753906 C 244.003906 235.753906 243.667969 235.691406 243.382812 235.402344 L 230.601562 222.621094 C 229.554688 221.574219 228.132812 220.988281 226.65625 220.988281 C 225.179688 220.988281 223.765625 221.574219 222.722656 222.621094 L 209.929688 235.402344 C 209.644531 235.691406 209.308594 235.753906 209.078125 235.753906 C 208.847656 235.753906 208.507812 235.691406 208.222656 235.402344 C 207.9375 235.117188 207.882812 234.785156 207.882812 234.550781 C 207.882812 234.324219 207.9375 233.984375 208.222656 233.699219 L 221.011719 220.914062 C 223.1875 218.738281 223.1875 215.207031 221.011719 213.03125 L 208.222656 200.242188 C 207.9375 199.953125 207.882812 199.621094 207.882812 199.394531 C 207.882812 199.164062 207.9375 198.820312 208.222656 198.535156 C 208.507812 198.25 208.847656 198.195312 209.078125 198.195312 C 209.308594 198.195312 209.644531 198.25 209.929688 198.535156 L 222.722656 211.328125 C 223.765625 212.371094 225.179688 212.957031 226.65625 212.957031 C 228.132812 212.957031 229.554688 212.371094 230.601562 211.328125 L 243.382812 198.535156 C 243.671875 198.25 244.003906 198.195312 244.242188 198.195312 C 244.472656 198.195312 244.804688 198.25 245.09375 198.535156 C 245.378906 198.820312 245.441406 199.164062 245.441406 199.394531 C 245.441406 199.621094 245.378906 199.953125 245.09375 200.25 Z M 256.585938 199.394531 C 256.585938 202.695312 255.304688 205.800781 252.972656 208.128906 L 244.128906 216.96875 L 252.972656 225.816406 C 255.304688 228.144531 256.585938 231.242188 256.585938 234.550781 C 256.585938 237.855469 255.304688 240.964844 252.972656 243.289062 C 250.644531 245.621094 247.542969 246.898438 244.242188 246.898438 C 240.933594 246.898438 237.832031 245.621094 235.503906 243.289062 L 226.65625 234.445312 L 217.816406 243.289062 C 215.488281 245.621094 212.378906 246.898438 209.078125 246.898438 C 205.769531 246.898438 202.671875 245.621094 200.34375 243.289062 C 198.015625 240.964844 196.734375 237.855469 196.734375 234.550781 C 196.734375 231.242188 198.015625 228.144531 200.34375 225.816406 L 209.183594 216.96875 L 200.34375 208.128906 C 198.015625 205.800781 196.734375 202.695312 196.734375 199.394531 C 196.734375 196.089844 198.015625 192.980469 200.34375 190.65625 C 202.671875 188.328125 205.769531 187.046875 209.078125 187.046875 C 212.378906 187.046875 215.488281 188.328125 217.816406 190.65625 L 226.65625 199.503906 L 235.503906 190.65625 C 237.832031 188.328125 240.933594 187.046875 244.242188 187.046875 C 247.542969 187.046875 250.644531 188.328125 252.972656 190.65625 C 255.304688 192.980469 256.585938 196.089844 256.585938 199.394531 Z M 256.585938 199.394531 " fill-opacity="1" fill-rule="evenodd"/></g></svg>