<svg xmlns="http://www.w3.org/2000/svg" xmlns:xlink="http://www.w3.org/1999/xlink" width="500" zoomAndPan="magnify" viewBox="0 0 375 374.999991" height="500" preserveAspectRatio="xMidYMid meet" version="1.0"><defs><clipPath id="276575e2ca"><path d="M 6.71875 28.414062 L 368.21875 28.414062 L 368.21875 346.414062 L 6.71875 346.414062 Z M 6.71875 28.414062 " clip-rule="nonzero"/></clipPath></defs><g clip-path="url(#276575e2ca)"><path fill="#11355c" d="M 349.578125 161.3125 L 349.578125 111.363281 L 276.5625 28.535156 L 100.226562 28.535156 L 100.226562 290.351562 L 12.953125 290.351562 C 9.523438 290.351562 6.71875 293.15625 6.71875 296.585938 C 6.71875 324.09375 29.082031 346.457031 56.589844 346.457031 L 293.472656 346.457031 L 293.472656 346.066406 C 295.5 346.300781 297.601562 346.457031 299.707031 346.457031 C 327.210938 346.457031 349.578125 324.09375 349.578125 296.585938 L 349.578125 244.84375 C 361.03125 234.558594 368.277344 219.675781 368.277344 203.078125 C 368.277344 186.480469 361.03125 171.597656 349.578125 161.3125 Z M 279.992188 52.066406 C 285.757812 58.765625 293.707031 68.039062 303.679688 79.652344 C 313.265625 90.714844 322.925781 101.859375 329.628906 109.574219 L 294.019531 109.574219 C 286.304688 109.574219 279.992188 103.261719 279.992188 95.546875 Z M 56.589844 333.988281 C 38.121094 333.988281 22.691406 320.507812 19.730469 302.820312 L 250.226562 302.820312 C 251.785156 315.210938 257.863281 326.117188 266.746094 333.988281 Z M 337.109375 296.585938 C 337.109375 317.234375 320.355469 333.988281 299.707031 333.988281 C 279.058594 333.988281 262.304688 317.234375 262.304688 296.585938 C 262.304688 293.15625 259.5 290.351562 256.070312 290.351562 L 112.691406 290.351562 L 112.691406 41 L 267.523438 41 L 267.523438 95.546875 C 267.523438 110.195312 279.445312 122.039062 294.019531 122.039062 L 337.109375 122.039062 L 337.109375 152.820312 C 329.628906 149.078125 321.132812 146.976562 312.171875 146.976562 C 281.238281 146.976562 256.070312 172.144531 256.070312 203.078125 C 256.070312 234.015625 281.238281 259.183594 312.171875 259.183594 C 321.132812 259.183594 329.628906 257.078125 337.109375 253.339844 Z M 312.171875 246.714844 C 288.09375 246.714844 268.539062 227.15625 268.539062 203.078125 C 268.539062 179 288.09375 159.441406 312.171875 159.441406 C 336.25 159.441406 355.808594 179 355.808594 203.078125 C 355.808594 227.15625 336.25 246.714844 312.171875 246.714844 Z M 312.171875 246.714844 " fill-opacity="1" fill-rule="nonzero"/></g><path fill="#11355c" d="M 137.628906 103.339844 L 256.070312 103.339844 L 256.070312 115.804688 L 137.628906 115.804688 Z M 137.628906 103.339844 " fill-opacity="1" fill-rule="nonzero"/><path fill="#11355c" d="M 137.628906 146.976562 L 256.070312 146.976562 L 256.070312 159.441406 L 137.628906 159.441406 Z M 137.628906 146.976562 " fill-opacity="1" fill-rule="nonzero"/><path fill="#11355c" d="M 137.628906 190.613281 L 237.367188 190.613281 L 237.367188 203.078125 L 137.628906 203.078125 Z M 137.628906 190.613281 " fill-opacity="1" fill-rule="nonzero"/><path fill="#11355c" d="M 137.628906 234.246094 L 256.070312 234.246094 L 256.070312 246.714844 L 137.628906 246.714844 Z M 137.628906 234.246094 " fill-opacity="1" fill-rule="nonzero"/><path fill="#11355c" d="M 319.1875 175.183594 L 319.1875 170.117188 C 319.1875 167.703125 317.238281 165.753906 314.824219 165.753906 C 312.40625 165.753906 310.460938 167.703125 310.460938 170.117188 L 310.460938 175.183594 C 304.148438 177.132812 299.785156 182.898438 299.785156 189.597656 C 299.785156 195.988281 303.367188 201.753906 309.058594 204.636719 L 315.132812 207.675781 C 318.796875 209.546875 321.132812 213.207031 321.132812 217.339844 C 321.132812 219.753906 319.808594 221.859375 317.707031 222.949219 C 315.992188 223.804688 313.886719 223.804688 312.09375 222.949219 C 309.992188 221.859375 308.667969 219.753906 308.667969 217.339844 C 308.667969 214.921875 306.71875 212.976562 304.304688 212.976562 C 301.886719 212.976562 299.941406 214.921875 299.941406 217.339844 L 299.941406 218.585938 C 299.941406 219.054688 300.019531 219.519531 300.171875 219.988281 C 300.953125 224.664062 303.914062 228.714844 308.277344 230.820312 C 309.058594 231.207031 309.835938 231.519531 310.613281 231.753906 L 310.613281 236.117188 C 310.613281 238.535156 312.5625 240.480469 314.980469 240.480469 C 317.394531 240.480469 319.34375 238.535156 319.34375 236.117188 L 319.34375 231.753906 C 320.121094 231.519531 320.902344 231.207031 321.679688 230.820312 C 326.824219 228.246094 330.019531 223.105469 330.019531 217.339844 C 330.019531 209.859375 325.886719 203.15625 319.1875 199.804688 L 313.109375 196.765625 C 310.382812 195.363281 308.667969 192.636719 308.667969 189.597656 C 308.667969 186.714844 310.613281 184.222656 313.421875 183.519531 C 314.433594 183.285156 315.445312 183.285156 316.460938 183.519531 C 319.265625 184.222656 321.210938 186.714844 321.210938 189.597656 L 321.210938 192.171875 C 321.210938 194.585938 323.160156 196.535156 325.578125 196.535156 C 327.992188 196.535156 329.941406 194.585938 329.941406 192.171875 L 329.941406 189.597656 C 329.863281 182.898438 325.5 177.054688 319.1875 175.183594 Z M 319.1875 175.183594 " fill-opacity="1" fill-rule="nonzero"/></svg>