<svg xmlns="http://www.w3.org/2000/svg" xmlns:xlink="http://www.w3.org/1999/xlink" width="500" zoomAndPan="magnify" viewBox="0 0 375 374.999991" height="500" preserveAspectRatio="xMidYMid meet" version="1.0"><defs><clipPath id="956aa238c4"><path d="M 45.394531 5.316406 L 329.644531 5.316406 L 329.644531 358 L 45.394531 358 Z M 45.394531 5.316406 " clip-rule="nonzero"/></clipPath></defs><g clip-path="url(#956aa238c4)"><path fill="#11355c" d="M 226.976562 265.609375 C 261.472656 211.296875 299.171875 151.011719 299.171875 118.167969 C 299.171875 55.925781 248.542969 5.285156 186.304688 5.285156 C 124.0625 5.285156 73.425781 55.925781 73.425781 118.167969 C 73.425781 149.117188 112.617188 212.6875 145.976562 265.792969 C 97.117188 270.40625 45.5625 284.335938 45.5625 310.632812 C 45.5625 324.949219 61.0625 337.03125 90.382812 345.570312 C 173.070312 369.648438 329.433594 356.105469 329.433594 310.632812 C 329.433594 283.902344 276.808594 270.027344 226.976562 265.609375 Z M 186.308594 302.003906 C 156.742188 252.371094 88.601562 153.410156 88.601562 118.167969 C 88.601562 64.292969 132.433594 20.464844 186.304688 20.464844 C 240.171875 20.464844 283.996094 64.292969 283.996094 118.167969 C 283.996094 155.71875 216.191406 251.9375 186.308594 302.003906 Z M 186.308594 302.003906 " fill-opacity="1" fill-rule="nonzero"/></g><path fill="#11355c" d="M 186.304688 59.546875 C 156.175781 59.546875 131.664062 84.0625 131.664062 114.199219 C 131.664062 144.320312 156.175781 168.824219 186.304688 168.824219 C 216.429688 168.824219 240.933594 144.320312 240.933594 114.199219 C 240.933594 84.0625 216.429688 59.546875 186.304688 59.546875 Z M 186.304688 153.648438 C 164.546875 153.648438 146.84375 135.949219 146.84375 114.199219 C 146.84375 92.433594 164.546875 74.726562 186.304688 74.726562 C 208.058594 74.726562 225.753906 92.433594 225.753906 114.199219 C 225.753906 135.949219 208.058594 153.648438 186.304688 153.648438 Z M 186.304688 153.648438 " fill-opacity="1" fill-rule="nonzero"/></svg>