<svg xmlns="http://www.w3.org/2000/svg" xmlns:xlink="http://www.w3.org/1999/xlink" width="500" zoomAndPan="magnify" viewBox="0 0 375 374.999991" height="500" preserveAspectRatio="xMidYMid meet" version="1.0"><defs><clipPath id="37c3745117"><path d="M 6.765625 6.765625 L 310 6.765625 L 310 318 L 6.765625 318 Z M 6.765625 6.765625 " clip-rule="nonzero"/></clipPath><clipPath id="8a797cbb29"><path d="M 187 125 L 368.265625 125 L 368.265625 368.265625 L 187 368.265625 Z M 187 125 " clip-rule="nonzero"/></clipPath></defs><g clip-path="url(#37c3745117)"><path fill="#11355c" d="M 167.730469 104.476562 C 188.910156 104.191406 209.808594 101.933594 229.292969 98.261719 C 230.707031 103.347656 231.835938 108.710938 232.683594 114.078125 L 244.261719 114.078125 C 243.132812 107.863281 241.71875 101.652344 240.308594 95.722656 C 255.273438 92.332031 269.109375 87.8125 281.820312 82.449219 C 288.3125 92.332031 293.679688 102.78125 297.632812 114.078125 L 309.492188 114.078125 C 289.445312 51.949219 230.988281 6.765625 162.082031 6.765625 C 76.519531 6.765625 6.765625 76.519531 6.765625 162.082031 C 6.765625 247.648438 76.519531 317.402344 162.082031 317.402344 C 166.882812 317.402344 171.683594 317.117188 176.203125 316.835938 L 176.203125 303.5625 C 173.378906 304.691406 170.554688 305.257812 167.730469 305.824219 L 167.730469 230.988281 C 170.554688 230.988281 173.378906 230.988281 176.203125 231.269531 L 176.203125 219.976562 C 173.378906 219.976562 170.554688 219.691406 167.730469 219.691406 L 167.730469 167.730469 L 176.203125 167.730469 L 176.203125 156.4375 L 167.730469 156.4375 Z M 275.042969 72.847656 C 263.464844 77.648438 250.753906 81.601562 237.199219 84.707031 C 229.011719 58.726562 216.867188 37.265625 201.617188 23.710938 C 230.988281 32.183594 256.6875 49.691406 275.042969 72.847656 Z M 167.730469 18.34375 C 192.300781 22.015625 213.761719 48.5625 226.1875 87.25 C 207.832031 90.636719 188.0625 92.613281 167.730469 93.179688 Z M 122.265625 23.710938 C 107.300781 37.265625 94.875 58.726562 86.683594 84.988281 C 73.128906 81.882812 60.421875 77.929688 48.84375 73.128906 C 67.480469 49.691406 93.179688 32.183594 122.265625 23.710938 Z M 42.347656 82.449219 C 55.054688 87.8125 68.894531 92.332031 83.859375 96.003906 C 79.058594 114.078125 76.234375 134.691406 75.953125 156.4375 L 18.34375 156.4375 C 19.191406 129.042969 27.945312 103.628906 42.347656 82.449219 Z M 18.34375 167.730469 L 75.953125 167.730469 C 76.234375 189.476562 79.058594 210.089844 83.859375 228.445312 C 68.894531 231.835938 54.773438 236.355469 42.347656 241.71875 C 27.945312 220.539062 19.191406 195.125 18.34375 167.730469 Z M 49.125 251.320312 C 60.703125 246.519531 73.410156 242.566406 86.96875 239.460938 C 95.15625 265.722656 107.582031 286.902344 122.546875 300.738281 C 93.179688 291.984375 67.480469 274.476562 49.125 251.320312 Z M 156.4375 305.539062 C 131.867188 301.867188 110.40625 275.324219 97.980469 236.917969 C 116.335938 233.53125 136.105469 231.554688 156.4375 230.988281 Z M 156.4375 219.691406 C 135.257812 219.976562 114.359375 222.234375 94.875 225.90625 C 90.355469 208.113281 87.53125 188.347656 87.25 167.730469 L 156.4375 167.730469 Z M 156.4375 156.4375 L 87.25 156.4375 C 87.53125 135.539062 90.355469 115.769531 94.875 98.261719 C 114.359375 101.933594 134.972656 104.191406 156.4375 104.476562 Z M 156.4375 93.179688 C 136.105469 92.898438 116.617188 90.921875 97.980469 87.25 C 110.40625 48.84375 131.867188 22.015625 156.4375 18.628906 Z M 156.4375 93.179688 " fill-opacity="1" fill-rule="nonzero"/></g><g clip-path="url(#8a797cbb29)"><path fill="#11355c" d="M 364.84375 156.4375 L 337.167969 128.761719 C 334.910156 126.503906 332.085938 125.371094 329.261719 125.371094 L 204.441406 125.371094 C 195.125 125.371094 187.5 132.996094 187.5 142.316406 L 187.5 351.289062 C 187.5 360.605469 195.125 368.230469 204.441406 368.230469 L 351.289062 368.230469 C 360.605469 368.230469 368.230469 360.605469 368.230469 351.289062 L 368.230469 164.34375 C 368.230469 161.519531 367.101562 158.695312 364.84375 156.4375 Z M 334.34375 141.75 L 351.851562 159.261719 L 334.34375 159.261719 Z M 356.9375 351.289062 C 356.9375 354.394531 354.394531 356.9375 351.289062 356.9375 L 204.441406 356.9375 C 201.335938 356.9375 198.796875 354.394531 198.796875 351.289062 L 198.796875 142.316406 C 198.796875 139.210938 201.335938 136.667969 204.441406 136.667969 L 323.046875 136.667969 L 323.046875 164.90625 C 323.046875 168.015625 325.589844 170.554688 328.695312 170.554688 L 356.9375 170.554688 Z M 356.9375 351.289062 " fill-opacity="1" fill-rule="nonzero"/></g><path fill="#11355c" d="M 334.34375 328.695312 L 221.386719 328.695312 C 218.28125 328.695312 215.738281 331.238281 215.738281 334.34375 C 215.738281 337.449219 218.28125 339.992188 221.386719 339.992188 L 334.34375 339.992188 C 337.449219 339.992188 339.992188 337.449219 339.992188 334.34375 C 339.992188 331.238281 337.449219 328.695312 334.34375 328.695312 Z M 334.34375 328.695312 " fill-opacity="1" fill-rule="nonzero"/><path fill="#11355c" d="M 334.34375 300.457031 L 221.386719 300.457031 C 218.28125 300.457031 215.738281 303 215.738281 306.105469 C 215.738281 309.210938 218.28125 311.753906 221.386719 311.753906 L 334.34375 311.753906 C 337.449219 311.753906 339.992188 309.210938 339.992188 306.105469 C 339.992188 303 337.449219 300.457031 334.34375 300.457031 Z M 334.34375 300.457031 " fill-opacity="1" fill-rule="nonzero"/><path fill="#11355c" d="M 334.34375 272.21875 L 221.386719 272.21875 C 218.28125 272.21875 215.738281 274.757812 215.738281 277.867188 C 215.738281 280.972656 218.28125 283.511719 221.386719 283.511719 L 334.34375 283.511719 C 337.449219 283.511719 339.992188 280.972656 339.992188 277.867188 C 339.992188 274.757812 337.449219 272.21875 334.34375 272.21875 Z M 334.34375 272.21875 " fill-opacity="1" fill-rule="nonzero"/><path fill="#11355c" d="M 334.34375 243.976562 L 221.386719 243.976562 C 218.28125 243.976562 215.738281 246.519531 215.738281 249.625 C 215.738281 252.734375 218.28125 255.273438 221.386719 255.273438 L 334.34375 255.273438 C 337.449219 255.273438 339.992188 252.734375 339.992188 249.625 C 339.992188 246.519531 337.449219 243.976562 334.34375 243.976562 Z M 334.34375 243.976562 " fill-opacity="1" fill-rule="nonzero"/><path fill="#11355c" d="M 334.34375 215.738281 L 221.386719 215.738281 C 218.28125 215.738281 215.738281 218.28125 215.738281 221.386719 C 215.738281 224.492188 218.28125 227.035156 221.386719 227.035156 L 334.34375 227.035156 C 337.449219 227.035156 339.992188 224.492188 339.992188 221.386719 C 339.992188 218.28125 337.449219 215.738281 334.34375 215.738281 Z M 334.34375 215.738281 " fill-opacity="1" fill-rule="nonzero"/><path fill="#11355c" d="M 215.738281 193.148438 C 215.738281 196.253906 218.28125 198.796875 221.386719 198.796875 L 334.34375 198.796875 C 337.449219 198.796875 339.992188 196.253906 339.992188 193.148438 C 339.992188 190.039062 337.449219 187.5 334.34375 187.5 L 221.386719 187.5 C 218.28125 187.5 215.738281 190.039062 215.738281 193.148438 Z M 215.738281 193.148438 " fill-opacity="1" fill-rule="nonzero"/></svg>