<svg xmlns="http://www.w3.org/2000/svg" xmlns:xlink="http://www.w3.org/1999/xlink" width="500" zoomAndPan="magnify" viewBox="0 0 375 374.999991" height="500" preserveAspectRatio="xMidYMid meet" version="1.0"><defs><clipPath id="a0b6493744"><path d="M 145 145 L 366.675781 145 L 366.675781 366.675781 L 145 366.675781 Z M 145 145 " clip-rule="nonzero"/></clipPath><clipPath id="2df8749c36"><path d="M 8.175781 8.175781 L 230 8.175781 L 230 230 L 8.175781 230 Z M 8.175781 8.175781 " clip-rule="nonzero"/></clipPath></defs><path fill="#11355c" d="M 130.167969 297.992188 L 107.222656 297.992188 C 90.578125 297.992188 77.039062 284.453125 77.039062 267.808594 L 77.039062 221.914062 C 77.039062 217.917969 80.277344 214.679688 84.277344 214.679688 C 88.273438 214.679688 91.511719 217.917969 91.511719 221.914062 L 91.511719 267.808594 C 91.511719 276.472656 98.558594 283.519531 107.222656 283.519531 L 130.167969 283.519531 C 134.164062 283.519531 137.40625 286.757812 137.40625 290.753906 C 137.40625 294.753906 134.164062 297.992188 130.167969 297.992188 " fill-opacity="1" fill-rule="nonzero"/><path fill="#11355c" d="M 290.789062 160.316406 C 286.792969 160.316406 283.554688 157.074219 283.554688 153.078125 L 283.554688 107.1875 C 283.554688 98.523438 276.507812 91.476562 267.847656 91.476562 L 244.898438 91.476562 C 240.902344 91.476562 237.660156 88.234375 237.660156 84.238281 C 237.660156 80.242188 240.902344 77 244.898438 77 L 267.847656 77 C 284.488281 77 298.027344 90.542969 298.027344 107.1875 L 298.027344 153.078125 C 298.027344 157.074219 294.789062 160.316406 290.789062 160.316406 " fill-opacity="1" fill-rule="nonzero"/><path fill="#11355c" d="M 139.339844 160.316406 C 136.097656 160.316406 133.148438 158.121094 132.324219 154.832031 L 118.695312 100.308594 L 105.0625 154.832031 C 104.09375 158.710938 100.167969 161.066406 96.289062 160.097656 C 92.410156 159.128906 90.054688 155.199219 91.023438 151.324219 L 107.394531 85.824219 C 108.695312 80.632812 113.339844 77 118.695312 77 C 124.046875 77 128.691406 80.628906 129.992188 85.820312 L 146.367188 151.324219 C 147.335938 155.199219 144.976562 159.128906 141.101562 160.097656 C 140.511719 160.246094 139.921875 160.316406 139.339844 160.316406 " fill-opacity="1" fill-rule="nonzero"/><path fill="#11355c" d="M 132.648438 133.519531 L 104.742188 133.519531 C 100.746094 133.519531 97.503906 130.28125 97.503906 126.285156 C 97.503906 122.289062 100.746094 119.046875 104.742188 119.046875 L 132.648438 119.046875 C 136.644531 119.046875 139.882812 122.289062 139.882812 126.285156 C 139.882812 130.28125 136.644531 133.519531 132.648438 133.519531 " fill-opacity="1" fill-rule="nonzero"/><path fill="#11355c" d="M 277.023438 297.992188 L 235.71875 297.992188 C 233.113281 297.992188 230.707031 296.589844 229.421875 294.320312 C 228.136719 292.050781 228.175781 289.269531 229.515625 287.03125 L 264.242188 229.152344 L 235.71875 229.152344 C 231.726562 229.152344 228.484375 225.914062 228.484375 221.914062 C 228.484375 217.917969 231.726562 214.679688 235.71875 214.679688 L 277.023438 214.679688 C 279.628906 214.679688 282.035156 216.082031 283.324219 218.351562 C 284.605469 220.617188 284.570312 223.402344 283.230469 225.636719 L 248.503906 283.519531 L 277.023438 283.519531 C 281.019531 283.519531 284.261719 286.757812 284.261719 290.753906 C 284.261719 294.753906 281.019531 297.992188 277.023438 297.992188 " fill-opacity="1" fill-rule="nonzero"/><g clip-path="url(#a0b6493744)"><path fill="#11355c" d="M 160.351562 229.152344 L 160.351562 313.699219 C 160.351562 335.015625 177.691406 352.355469 199.003906 352.355469 L 313.738281 352.355469 C 335.050781 352.355469 352.394531 335.015625 352.394531 313.699219 L 352.394531 198.972656 C 352.394531 177.652344 335.050781 160.316406 313.738281 160.316406 L 229.191406 160.316406 L 229.191406 176.023438 C 229.191406 205.320312 205.355469 229.152344 176.0625 229.152344 Z M 313.738281 366.828125 L 199.003906 366.828125 C 169.710938 366.828125 145.878906 342.996094 145.878906 313.699219 L 145.878906 221.914062 C 145.878906 217.917969 149.117188 214.679688 153.113281 214.679688 L 176.0625 214.679688 C 197.375 214.679688 214.71875 197.339844 214.71875 176.023438 L 214.71875 153.078125 C 214.71875 149.082031 217.957031 145.84375 221.953125 145.84375 L 313.738281 145.84375 C 343.03125 145.84375 366.867188 169.675781 366.867188 198.972656 L 366.867188 313.699219 C 366.867188 342.996094 343.03125 366.828125 313.738281 366.828125 " fill-opacity="1" fill-rule="nonzero"/></g><g clip-path="url(#2df8749c36)"><path fill="#11355c" d="M 61.328125 22.636719 C 40.015625 22.636719 22.671875 39.976562 22.671875 61.292969 L 22.671875 176.023438 C 22.671875 197.339844 40.015625 214.679688 61.328125 214.679688 L 176.0625 214.679688 C 197.375 214.679688 214.71875 197.339844 214.71875 176.023438 L 214.71875 61.292969 C 214.71875 39.976562 197.375 22.636719 176.0625 22.636719 Z M 176.0625 229.152344 L 61.328125 229.152344 C 32.035156 229.152344 8.199219 205.320312 8.199219 176.023438 L 8.199219 61.292969 C 8.199219 31.996094 32.035156 8.164062 61.328125 8.164062 L 176.0625 8.164062 C 205.355469 8.164062 229.191406 31.996094 229.191406 61.292969 L 229.191406 176.023438 C 229.191406 205.320312 205.355469 229.152344 176.0625 229.152344 " fill-opacity="1" fill-rule="nonzero"/></g></svg>