<svg xmlns="http://www.w3.org/2000/svg" xmlns:xlink="http://www.w3.org/1999/xlink" width="500" zoomAndPan="magnify" viewBox="0 0 375 374.999991" height="500" preserveAspectRatio="xMidYMid meet" version="1.0"><defs><clipPath id="e04ab6868d"><path d="M 8 15.527344 L 366 15.527344 L 366 358 L 8 358 Z M 8 15.527344 " clip-rule="nonzero"/></clipPath></defs><g clip-path="url(#e04ab6868d)"><path fill="#11355c" d="M 94.261719 357.679688 C 88.542969 357.679688 82.863281 355.890625 78.007812 352.359375 C 69.414062 346.117188 65.191406 335.738281 66.988281 325.269531 L 81.367188 241.425781 C 81.964844 237.953125 80.8125 234.410156 78.289062 231.953125 L 17.371094 172.574219 C 9.765625 165.160156 7.082031 154.28125 10.363281 144.179688 C 13.644531 134.078125 22.214844 126.851562 32.722656 125.324219 L 116.910156 113.09375 C 120.394531 112.585938 123.410156 110.398438 124.96875 107.238281 L 162.617188 30.953125 C 167.316406 21.429688 176.835938 15.515625 187.453125 15.515625 C 198.074219 15.515625 207.59375 21.429688 212.292969 30.953125 L 249.941406 107.238281 C 251.5 110.398438 254.515625 112.585938 258 113.09375 L 342.183594 125.324219 C 352.695312 126.851562 361.265625 134.078125 364.546875 144.179688 C 367.828125 154.28125 365.144531 165.160156 357.539062 172.574219 L 296.621094 231.953125 C 294.097656 234.414062 292.945312 237.953125 293.542969 241.425781 L 307.925781 325.269531 C 309.71875 335.738281 305.496094 346.121094 296.902344 352.363281 C 288.308594 358.605469 277.132812 359.410156 267.734375 354.46875 L 192.433594 314.882812 C 189.316406 313.242188 185.59375 313.246094 182.472656 314.882812 L 107.179688 354.46875 C 103.089844 356.617188 98.664062 357.679688 94.261719 357.679688 Z M 187.457031 32.511719 C 183.289062 32.511719 179.703125 34.742188 177.859375 38.476562 L 140.210938 114.761719 C 136.175781 122.9375 128.378906 128.601562 119.355469 129.914062 L 35.167969 142.144531 C 31.046875 142.746094 27.816406 145.46875 26.527344 149.429688 C 25.242188 153.390625 26.253906 157.492188 29.238281 160.402344 L 90.15625 219.78125 C 96.683594 226.144531 99.660156 235.3125 98.121094 244.296875 L 83.742188 328.144531 C 83.035156 332.25 84.628906 336.164062 88 338.609375 C 91.367188 341.058594 95.582031 341.363281 99.269531 339.425781 L 174.566406 299.839844 C 182.636719 295.597656 192.273438 295.597656 200.347656 299.839844 L 275.644531 339.425781 C 279.332031 341.363281 283.546875 341.058594 286.914062 338.613281 C 290.285156 336.164062 291.878906 332.25 291.171875 328.144531 L 276.792969 244.296875 C 275.25 235.3125 278.230469 226.144531 284.757812 219.78125 L 345.675781 160.402344 C 348.660156 157.492188 349.671875 153.390625 348.382812 149.429688 C 347.097656 145.46875 343.867188 142.746094 339.742188 142.144531 L 255.558594 129.914062 C 246.535156 128.601562 238.738281 122.9375 234.703125 114.761719 L 197.054688 38.476562 C 195.210938 34.742188 191.621094 32.511719 187.457031 32.511719 Z M 187.457031 32.511719 " fill-opacity="1" fill-rule="nonzero"/></g></svg>