<svg xmlns="http://www.w3.org/2000/svg" xmlns:xlink="http://www.w3.org/1999/xlink" width="500" zoomAndPan="magnify" viewBox="0 0 375 374.999991" height="500" preserveAspectRatio="xMidYMid meet" version="1.0"><defs><clipPath id="359ac59653"><path d="M 6.691406 20.703125 L 368.191406 20.703125 L 368.191406 353 L 6.691406 353 Z M 6.691406 20.703125 " clip-rule="nonzero"/></clipPath></defs><g clip-path="url(#359ac59653)"><path fill="#11355c" d="M 140.007812 20.8125 C 190.234375 20.8125 233.972656 48.59375 256.699219 89.628906 C 319.691406 96.140625 368.296875 149.410156 368.296875 213.53125 C 368.296875 238.273438 361.050781 261.953125 347.632812 282.214844 L 347.839844 281.894531 L 349.230469 344.8125 C 349.351562 350.292969 343.894531 354.074219 338.867188 352.199219 L 338.347656 351.984375 L 289.089844 329.558594 L 287.886719 330.03125 C 274.632812 335.058594 260.5625 337.800781 246.136719 338.078125 L 243.730469 338.097656 C 203.582031 338.097656 166.660156 318.960938 143.386719 287.359375 L 142.210938 287.390625 L 140.007812 287.40625 C 123.574219 287.40625 107.546875 284.429688 92.519531 278.703125 L 91.210938 278.1875 L 26.914062 307.46875 L 28.667969 227.4375 L 27.617188 225.816406 C 14.441406 205.195312 7.128906 181.320312 6.710938 156.378906 L 6.691406 154.109375 C 6.691406 80.488281 66.375 20.8125 140.007812 20.8125 Z M 264.480469 106.320312 C 265.257812 108.347656 265.988281 110.398438 266.671875 112.46875 C 266.695312 112.550781 266.722656 112.632812 266.75 112.714844 C 267.230469 114.1875 267.6875 115.671875 268.117188 117.164062 C 268.179688 117.382812 268.242188 117.605469 268.304688 117.824219 C 268.953125 120.117188 269.539062 122.4375 270.066406 124.777344 C 270.105469 124.972656 270.152344 125.167969 270.195312 125.363281 C 270.320312 125.933594 270.441406 126.503906 270.558594 127.078125 C 270.617188 127.367188 270.675781 127.65625 270.734375 127.945312 C 271.058594 129.5625 271.351562 131.191406 271.613281 132.832031 C 271.617188 132.859375 271.621094 132.882812 271.625 132.910156 L 271.613281 132.832031 C 271.746094 133.652344 271.867188 134.472656 271.984375 135.296875 C 272.011719 135.484375 272.035156 135.671875 272.0625 135.859375 C 272.152344 136.507812 272.234375 137.152344 272.316406 137.800781 C 272.335938 137.996094 272.359375 138.1875 272.382812 138.382812 C 272.570312 139.972656 272.730469 141.570312 272.859375 143.179688 L 272.882812 143.460938 C 272.890625 143.578125 272.902344 143.695312 272.910156 143.8125 C 272.960938 144.476562 273.007812 145.136719 273.046875 145.804688 C 273.058594 145.988281 273.070312 146.171875 273.082031 146.359375 C 273.117188 147 273.148438 147.640625 273.179688 148.285156 C 273.1875 148.496094 273.195312 148.707031 273.203125 148.921875 C 273.230469 149.589844 273.25 150.261719 273.265625 150.9375 C 273.289062 151.992188 273.304688 153.050781 273.304688 154.109375 L 273.28125 151.648438 C 273.296875 152.46875 273.304688 153.289062 273.304688 154.109375 L 273.296875 153.507812 L 273.304688 154.109375 C 273.304688 154.820312 273.296875 155.527344 273.285156 156.234375 C 273.269531 157.320312 273.238281 158.40625 273.195312 159.484375 C 273.183594 159.789062 273.171875 160.089844 273.15625 160.394531 C 273.148438 160.617188 273.136719 160.839844 273.125 161.0625 C 273.101562 161.523438 273.074219 161.984375 273.046875 162.445312 C 273.027344 162.769531 273.003906 163.089844 272.984375 163.414062 C 272.96875 163.605469 272.957031 163.796875 272.941406 163.984375 C 272.902344 164.519531 272.859375 165.054688 272.816406 165.585938 C 272.792969 165.828125 272.773438 166.070312 272.75 166.3125 C 272.714844 166.726562 272.675781 167.144531 272.632812 167.558594 C 272.613281 167.738281 272.59375 167.917969 272.578125 168.09375 C 272.210938 171.613281 271.707031 175.089844 271.074219 178.523438 C 271.011719 178.828125 270.953125 179.136719 270.894531 179.441406 C 270.824219 179.839844 270.746094 180.234375 270.664062 180.628906 C 270.617188 180.839844 270.574219 181.046875 270.53125 181.257812 C 265.855469 203.875 255.445312 224.398438 240.890625 241.238281 C 240.621094 241.546875 240.351562 241.855469 240.085938 242.160156 C 239.871094 242.40625 239.652344 242.652344 239.433594 242.894531 C 239.25 243.101562 239.066406 243.304688 238.878906 243.507812 C 238.183594 244.28125 237.476562 245.042969 236.761719 245.800781 C 236.550781 246.019531 236.34375 246.238281 236.136719 246.453125 C 235.941406 246.652344 235.75 246.851562 235.558594 247.050781 C 219.945312 263.113281 200.300781 275.265625 178.214844 281.855469 C 178.136719 281.875 178.058594 281.898438 177.976562 281.921875 C 176.734375 282.292969 175.480469 282.644531 174.222656 282.976562 C 174.144531 282.996094 174.0625 283.015625 173.984375 283.039062 C 173.421875 283.1875 172.859375 283.332031 172.296875 283.472656 C 172.179688 283.5 172.0625 283.527344 171.941406 283.558594 L 172.296875 283.472656 C 171.6875 283.621094 171.082031 283.769531 170.46875 283.910156 C 170.253906 283.960938 170.039062 284.011719 169.820312 284.058594 C 169.546875 284.125 169.277344 284.183594 169.007812 284.246094 C 168.386719 284.382812 167.761719 284.515625 167.136719 284.644531 C 166.71875 284.730469 166.304688 284.816406 165.886719 284.898438 C 165.722656 284.929688 165.558594 284.960938 165.394531 284.992188 C 164.339844 285.195312 163.277344 285.386719 162.214844 285.566406 L 163.925781 285.265625 C 163.203125 285.398438 162.480469 285.523438 161.753906 285.640625 L 162.363281 286.34375 C 182.402344 308.742188 210.988281 322.1875 241.90625 322.695312 L 243.730469 322.710938 C 258.53125 322.710938 272.917969 319.757812 286.265625 314.101562 C 288.25 313.261719 290.496094 313.292969 292.457031 314.183594 L 333.574219 332.902344 L 332.40625 279.796875 C 332.375 278.433594 332.707031 277.089844 333.363281 275.902344 L 333.71875 275.324219 L 334.84375 273.660156 C 346.566406 255.957031 352.910156 235.226562 352.910156 213.53125 C 352.910156 160.660156 315.199219 116.203125 264.769531 106.371094 Z M 140.007812 36.199219 C 74.871094 36.199219 22.078125 88.988281 22.078125 154.109375 C 22.078125 178.25 29.363281 201.304688 42.761719 220.820312 L 44.164062 222.863281 L 42.835938 283.308594 L 90.929688 261.414062 L 94.042969 262.730469 C 108.457031 268.835938 124 272.019531 140.007812 272.019531 C 142.394531 272.019531 144.765625 271.949219 147.121094 271.808594 C 147.546875 271.78125 147.972656 271.753906 148.394531 271.722656 L 147.121094 271.808594 C 147.753906 271.769531 148.386719 271.726562 149.019531 271.679688 L 148.394531 271.722656 C 149 271.679688 149.605469 271.632812 150.207031 271.582031 L 149.019531 271.679688 C 149.613281 271.636719 150.207031 271.585938 150.800781 271.53125 L 150.207031 271.582031 C 152.085938 271.421875 153.953125 271.21875 155.808594 270.96875 C 156.070312 270.933594 156.332031 270.898438 156.59375 270.863281 L 155.808594 270.96875 C 156.386719 270.890625 156.960938 270.8125 157.535156 270.726562 L 156.59375 270.863281 C 157.234375 270.773438 157.871094 270.675781 158.511719 270.578125 L 157.535156 270.726562 C 158.183594 270.628906 158.832031 270.527344 159.476562 270.421875 L 158.511719 270.578125 C 159.058594 270.488281 159.609375 270.398438 160.15625 270.304688 L 159.476562 270.421875 C 160.058594 270.324219 160.636719 270.222656 161.21875 270.117188 L 160.15625 270.304688 C 160.882812 270.179688 161.609375 270.046875 162.332031 269.910156 L 161.21875 270.117188 C 161.816406 270.007812 162.417969 269.894531 163.015625 269.777344 L 162.332031 269.910156 C 163.042969 269.773438 163.753906 269.628906 164.460938 269.480469 L 163.015625 269.777344 C 163.605469 269.660156 164.195312 269.539062 164.78125 269.414062 L 164.460938 269.480469 C 188.367188 264.4375 209.601562 252.15625 225.765625 235.03125 C 225.996094 234.785156 226.230469 234.539062 226.460938 234.289062 L 225.765625 235.03125 C 226.179688 234.589844 226.59375 234.144531 227.003906 233.699219 L 226.460938 234.289062 C 226.90625 233.808594 227.347656 233.324219 227.785156 232.835938 L 227.003906 233.699219 C 227.394531 233.273438 227.78125 232.839844 228.167969 232.410156 L 227.785156 232.835938 C 228.144531 232.4375 228.496094 232.035156 228.851562 231.628906 L 228.167969 232.410156 C 228.558594 231.96875 228.949219 231.523438 229.335938 231.074219 L 228.851562 231.628906 C 244.261719 213.96875 254.484375 191.6875 257.195312 167.199219 C 257.242188 166.792969 257.285156 166.386719 257.324219 165.976562 L 257.195312 167.199219 C 257.394531 165.40625 257.550781 163.601562 257.667969 161.785156 C 257.738281 160.695312 257.792969 159.605469 257.835938 158.511719 C 257.886719 157.050781 257.914062 155.585938 257.914062 154.109375 C 257.914062 151.96875 257.859375 149.835938 257.746094 147.710938 C 257.726562 147.398438 257.710938 147.085938 257.691406 146.773438 L 257.746094 147.710938 C 257.703125 146.921875 257.652344 146.132812 257.59375 145.34375 L 257.691406 146.773438 C 257.496094 143.625 257.179688 140.507812 256.746094 137.429688 C 256.703125 137.113281 256.65625 136.796875 256.609375 136.480469 L 256.746094 137.429688 C 256.296875 134.28125 255.726562 131.167969 255.039062 128.101562 C 254.96875 127.785156 254.898438 127.46875 254.824219 127.15625 L 255.039062 128.101562 C 254.90625 127.527344 254.773438 126.953125 254.636719 126.378906 L 254.824219 127.15625 C 254.671875 126.507812 254.515625 125.863281 254.355469 125.21875 L 254.636719 126.378906 C 254.453125 125.628906 254.265625 124.878906 254.070312 124.132812 L 254.355469 125.21875 C 254.210938 124.648438 254.0625 124.082031 253.910156 123.515625 L 254.070312 124.132812 C 252.507812 118.167969 250.488281 112.386719 248.050781 106.828125 C 247.949219 106.578125 247.835938 106.332031 247.726562 106.082031 L 248.050781 106.828125 C 247.75 106.136719 247.441406 105.453125 247.125 104.769531 C 247.105469 104.714844 247.078125 104.660156 247.054688 104.605469 L 247.125 104.769531 C 228.449219 64.292969 187.507812 36.199219 140.007812 36.199219 Z M 140.757812 205.292969 C 146.066406 205.292969 150.375 209.601562 150.375 214.910156 C 150.375 220.222656 146.066406 224.527344 140.757812 224.527344 C 135.445312 224.527344 131.140625 220.222656 131.140625 214.910156 C 131.140625 209.601562 135.445312 205.292969 140.757812 205.292969 Z M 166.054688 153.203125 L 165.269531 153.96875 C 164.136719 155.042969 163.066406 156.136719 162.054688 157.25 C 156.105469 163.78125 152.390625 170.660156 150.410156 177.527344 C 149.414062 180.976562 148.996094 183.855469 148.914062 185.90625 L 148.90625 187.148438 L 148.917969 187.726562 C 148.882812 192.324219 145.449219 196.183594 140.984375 196.488281 C 136.519531 196.792969 132.632812 193.4375 132.023438 188.878906 L 131.945312 187.925781 L 131.9375 187.746094 C 131.8125 183.871094 132.371094 178.601562 134.15625 172.414062 C 136.882812 162.957031 141.917969 153.632812 149.75 145.03125 C 150.613281 144.082031 151.507812 143.148438 152.433594 142.222656 L 153.847656 140.847656 C 168.925781 126.53125 160.710938 103.085938 141.523438 105.417969 C 132.410156 106.527344 126.503906 110.566406 122.679688 116.777344 C 121.078125 119.382812 119.945312 122.222656 119.226562 125.0625 L 118.921875 126.359375 L 118.722656 127.394531 L 118.617188 128.128906 L 118.59375 128.375 C 118.238281 133.257812 114.164062 136.917969 109.488281 136.546875 C 104.8125 136.175781 101.3125 131.917969 101.664062 127.035156 C 101.773438 125.542969 102.109375 123.296875 102.8125 120.523438 C 103.964844 115.992188 105.769531 111.464844 108.402344 107.1875 C 114.902344 96.628906 125.253906 89.546875 139.5625 87.804688 C 175.699219 83.414062 191.613281 127.746094 166.054688 153.203125 Z M 166.054688 153.203125 " fill-opacity="1" fill-rule="nonzero"/></g></svg>