<svg xmlns="http://www.w3.org/2000/svg" xmlns:xlink="http://www.w3.org/1999/xlink" width="500" zoomAndPan="magnify" viewBox="0 0 375 374.999991" height="500" preserveAspectRatio="xMidYMid meet" version="1.0"><defs><clipPath id="88784955c8"><path d="M 8.175781 8.175781 L 366.675781 8.175781 L 366.675781 366.675781 L 8.175781 366.675781 Z M 8.175781 8.175781 " clip-rule="nonzero"/></clipPath></defs><g clip-path="url(#88784955c8)"><path fill="#11355c" d="M 328.644531 8.054688 L 45.867188 8.054688 C 25.019531 8.054688 8.054688 25.019531 8.054688 45.867188 L 8.054688 328.644531 C 8.054688 349.492188 25.019531 366.457031 45.867188 366.457031 L 328.640625 366.457031 C 349.492188 366.457031 366.457031 349.492188 366.457031 328.644531 L 366.457031 45.867188 C 366.457031 25.019531 349.5 8.054688 328.644531 8.054688 Z M 180.015625 351.972656 L 45.867188 351.972656 C 33 351.972656 22.535156 341.507812 22.535156 328.644531 L 22.535156 194.496094 L 180.015625 194.496094 Z M 180.015625 180.015625 L 22.535156 180.015625 L 22.535156 45.867188 C 22.535156 33 33 22.535156 45.867188 22.535156 L 180.015625 22.535156 Z M 351.972656 328.644531 C 351.972656 341.507812 341.507812 351.972656 328.640625 351.972656 L 194.496094 351.972656 L 194.496094 194.496094 L 351.972656 194.496094 Z M 351.972656 180.015625 L 194.496094 180.015625 L 194.496094 22.535156 L 328.640625 22.535156 C 341.507812 22.535156 351.972656 33 351.972656 45.867188 Z M 351.972656 180.015625 " fill-opacity="1" fill-rule="nonzero"/></g><path fill="#11355c" d="M 93.230469 145.023438 L 107.710938 145.023438 L 107.710938 108.824219 L 143.914062 108.824219 L 143.914062 94.34375 L 107.710938 94.34375 L 107.710938 58.140625 L 93.230469 58.140625 L 93.230469 94.34375 L 57.03125 94.34375 L 57.03125 108.824219 L 93.230469 108.824219 Z M 93.230469 145.023438 " fill-opacity="1" fill-rule="nonzero"/><path fill="#11355c" d="M 74.875 308.378906 L 100.472656 282.777344 L 126.074219 308.378906 L 136.3125 298.140625 L 110.714844 272.539062 L 136.3125 246.9375 L 126.074219 236.699219 L 100.472656 262.300781 L 74.875 236.699219 L 64.636719 246.9375 L 90.234375 272.539062 L 64.636719 298.140625 Z M 74.875 308.378906 " fill-opacity="1" fill-rule="nonzero"/><path fill="#11355c" d="M 231.605469 94.34375 L 318.488281 94.34375 L 318.488281 108.824219 L 231.605469 108.824219 Z M 231.605469 94.34375 " fill-opacity="1" fill-rule="nonzero"/><path fill="#11355c" d="M 231.605469 243.503906 L 318.488281 243.503906 L 318.488281 257.984375 L 231.605469 257.984375 Z M 231.605469 243.503906 " fill-opacity="1" fill-rule="nonzero"/><path fill="#11355c" d="M 231.605469 287.097656 L 318.488281 287.097656 L 318.488281 301.578125 L 231.605469 301.578125 Z M 231.605469 287.097656 " fill-opacity="1" fill-rule="nonzero"/></svg>