<svg xmlns="http://www.w3.org/2000/svg" xmlns:xlink="http://www.w3.org/1999/xlink" width="500" zoomAndPan="magnify" viewBox="0 0 375 374.999991" height="500" preserveAspectRatio="xMidYMid meet" version="1.0"><defs><clipPath id="5f78000026"><path d="M 297 53 L 370.367188 53 L 370.367188 135 L 297 135 Z M 297 53 " clip-rule="nonzero"/></clipPath><clipPath id="124567634b"><path d="M 4.367188 102 L 362 102 L 362 340.355469 L 4.367188 340.355469 Z M 4.367188 102 " clip-rule="nonzero"/></clipPath></defs><path fill="#ffffff" d="M 142.988281 188.894531 C 142.988281 190.769531 142.898438 192.640625 142.71875 194.507812 C 142.535156 196.375 142.261719 198.230469 141.898438 200.070312 C 141.535156 201.910156 141.082031 203.726562 140.539062 205.523438 C 139.996094 207.316406 139.367188 209.082031 138.652344 210.816406 C 137.9375 212.550781 137.136719 214.242188 136.253906 215.898438 C 135.371094 217.554688 134.410156 219.160156 133.371094 220.722656 C 132.332031 222.28125 131.214844 223.789062 130.027344 225.238281 C 128.839844 226.691406 127.582031 228.078125 126.257812 229.40625 C 124.933594 230.734375 123.546875 231.992188 122.097656 233.183594 C 120.648438 234.375 119.144531 235.492188 117.585938 236.535156 C 116.027344 237.582031 114.421875 238.546875 112.769531 239.429688 C 111.117188 240.316406 109.421875 241.117188 107.691406 241.835938 C 105.957031 242.558594 104.195312 243.191406 102.402344 243.734375 C 100.605469 244.28125 98.789062 244.738281 96.949219 245.105469 C 95.109375 245.472656 93.257812 245.75 91.390625 245.933594 C 89.527344 246.121094 87.65625 246.214844 85.777344 246.214844 C 83.902344 246.214844 82.03125 246.125 80.164062 245.945312 C 78.300781 245.761719 76.445312 245.488281 74.605469 245.125 C 72.765625 244.757812 70.949219 244.304688 69.152344 243.761719 C 67.359375 243.21875 65.59375 242.589844 63.859375 241.871094 C 62.128906 241.15625 60.433594 240.355469 58.777344 239.472656 C 57.125 238.589844 55.515625 237.628906 53.957031 236.585938 C 52.398438 235.546875 50.890625 234.429688 49.441406 233.242188 C 47.992188 232.050781 46.601562 230.796875 45.273438 229.46875 C 43.949219 228.144531 42.6875 226.757812 41.496094 225.308594 C 40.308594 223.859375 39.191406 222.355469 38.148438 220.796875 C 37.105469 219.238281 36.140625 217.628906 35.257812 215.976562 C 34.371094 214.324219 33.570312 212.628906 32.851562 210.898438 C 32.132812 209.164062 31.5 207.402344 30.953125 205.605469 C 30.410156 203.8125 29.953125 201.996094 29.585938 200.15625 C 29.21875 198.316406 28.945312 196.464844 28.761719 194.597656 C 28.574219 192.730469 28.484375 190.859375 28.480469 188.984375 C 28.480469 187.109375 28.574219 185.238281 28.753906 183.371094 C 28.9375 181.503906 29.214844 179.652344 29.578125 177.8125 C 29.945312 175.972656 30.398438 174.15625 30.941406 172.359375 C 31.484375 170.566406 32.117188 168.800781 32.832031 167.066406 C 33.550781 165.335938 34.351562 163.640625 35.234375 161.988281 C 36.117188 160.332031 37.082031 158.726562 38.125 157.167969 C 39.164062 155.605469 40.28125 154.101562 41.46875 152.652344 C 42.660156 151.203125 43.917969 149.8125 45.242188 148.488281 C 46.570312 147.160156 47.957031 145.902344 49.40625 144.710938 C 50.855469 143.523438 52.359375 142.40625 53.917969 141.363281 C 55.480469 140.320312 57.085938 139.359375 58.738281 138.472656 C 60.394531 137.589844 62.085938 136.789062 63.820312 136.070312 C 65.550781 135.351562 67.316406 134.722656 69.109375 134.175781 C 70.90625 133.632812 72.722656 133.175781 74.5625 132.8125 C 76.402344 132.445312 78.253906 132.167969 80.121094 131.984375 C 81.988281 131.800781 83.859375 131.710938 85.734375 131.710938 C 87.609375 131.710938 89.476562 131.800781 91.34375 131.984375 C 93.207031 132.167969 95.058594 132.441406 96.894531 132.808594 C 98.734375 133.171875 100.550781 133.628906 102.34375 134.171875 C 104.136719 134.714844 105.898438 135.34375 107.628906 136.0625 C 109.359375 136.777344 111.050781 137.578125 112.703125 138.460938 C 114.359375 139.34375 115.964844 140.304688 117.523438 141.34375 C 119.078125 142.386719 120.582031 143.5 122.03125 144.6875 C 123.480469 145.875 124.867188 147.132812 126.195312 148.457031 C 127.519531 149.78125 128.777344 151.164062 129.96875 152.613281 C 131.15625 154.058594 132.273438 155.5625 133.316406 157.121094 C 134.355469 158.675781 135.320312 160.28125 136.207031 161.933594 C 137.089844 163.585938 137.890625 165.277344 138.609375 167.007812 C 139.328125 168.738281 139.960938 170.5 140.507812 172.292969 C 141.050781 174.082031 141.507812 175.898438 141.875 177.734375 C 142.242188 179.574219 142.519531 181.425781 142.707031 183.289062 C 142.890625 185.152344 142.984375 187.023438 142.988281 188.894531 Z M 142.988281 188.894531 " fill-opacity="1" fill-rule="nonzero"/><path fill="#ffffff" d="M 300.265625 247.214844 L 260.894531 237.472656 L 306.46875 51.4375 C 306.671875 50.625 306.953125 49.84375 307.308594 49.089844 C 307.667969 48.335938 308.09375 47.621094 308.589844 46.949219 C 309.085938 46.28125 309.644531 45.664062 310.261719 45.101562 C 310.878906 44.542969 311.546875 44.046875 312.261719 43.613281 C 312.976562 43.183594 313.726562 42.828125 314.511719 42.542969 C 315.296875 42.261719 316.105469 42.058594 316.929688 41.933594 C 317.753906 41.808594 318.585938 41.765625 319.417969 41.804688 C 320.253906 41.84375 321.074219 41.960938 321.882812 42.160156 L 336.898438 45.832031 C 337.707031 46.03125 338.488281 46.304688 339.242188 46.660156 C 339.996094 47.011719 340.707031 47.4375 341.378906 47.929688 C 342.050781 48.421875 342.664062 48.976562 343.226562 49.59375 C 343.789062 50.207031 344.285156 50.871094 344.714844 51.582031 C 345.144531 52.296875 345.503906 53.042969 345.785156 53.828125 C 346.070312 54.609375 346.273438 55.414062 346.398438 56.234375 C 346.523438 57.058594 346.566406 57.886719 346.53125 58.71875 C 346.492188 59.550781 346.375 60.371094 346.171875 61.179688 Z M 300.265625 247.214844 " fill-opacity="1" fill-rule="nonzero"/><path fill="#11355c" d="M 300.265625 253.890625 C 299.730469 253.953125 299.195312 253.953125 298.664062 253.890625 L 259.027344 244.214844 C 258.160156 244 257.367188 243.625 256.648438 243.09375 C 255.933594 242.5625 255.347656 241.910156 254.890625 241.144531 C 254.433594 240.394531 254.132812 239.585938 253.996094 238.71875 C 253.855469 237.855469 253.886719 236.992188 254.089844 236.140625 L 299.664062 50.035156 C 299.8125 49.414062 299.988281 48.800781 300.195312 48.195312 C 300.402344 47.59375 300.636719 47 300.902344 46.421875 C 301.167969 45.839844 301.460938 45.273438 301.785156 44.722656 C 302.105469 44.171875 302.453125 43.636719 302.828125 43.121094 C 303.203125 42.601562 303.601562 42.105469 304.027344 41.628906 C 304.449219 41.152344 304.894531 40.695312 305.363281 40.261719 C 305.832031 39.828125 306.324219 39.417969 306.832031 39.035156 C 307.339844 38.648438 307.867188 38.289062 308.414062 37.957031 C 308.957031 37.625 309.519531 37.320312 310.09375 37.042969 C 310.667969 36.765625 311.253906 36.515625 311.855469 36.296875 C 312.453125 36.078125 313.0625 35.890625 313.679688 35.730469 C 314.300781 35.570312 314.925781 35.441406 315.554688 35.347656 C 316.1875 35.25 316.820312 35.183594 317.457031 35.148438 C 318.09375 35.113281 318.734375 35.113281 319.371094 35.140625 C 320.007812 35.167969 320.644531 35.230469 321.273438 35.320312 C 321.90625 35.414062 322.53125 35.535156 323.152344 35.6875 L 338.097656 39.359375 C 338.714844 39.507812 339.324219 39.6875 339.921875 39.898438 C 340.523438 40.109375 341.109375 40.347656 341.683594 40.617188 C 342.261719 40.882812 342.820312 41.179688 343.367188 41.5 C 343.914062 41.824219 344.441406 42.171875 344.953125 42.546875 C 345.464844 42.921875 345.960938 43.324219 346.433594 43.746094 C 346.90625 44.167969 347.355469 44.613281 347.785156 45.082031 C 348.214844 45.550781 348.617188 46.039062 349 46.546875 C 349.378906 47.054688 349.734375 47.578125 350.0625 48.121094 C 350.394531 48.664062 350.695312 49.222656 350.96875 49.792969 C 351.246094 50.367188 351.488281 50.949219 351.707031 51.546875 C 351.921875 52.144531 352.109375 52.75 352.269531 53.363281 C 352.425781 53.976562 352.550781 54.597656 352.648438 55.226562 C 352.746094 55.855469 352.808594 56.484375 352.84375 57.117188 C 352.878906 57.753906 352.882812 58.386719 352.851562 59.019531 C 352.824219 59.652344 352.765625 60.285156 352.675781 60.914062 C 352.585938 61.542969 352.464844 62.164062 352.3125 62.78125 L 306.738281 248.816406 C 306.558594 249.539062 306.265625 250.214844 305.863281 250.839844 C 305.457031 251.464844 304.960938 252.007812 304.375 252.46875 C 303.789062 252.929688 303.144531 253.28125 302.4375 253.523438 C 301.734375 253.765625 301.011719 253.886719 300.265625 253.890625 Z M 268.636719 232.601562 L 295.328125 239.277344 L 339.300781 59.710938 C 339.394531 59.328125 339.453125 58.9375 339.46875 58.542969 C 339.488281 58.148438 339.464844 57.757812 339.40625 57.367188 C 339.347656 56.976562 339.25 56.59375 339.117188 56.222656 C 338.980469 55.851562 338.8125 55.5 338.609375 55.160156 C 338.402344 54.824219 338.167969 54.507812 337.902344 54.214844 C 337.632812 53.925781 337.339844 53.664062 337.023438 53.429688 C 336.703125 53.195312 336.367188 52.996094 336.007812 52.828125 C 335.652344 52.660156 335.28125 52.53125 334.898438 52.4375 L 319.882812 48.765625 C 319.5 48.667969 319.109375 48.609375 318.714844 48.585938 C 318.320312 48.566406 317.925781 48.582031 317.53125 48.640625 C 317.140625 48.699219 316.757812 48.792969 316.386719 48.925781 C 316.011719 49.0625 315.65625 49.230469 315.316406 49.4375 C 314.980469 49.640625 314.664062 49.878906 314.371094 50.144531 C 314.082031 50.414062 313.820312 50.710938 313.585938 51.03125 C 313.355469 51.351562 313.15625 51.691406 312.992188 52.050781 C 312.828125 52.414062 312.699219 52.785156 312.609375 53.171875 Z M 268.636719 232.601562 " fill-opacity="1" fill-rule="nonzero"/><g clip-path="url(#5f78000026)"><path fill="#11355c" d="M 353.445312 134.3125 C 352.914062 134.375 352.378906 134.375 351.84375 134.3125 C 351.417969 134.210938 351.003906 134.066406 350.605469 133.882812 C 350.203125 133.699219 349.828125 133.480469 349.472656 133.222656 C 349.113281 132.964844 348.789062 132.671875 348.488281 132.347656 C 348.191406 132.027344 347.925781 131.675781 347.699219 131.300781 C 347.46875 130.925781 347.277344 130.53125 347.125 130.121094 C 346.972656 129.707031 346.863281 129.285156 346.796875 128.847656 C 346.730469 128.414062 346.703125 127.976562 346.722656 127.539062 C 346.742188 127.097656 346.804688 126.664062 346.90625 126.238281 L 357.71875 82.332031 C 357.652344 81.0625 357.355469 79.851562 356.828125 78.699219 C 356.296875 77.546875 355.570312 76.53125 354.648438 75.660156 C 352.445312 74.191406 348.308594 75.660156 346.105469 76.324219 C 344.773438 76.746094 343.4375 76.746094 342.101562 76.324219 L 302.066406 66.582031 C 301.65625 66.464844 301.261719 66.308594 300.878906 66.113281 C 300.5 65.917969 300.140625 65.691406 299.804688 65.425781 C 299.46875 65.164062 299.160156 64.871094 298.878906 64.546875 C 298.601562 64.226562 298.351562 63.878906 298.140625 63.507812 C 297.925781 63.136719 297.75 62.75 297.609375 62.347656 C 297.472656 61.945312 297.371094 61.53125 297.3125 61.105469 C 297.25 60.683594 297.234375 60.257812 297.253906 59.832031 C 297.277344 59.40625 297.339844 58.984375 297.441406 58.570312 C 297.542969 58.15625 297.683594 57.753906 297.863281 57.367188 C 298.042969 56.980469 298.257812 56.613281 298.507812 56.265625 C 298.761719 55.917969 299.039062 55.601562 299.351562 55.308594 C 299.664062 55.015625 300 54.753906 300.363281 54.527344 C 300.722656 54.300781 301.101562 54.109375 301.5 53.953125 C 301.898438 53.796875 302.308594 53.683594 302.730469 53.605469 C 303.148438 53.53125 303.574219 53.496094 304 53.5 C 304.429688 53.507812 304.851562 53.550781 305.269531 53.636719 L 342.96875 62.914062 C 344.480469 62.292969 346.039062 61.851562 347.652344 61.59375 C 349.265625 61.339844 350.882812 61.269531 352.511719 61.394531 C 354.140625 61.515625 355.730469 61.820312 357.289062 62.316406 C 358.84375 62.808594 360.320312 63.476562 361.722656 64.316406 C 363.09375 65.382812 364.332031 66.589844 365.4375 67.929688 C 366.542969 69.273438 367.488281 70.71875 368.269531 72.273438 C 369.054688 73.824219 369.660156 75.441406 370.085938 77.128906 C 370.511719 78.8125 370.75 80.527344 370.796875 82.265625 C 370.863281 82.863281 370.863281 83.464844 370.796875 84.066406 L 359.785156 129.039062 C 359.628906 129.773438 359.359375 130.457031 358.96875 131.097656 C 358.582031 131.734375 358.101562 132.292969 357.527344 132.773438 C 356.953125 133.25 356.316406 133.621094 355.617188 133.886719 C 354.917969 134.148438 354.195312 134.292969 353.445312 134.3125 Z M 353.445312 134.3125 " fill-opacity="1" fill-rule="nonzero"/></g><path fill="#11355c" d="M 271.839844 283.050781 C 271.085938 283.074219 270.347656 282.976562 269.628906 282.753906 C 268.910156 282.527344 268.246094 282.191406 267.640625 281.742188 C 267.035156 281.296875 266.519531 280.761719 266.097656 280.136719 C 265.671875 279.515625 265.363281 278.839844 265.164062 278.109375 L 254.421875 239.410156 C 254.246094 238.828125 254.148438 238.238281 254.132812 237.632812 C 254.117188 237.027344 254.183594 236.429688 254.332031 235.839844 C 254.476562 235.253906 254.699219 234.695312 255 234.167969 C 255.296875 233.640625 255.660156 233.164062 256.089844 232.734375 C 256.492188 232.320312 256.941406 231.960938 257.4375 231.660156 C 257.933594 231.359375 258.457031 231.125 259.011719 230.960938 C 259.570312 230.796875 260.136719 230.707031 260.714844 230.691406 C 261.292969 230.675781 261.867188 230.734375 262.429688 230.867188 L 301.066406 240.34375 C 301.347656 240.410156 301.625 240.5 301.898438 240.601562 C 302.167969 240.707031 302.433594 240.832031 302.6875 240.96875 C 302.945312 241.109375 303.191406 241.265625 303.425781 241.4375 C 303.660156 241.609375 303.882812 241.792969 304.09375 241.996094 C 304.304688 242.195312 304.503906 242.410156 304.683594 242.636719 C 304.867188 242.863281 305.035156 243.101562 305.1875 243.347656 C 305.339844 243.597656 305.472656 243.855469 305.59375 244.121094 C 305.710938 244.386719 305.8125 244.660156 305.894531 244.9375 C 305.976562 245.21875 306.039062 245.5 306.085938 245.789062 C 306.128906 246.078125 306.15625 246.367188 306.164062 246.65625 C 306.171875 246.949219 306.160156 247.238281 306.128906 247.527344 C 306.097656 247.816406 306.050781 248.105469 305.980469 248.386719 C 305.914062 248.671875 305.828125 248.949219 305.722656 249.21875 C 305.617188 249.492188 305.496094 249.757812 305.359375 250.011719 C 305.21875 250.269531 305.0625 250.515625 304.890625 250.75 C 304.722656 250.984375 304.535156 251.207031 304.335938 251.417969 L 276.441406 280.714844 C 275.863281 281.394531 275.175781 281.941406 274.375 282.34375 C 273.578125 282.75 272.730469 282.984375 271.839844 283.050781 Z M 270.503906 246.816406 L 275.109375 263.230469 L 286.917969 250.820312 Z M 270.503906 246.816406 " fill-opacity="1" fill-rule="nonzero"/><path fill="#11355c" d="M 114.09375 312.277344 C 113.308594 312.273438 112.550781 312.140625 111.8125 311.871094 C 111.074219 311.601562 110.40625 311.214844 109.808594 310.710938 C 109.207031 310.203125 108.710938 309.613281 108.320312 308.933594 C 107.929688 308.253906 107.664062 307.527344 107.527344 306.753906 C 107.394531 305.980469 107.394531 305.210938 107.53125 304.4375 C 107.667969 303.664062 107.933594 302.941406 108.324219 302.261719 C 108.71875 301.582031 109.214844 300.992188 109.816406 300.488281 C 110.417969 299.984375 111.085938 299.597656 111.824219 299.332031 C 121.554688 295.652344 130.921875 291.207031 139.917969 285.984375 C 138.183594 272.039062 142.386719 248.417969 153.597656 236.339844 C 154.234375 235.582031 154.917969 234.867188 155.652344 234.203125 C 156.382812 233.535156 157.15625 232.921875 157.972656 232.359375 C 158.789062 231.796875 159.636719 231.292969 160.523438 230.84375 C 161.40625 230.398438 162.316406 230.011719 163.25 229.6875 C 164.1875 229.363281 165.140625 229.101562 166.109375 228.90625 C 167.082031 228.710938 168.0625 228.582031 169.050781 228.515625 C 170.039062 228.453125 171.027344 228.457031 172.011719 228.527344 C 173 228.59375 173.980469 228.730469 174.949219 228.933594 C 176.09375 229.199219 177.117188 229.710938 178.019531 230.46875 C 179.203125 231.53125 180.246094 232.71875 181.152344 234.027344 C 182.058594 235.339844 182.800781 236.734375 183.382812 238.21875 C 183.960938 239.699219 184.359375 241.230469 184.582031 242.808594 C 184.804688 244.382812 184.839844 245.964844 184.691406 247.550781 C 183.691406 263.03125 168.878906 282.382812 155.464844 291.921875 C 155.964844 293.402344 156.734375 294.71875 157.78125 295.878906 C 158.824219 297.039062 160.054688 297.945312 161.46875 298.597656 C 168.945312 300.730469 182.957031 287.988281 192.300781 279.578125 C 196.160156 275.902344 200.230469 272.476562 204.511719 269.304688 C 205 268.96875 205.527344 268.707031 206.085938 268.515625 C 206.648438 268.324219 207.222656 268.207031 207.8125 268.167969 C 208.40625 268.128906 208.992188 268.167969 209.574219 268.285156 C 210.152344 268.402344 210.707031 268.59375 211.238281 268.859375 C 211.769531 269.121094 212.253906 269.453125 212.695312 269.847656 C 213.140625 270.242188 213.523438 270.6875 213.84375 271.183594 C 214.167969 271.679688 214.421875 272.210938 214.605469 272.773438 C 214.785156 273.339844 214.890625 273.914062 214.917969 274.507812 C 214.917969 276.175781 214.917969 278.3125 214.917969 280.648438 C 214.480469 284.140625 214.480469 287.632812 214.917969 291.121094 C 217.199219 289.214844 219.179688 287.035156 220.859375 284.582031 C 222.4375 282.019531 224.363281 279.753906 226.640625 277.78125 C 228.917969 275.8125 231.441406 274.230469 234.203125 273.039062 C 234.664062 272.894531 235.136719 272.800781 235.617188 272.757812 C 236.097656 272.714844 236.578125 272.722656 237.058594 272.785156 C 237.539062 272.847656 238.003906 272.960938 238.460938 273.121094 C 238.914062 273.285156 239.347656 273.496094 239.757812 273.753906 C 240.167969 274.011719 240.542969 274.308594 240.886719 274.648438 C 241.234375 274.984375 241.535156 275.359375 241.800781 275.761719 C 242.0625 276.167969 242.28125 276.597656 242.453125 277.050781 C 242.621094 277.5 242.742188 277.964844 242.8125 278.445312 C 243.039062 281.308594 242.90625 284.15625 242.410156 286.984375 C 242.410156 288.320312 241.945312 290.253906 241.878906 291.722656 C 244.597656 291.160156 247.210938 290.285156 249.722656 289.097656 C 252.230469 287.914062 254.566406 286.449219 256.730469 284.710938 C 258.894531 282.96875 260.824219 281 262.519531 278.804688 C 264.21875 276.605469 265.632812 274.238281 266.765625 271.707031 C 266.878906 271.261719 267.03125 270.835938 267.230469 270.421875 C 267.429688 270.011719 267.664062 269.625 267.945312 269.261719 C 268.222656 268.898438 268.53125 268.566406 268.878906 268.269531 C 269.222656 267.96875 269.597656 267.707031 269.996094 267.484375 C 270.394531 267.261719 270.8125 267.085938 271.25 266.949219 C 271.683594 266.8125 272.128906 266.71875 272.585938 266.675781 C 273.039062 266.628906 273.496094 266.632812 273.949219 266.679688 C 274.402344 266.726562 274.847656 266.824219 275.28125 266.960938 C 275.71875 267.101562 276.132812 267.285156 276.53125 267.507812 C 276.929688 267.734375 277.300781 267.996094 277.644531 268.300781 C 277.988281 268.601562 278.296875 268.933594 278.570312 269.296875 C 278.847656 269.664062 279.082031 270.050781 279.277344 270.464844 C 279.472656 270.878906 279.621094 271.308594 279.730469 271.75 C 279.835938 272.195312 279.898438 272.644531 279.914062 273.101562 C 279.925781 273.558594 279.894531 274.011719 279.816406 274.464844 C 279.738281 274.914062 279.613281 275.351562 279.445312 275.777344 C 273.171875 295.460938 251.019531 304.867188 241.078125 305.402344 C 240.210938 305.480469 239.347656 305.457031 238.484375 305.339844 C 237.621094 305.222656 236.785156 305.011719 235.96875 304.707031 C 235.15625 304.398438 234.386719 304.007812 233.660156 303.527344 C 232.933594 303.046875 232.269531 302.496094 231.667969 301.867188 C 230.265625 300.285156 229.355469 298.464844 228.933594 296.394531 C 228.136719 297.632812 227.203125 298.753906 226.128906 299.761719 C 225.054688 300.769531 223.875 301.632812 222.589844 302.347656 C 221.300781 303.0625 219.949219 303.613281 218.527344 303.992188 C 217.105469 304.375 215.65625 304.578125 214.1875 304.601562 C 212.496094 304.539062 210.882812 304.15625 209.34375 303.449219 C 207.804688 302.746094 206.460938 301.773438 205.3125 300.53125 C 204.042969 298.945312 203.0625 297.199219 202.363281 295.292969 C 201.667969 293.386719 201.292969 291.417969 201.242188 289.386719 C 188.363281 301.066406 172.414062 315.480469 157.800781 311.339844 C 156.265625 310.839844 154.804688 310.179688 153.414062 309.363281 C 152.023438 308.546875 150.734375 307.59375 149.546875 306.5 C 148.363281 305.40625 147.304688 304.199219 146.378906 302.875 C 145.453125 301.554688 144.679688 300.152344 144.054688 298.664062 C 135.203125 303.800781 126.015625 308.25 116.496094 312.007812 C 115.710938 312.234375 114.910156 312.324219 114.09375 312.277344 Z M 170.277344 241.675781 C 168.964844 241.789062 167.726562 242.15625 166.566406 242.78125 C 165.40625 243.410156 164.417969 244.242188 163.605469 245.28125 C 160.328125 249.863281 157.792969 254.828125 156.007812 260.175781 C 154.222656 265.519531 153.261719 271.007812 153.128906 276.644531 C 162.269531 268.300781 171.011719 255.558594 171.546875 246.617188 C 171.761719 244.859375 171.429688 243.210938 170.546875 241.675781 Z M 170.277344 241.675781 " fill-opacity="1" fill-rule="nonzero"/><g clip-path="url(#124567634b)"><path fill="#11355c" d="M 305.9375 340.636719 L 11.53125 340.636719 C 11.09375 340.636719 10.660156 340.59375 10.230469 340.507812 C 9.800781 340.421875 9.382812 340.292969 8.980469 340.128906 C 8.574219 339.960938 8.191406 339.753906 7.824219 339.511719 C 7.460938 339.265625 7.125 338.992188 6.816406 338.679688 C 6.503906 338.371094 6.226562 338.035156 5.984375 337.667969 C 5.742188 337.304688 5.535156 336.921875 5.367188 336.515625 C 5.199219 336.109375 5.074219 335.695312 4.988281 335.265625 C 4.902344 334.835938 4.859375 334.402344 4.859375 333.960938 L 4.859375 108.824219 C 4.859375 108.382812 4.902344 107.949219 4.988281 107.519531 C 5.074219 107.089844 5.199219 106.671875 5.367188 106.269531 C 5.535156 105.863281 5.742188 105.480469 5.984375 105.113281 C 6.226562 104.75 6.503906 104.414062 6.816406 104.105469 C 7.125 103.792969 7.460938 103.515625 7.824219 103.273438 C 8.191406 103.03125 8.574219 102.824219 8.980469 102.65625 C 9.382812 102.488281 9.800781 102.363281 10.230469 102.277344 C 10.660156 102.191406 11.09375 102.148438 11.53125 102.148438 L 260.894531 102.148438 C 261.332031 102.148438 261.765625 102.191406 262.195312 102.277344 C 262.625 102.363281 263.042969 102.488281 263.449219 102.65625 C 263.855469 102.824219 264.238281 103.03125 264.601562 103.273438 C 264.96875 103.515625 265.304688 103.792969 265.613281 104.105469 C 265.921875 104.414062 266.199219 104.75 266.445312 105.113281 C 266.6875 105.480469 266.890625 105.863281 267.058594 106.269531 C 267.226562 106.671875 267.355469 107.089844 267.441406 107.519531 C 267.523438 107.949219 267.566406 108.382812 267.566406 108.824219 C 267.566406 109.261719 267.523438 109.695312 267.441406 110.125 C 267.355469 110.554688 267.226562 110.972656 267.058594 111.375 C 266.890625 111.78125 266.6875 112.164062 266.445312 112.53125 C 266.199219 112.894531 265.921875 113.230469 265.613281 113.539062 C 265.304688 113.851562 264.96875 114.128906 264.601562 114.371094 C 264.238281 114.613281 263.855469 114.820312 263.449219 114.988281 C 263.042969 115.15625 262.625 115.28125 262.195312 115.367188 C 261.765625 115.453125 261.332031 115.496094 260.894531 115.496094 L 18.207031 115.496094 L 18.207031 327.289062 L 305.9375 327.289062 C 348.109375 327.289062 348.574219 294.726562 348.574219 293.324219 L 348.574219 158.535156 C 348.574219 158.097656 348.617188 157.664062 348.703125 157.234375 C 348.789062 156.804688 348.917969 156.386719 349.082031 155.980469 C 349.25 155.578125 349.457031 155.191406 349.699219 154.828125 C 349.945312 154.464844 350.21875 154.125 350.53125 153.816406 C 350.839844 153.507812 351.175781 153.230469 351.542969 152.988281 C 351.90625 152.742188 352.289062 152.539062 352.695312 152.371094 C 353.101562 152.203125 353.515625 152.074219 353.945312 151.988281 C 354.375 151.90625 354.808594 151.863281 355.25 151.863281 C 355.6875 151.863281 356.121094 151.90625 356.550781 151.988281 C 356.980469 152.074219 357.398438 152.203125 357.800781 152.371094 C 358.207031 152.539062 358.589844 152.742188 358.957031 152.988281 C 359.320312 153.230469 359.65625 153.507812 359.96875 153.816406 C 360.277344 154.125 360.554688 154.464844 360.796875 154.828125 C 361.039062 155.191406 361.246094 155.578125 361.414062 155.980469 C 361.582031 156.386719 361.707031 156.804688 361.792969 157.234375 C 361.878906 157.664062 361.921875 158.097656 361.921875 158.535156 L 361.921875 293.324219 C 361.921875 293.792969 360.988281 340.636719 305.9375 340.636719 Z M 305.9375 340.636719 " fill-opacity="1" fill-rule="nonzero"/></g><path fill="#11355c" d="M 85.734375 242.011719 C 85.296875 242.011719 84.863281 241.96875 84.433594 241.882812 C 84.003906 241.796875 83.585938 241.671875 83.179688 241.503906 C 82.777344 241.335938 82.390625 241.128906 82.027344 240.886719 C 81.664062 240.644531 81.324219 240.367188 81.015625 240.058594 C 80.707031 239.746094 80.429688 239.410156 80.1875 239.046875 C 79.941406 238.679688 79.738281 238.296875 79.570312 237.890625 C 79.402344 237.488281 79.277344 237.070312 79.191406 236.640625 C 79.105469 236.210938 79.0625 235.777344 79.0625 235.339844 L 79.0625 141.320312 C 79.0625 140.878906 79.105469 140.445312 79.191406 140.015625 C 79.277344 139.585938 79.402344 139.171875 79.570312 138.765625 C 79.738281 138.359375 79.941406 137.976562 80.1875 137.613281 C 80.429688 137.246094 80.707031 136.910156 81.015625 136.601562 C 81.324219 136.289062 81.664062 136.015625 82.027344 135.769531 C 82.390625 135.527344 82.777344 135.320312 83.179688 135.152344 C 83.585938 134.984375 84.003906 134.859375 84.433594 134.773438 C 84.863281 134.6875 85.296875 134.644531 85.734375 134.644531 C 86.171875 134.644531 86.605469 134.6875 87.035156 134.773438 C 87.464844 134.859375 87.882812 134.984375 88.289062 135.152344 C 88.691406 135.320312 89.078125 135.527344 89.441406 135.769531 C 89.804688 136.015625 90.144531 136.289062 90.453125 136.601562 C 90.761719 136.910156 91.039062 137.246094 91.28125 137.613281 C 91.527344 137.976562 91.730469 138.359375 91.898438 138.765625 C 92.066406 139.171875 92.195312 139.585938 92.277344 140.015625 C 92.363281 140.445312 92.40625 140.878906 92.40625 141.320312 L 92.40625 235.339844 C 92.40625 235.777344 92.363281 236.210938 92.277344 236.640625 C 92.195312 237.070312 92.066406 237.488281 91.898438 237.890625 C 91.730469 238.296875 91.527344 238.679688 91.28125 239.046875 C 91.039062 239.410156 90.761719 239.746094 90.453125 240.058594 C 90.144531 240.367188 89.804688 240.644531 89.441406 240.886719 C 89.078125 241.128906 88.691406 241.335938 88.289062 241.503906 C 87.882812 241.671875 87.464844 241.796875 87.035156 241.882812 C 86.605469 241.96875 86.171875 242.011719 85.734375 242.011719 Z M 85.734375 242.011719 " fill-opacity="1" fill-rule="nonzero"/><path fill="#11355c" d="M 93.007812 231.203125 L 75.859375 231.203125 C 75.003906 231.246094 74.148438 231.246094 73.289062 231.207031 C 72.433594 231.167969 71.582031 231.089844 70.734375 230.96875 C 69.882812 230.847656 69.042969 230.6875 68.210938 230.484375 C 67.378906 230.28125 66.554688 230.039062 65.746094 229.757812 C 64.9375 229.476562 64.140625 229.15625 63.363281 228.800781 C 62.585938 228.441406 61.824219 228.046875 61.082031 227.617188 C 60.34375 227.1875 59.625 226.71875 58.925781 226.21875 C 58.230469 225.71875 57.5625 225.1875 56.917969 224.621094 C 56.273438 224.058594 55.65625 223.464844 55.066406 222.839844 C 54.480469 222.214844 53.925781 221.5625 53.398438 220.886719 C 52.875 220.207031 52.382812 219.507812 51.925781 218.78125 C 51.46875 218.058594 51.046875 217.3125 50.664062 216.546875 C 50.277344 215.78125 49.929688 215 49.617188 214.199219 C 49.308594 213.398438 49.039062 212.589844 48.804688 211.761719 C 48.574219 210.9375 48.382812 210.101562 48.230469 209.257812 C 48.078125 208.414062 47.96875 207.566406 47.898438 206.710938 C 47.898438 206.273438 47.941406 205.839844 48.027344 205.410156 C 48.113281 204.980469 48.238281 204.5625 48.40625 204.160156 C 48.574219 203.753906 48.78125 203.371094 49.023438 203.003906 C 49.269531 202.640625 49.542969 202.304688 49.855469 201.992188 C 50.164062 201.683594 50.5 201.40625 50.867188 201.164062 C 51.230469 200.921875 51.613281 200.714844 52.019531 200.546875 C 52.421875 200.378906 52.839844 200.253906 53.269531 200.167969 C 53.699219 200.082031 54.132812 200.039062 54.574219 200.039062 C 55.011719 200.039062 55.445312 200.082031 55.875 200.167969 C 56.304688 200.253906 56.722656 200.378906 57.125 200.546875 C 57.53125 200.714844 57.914062 200.921875 58.28125 201.164062 C 58.644531 201.40625 58.980469 201.683594 59.289062 201.992188 C 59.601562 202.304688 59.878906 202.640625 60.121094 203.003906 C 60.363281 203.371094 60.570312 203.753906 60.738281 204.160156 C 60.90625 204.5625 61.03125 204.980469 61.117188 205.410156 C 61.203125 205.839844 61.246094 206.273438 61.246094 206.710938 C 61.246094 212.71875 67.917969 217.855469 75.859375 217.855469 L 93.007812 217.855469 C 93.851562 217.933594 94.695312 217.929688 95.539062 217.84375 C 96.382812 217.757812 97.210938 217.59375 98.023438 217.351562 C 98.835938 217.113281 99.617188 216.792969 100.367188 216.402344 C 101.121094 216.011719 101.828125 215.554688 102.492188 215.027344 C 103.15625 214.5 103.765625 213.917969 104.320312 213.277344 C 104.871094 212.632812 105.359375 211.945312 105.78125 211.210938 C 106.203125 210.476562 106.550781 209.707031 106.828125 208.90625 C 107.105469 208.105469 107.300781 207.285156 107.421875 206.445312 L 107.421875 205.445312 C 107.285156 204.558594 107.027344 203.710938 106.648438 202.898438 C 106.269531 202.085938 105.785156 201.339844 105.195312 200.667969 C 104.601562 199.992188 103.929688 199.417969 103.171875 198.933594 C 102.417969 198.453125 101.609375 198.085938 100.75 197.835938 L 65.582031 190.628906 C 64.394531 190.40625 63.234375 190.085938 62.105469 189.664062 C 60.972656 189.246094 59.882812 188.734375 58.839844 188.128906 C 57.792969 187.519531 56.808594 186.832031 55.878906 186.058594 C 54.953125 185.285156 54.097656 184.4375 53.3125 183.519531 C 52.53125 182.601562 51.828125 181.621094 51.210938 180.582031 C 50.59375 179.546875 50.070312 178.460938 49.636719 177.335938 C 49.207031 176.207031 48.871094 175.050781 48.636719 173.867188 C 48.398438 172.683594 48.265625 171.484375 48.234375 170.277344 L 48.234375 169.277344 C 48.304688 168.425781 48.417969 167.582031 48.570312 166.738281 C 48.722656 165.898438 48.914062 165.066406 49.148438 164.246094 C 49.382812 163.421875 49.652344 162.613281 49.964844 161.816406 C 50.273438 161.023438 50.621094 160.242188 51.007812 159.480469 C 51.390625 158.71875 51.8125 157.976562 52.269531 157.253906 C 52.726562 156.53125 53.214844 155.832031 53.738281 155.15625 C 54.261719 154.480469 54.820312 153.832031 55.40625 153.210938 C 55.992188 152.589844 56.605469 151.996094 57.246094 151.433594 C 57.890625 150.871094 58.558594 150.339844 59.253906 149.839844 C 59.945312 149.34375 60.664062 148.878906 61.402344 148.449219 C 62.140625 148.019531 62.898438 147.625 63.671875 147.269531 C 64.449219 146.910156 65.242188 146.589844 66.046875 146.308594 C 66.855469 146.027344 67.671875 145.789062 68.503906 145.585938 C 69.332031 145.382812 70.171875 145.21875 71.015625 145.097656 C 71.863281 144.976562 72.710938 144.894531 73.566406 144.855469 C 74.417969 144.8125 75.273438 144.8125 76.125 144.855469 L 93.273438 144.855469 C 94.121094 144.828125 94.96875 144.839844 95.8125 144.890625 C 96.65625 144.945312 97.5 145.035156 98.335938 145.167969 C 99.171875 145.300781 100 145.472656 100.820312 145.683594 C 101.640625 145.894531 102.449219 146.144531 103.246094 146.433594 C 104.042969 146.722656 104.824219 147.046875 105.589844 147.410156 C 106.355469 147.773438 107.101562 148.167969 107.828125 148.601562 C 108.558594 149.035156 109.261719 149.503906 109.945312 150.003906 C 110.628906 150.503906 111.285156 151.039062 111.917969 151.601562 C 112.550781 152.164062 113.15625 152.757812 113.730469 153.378906 C 114.308594 154 114.851562 154.644531 115.367188 155.320312 C 115.882812 155.992188 116.363281 156.6875 116.8125 157.40625 C 117.261719 158.125 117.671875 158.863281 118.050781 159.621094 C 118.429688 160.378906 118.769531 161.152344 119.074219 161.945312 C 119.378906 162.734375 119.644531 163.539062 119.871094 164.351562 C 120.101562 165.167969 120.289062 165.992188 120.4375 166.828125 C 120.589844 167.660156 120.699219 168.5 120.765625 169.34375 C 120.765625 169.78125 120.722656 170.214844 120.636719 170.644531 C 120.554688 171.074219 120.425781 171.492188 120.257812 171.898438 C 120.089844 172.304688 119.886719 172.6875 119.640625 173.050781 C 119.398438 173.414062 119.121094 173.753906 118.8125 174.0625 C 118.503906 174.371094 118.164062 174.648438 117.800781 174.894531 C 117.4375 175.136719 117.050781 175.339844 116.648438 175.507812 C 116.242188 175.675781 115.824219 175.804688 115.394531 175.890625 C 114.964844 175.972656 114.53125 176.015625 114.09375 176.015625 C 113.65625 176.015625 113.222656 175.972656 112.792969 175.890625 C 112.363281 175.804688 111.945312 175.675781 111.539062 175.507812 C 111.136719 175.339844 110.75 175.136719 110.386719 174.894531 C 110.023438 174.648438 109.683594 174.371094 109.375 174.0625 C 109.066406 173.753906 108.789062 173.414062 108.546875 173.050781 C 108.300781 172.6875 108.097656 172.304688 107.929688 171.898438 C 107.761719 171.492188 107.632812 171.074219 107.550781 170.644531 C 107.464844 170.214844 107.421875 169.78125 107.421875 169.34375 C 107.421875 163.339844 100.75 158.269531 92.808594 158.269531 L 75.859375 158.269531 C 67.984375 158.269531 61.3125 163.339844 61.3125 169.34375 L 61.3125 170.34375 C 61.339844 170.789062 61.40625 171.230469 61.511719 171.664062 C 61.613281 172.097656 61.753906 172.515625 61.929688 172.925781 C 62.101562 173.335938 62.3125 173.730469 62.554688 174.101562 C 62.792969 174.476562 63.066406 174.828125 63.367188 175.15625 C 63.667969 175.484375 63.996094 175.785156 64.347656 176.058594 C 64.699219 176.332031 65.074219 176.574219 65.464844 176.78125 C 65.859375 176.992188 66.265625 177.167969 66.691406 177.308594 C 67.113281 177.449219 67.542969 177.550781 67.984375 177.617188 L 103.351562 184.824219 C 104.527344 185.101562 105.671875 185.46875 106.789062 185.925781 C 107.90625 186.386719 108.980469 186.929688 110.007812 187.5625 C 111.039062 188.191406 112.011719 188.902344 112.929688 189.6875 C 113.84375 190.476562 114.691406 191.332031 115.46875 192.253906 C 116.25 193.175781 116.949219 194.152344 117.574219 195.1875 C 118.195312 196.222656 118.730469 197.300781 119.183594 198.421875 C 119.632812 199.542969 119.988281 200.691406 120.253906 201.871094 C 120.519531 203.046875 120.691406 204.238281 120.765625 205.445312 L 120.765625 206.445312 C 120.707031 207.300781 120.601562 208.152344 120.460938 208.996094 C 120.316406 209.84375 120.132812 210.679688 119.90625 211.507812 C 119.683594 212.335938 119.421875 213.152344 119.117188 213.957031 C 118.816406 214.757812 118.472656 215.542969 118.09375 216.3125 C 117.714844 217.082031 117.300781 217.832031 116.851562 218.5625 C 116.398438 219.292969 115.914062 220 115.394531 220.683594 C 114.875 221.367188 114.324219 222.023438 113.742188 222.652344 C 113.160156 223.28125 112.550781 223.882812 111.910156 224.453125 C 111.269531 225.027344 110.601562 225.566406 109.910156 226.070312 C 109.21875 226.578125 108.503906 227.050781 107.765625 227.488281 C 107.027344 227.925781 106.269531 228.328125 105.492188 228.691406 C 104.71875 229.058594 103.925781 229.382812 103.117188 229.671875 C 102.308594 229.960938 101.488281 230.210938 100.65625 230.417969 C 99.824219 230.628906 98.984375 230.796875 98.136719 230.925781 C 97.289062 231.054688 96.433594 231.140625 95.578125 231.1875 C 94.722656 231.234375 93.863281 231.238281 93.007812 231.203125 Z M 93.007812 231.203125 " fill-opacity="1" fill-rule="nonzero"/><path fill="#11355c" d="M 200.839844 166.675781 L 145.324219 166.675781 C 144.882812 166.675781 144.449219 166.632812 144.019531 166.546875 C 143.589844 166.460938 143.171875 166.335938 142.769531 166.167969 C 142.363281 166 141.980469 165.792969 141.617188 165.550781 C 141.25 165.308594 140.914062 165.03125 140.605469 164.722656 C 140.292969 164.410156 140.019531 164.074219 139.773438 163.710938 C 139.53125 163.34375 139.324219 162.960938 139.15625 162.554688 C 138.988281 162.152344 138.863281 161.734375 138.777344 161.304688 C 138.691406 160.875 138.648438 160.441406 138.648438 160.003906 C 138.648438 159.566406 138.691406 159.128906 138.777344 158.699219 C 138.863281 158.269531 138.988281 157.855469 139.15625 157.449219 C 139.324219 157.042969 139.53125 156.660156 139.773438 156.296875 C 140.019531 155.929688 140.292969 155.59375 140.605469 155.285156 C 140.914062 154.972656 141.25 154.699219 141.617188 154.453125 C 141.980469 154.210938 142.363281 154.003906 142.769531 153.835938 C 143.171875 153.671875 143.589844 153.542969 144.019531 153.457031 C 144.449219 153.371094 144.882812 153.328125 145.324219 153.328125 L 200.839844 153.328125 C 201.277344 153.328125 201.710938 153.371094 202.140625 153.457031 C 202.570312 153.542969 202.988281 153.671875 203.394531 153.835938 C 203.796875 154.003906 204.183594 154.210938 204.546875 154.453125 C 204.910156 154.699219 205.25 154.972656 205.558594 155.285156 C 205.867188 155.59375 206.144531 155.929688 206.386719 156.296875 C 206.632812 156.660156 206.835938 157.042969 207.003906 157.449219 C 207.171875 157.855469 207.300781 158.269531 207.382812 158.699219 C 207.46875 159.128906 207.511719 159.566406 207.511719 160.003906 C 207.511719 160.441406 207.46875 160.875 207.382812 161.304688 C 207.300781 161.734375 207.171875 162.152344 207.003906 162.554688 C 206.835938 162.960938 206.632812 163.34375 206.386719 163.710938 C 206.144531 164.074219 205.867188 164.410156 205.558594 164.722656 C 205.25 165.03125 204.910156 165.308594 204.546875 165.550781 C 204.183594 165.792969 203.796875 166 203.394531 166.167969 C 202.988281 166.335938 202.570312 166.460938 202.140625 166.546875 C 201.710938 166.632812 201.277344 166.675781 200.839844 166.675781 Z M 200.839844 166.675781 " fill-opacity="1" fill-rule="nonzero"/><path fill="#11355c" d="M 248.417969 166.675781 L 225.0625 166.675781 C 224.625 166.675781 224.191406 166.632812 223.761719 166.546875 C 223.332031 166.460938 222.914062 166.335938 222.507812 166.167969 C 222.105469 166 221.71875 165.792969 221.355469 165.550781 C 220.992188 165.308594 220.652344 165.03125 220.34375 164.722656 C 220.035156 164.410156 219.757812 164.074219 219.515625 163.710938 C 219.269531 163.34375 219.066406 162.960938 218.898438 162.554688 C 218.730469 162.152344 218.601562 161.734375 218.519531 161.304688 C 218.433594 160.875 218.390625 160.441406 218.390625 160.003906 C 218.390625 159.566406 218.433594 159.128906 218.519531 158.699219 C 218.601562 158.269531 218.730469 157.855469 218.898438 157.449219 C 219.066406 157.042969 219.269531 156.660156 219.515625 156.296875 C 219.757812 155.929688 220.035156 155.59375 220.34375 155.285156 C 220.652344 154.972656 220.992188 154.699219 221.355469 154.453125 C 221.71875 154.210938 222.105469 154.003906 222.507812 153.835938 C 222.914062 153.671875 223.332031 153.542969 223.761719 153.457031 C 224.191406 153.371094 224.625 153.328125 225.0625 153.328125 L 248.417969 153.328125 C 248.855469 153.328125 249.289062 153.371094 249.71875 153.457031 C 250.148438 153.542969 250.566406 153.671875 250.972656 153.835938 C 251.375 154.003906 251.761719 154.210938 252.125 154.453125 C 252.488281 154.699219 252.824219 154.972656 253.136719 155.285156 C 253.445312 155.59375 253.722656 155.929688 253.964844 156.296875 C 254.207031 156.660156 254.414062 157.042969 254.582031 157.449219 C 254.75 157.855469 254.875 158.269531 254.960938 158.699219 C 255.046875 159.128906 255.089844 159.566406 255.089844 160.003906 C 255.089844 160.441406 255.046875 160.875 254.960938 161.304688 C 254.875 161.734375 254.75 162.152344 254.582031 162.554688 C 254.414062 162.960938 254.207031 163.34375 253.964844 163.710938 C 253.722656 164.074219 253.445312 164.410156 253.136719 164.722656 C 252.824219 165.03125 252.488281 165.308594 252.125 165.550781 C 251.761719 165.792969 251.375 166 250.972656 166.167969 C 250.566406 166.335938 250.148438 166.460938 249.71875 166.546875 C 249.289062 166.632812 248.855469 166.675781 248.417969 166.675781 Z M 248.417969 166.675781 " fill-opacity="1" fill-rule="nonzero"/><path fill="#11355c" d="M 154.863281 202.109375 L 145.324219 202.109375 C 144.882812 202.109375 144.449219 202.066406 144.019531 201.980469 C 143.589844 201.894531 143.171875 201.769531 142.769531 201.601562 C 142.363281 201.433594 141.980469 201.226562 141.617188 200.984375 C 141.25 200.738281 140.914062 200.464844 140.605469 200.152344 C 140.292969 199.84375 140.019531 199.507812 139.773438 199.140625 C 139.53125 198.777344 139.324219 198.394531 139.15625 197.988281 C 138.988281 197.582031 138.863281 197.167969 138.777344 196.738281 C 138.691406 196.308594 138.648438 195.875 138.648438 195.433594 C 138.648438 194.996094 138.691406 194.5625 138.777344 194.132812 C 138.863281 193.703125 138.988281 193.285156 139.15625 192.882812 C 139.324219 192.476562 139.53125 192.09375 139.773438 191.726562 C 140.019531 191.363281 140.292969 191.027344 140.605469 190.714844 C 140.914062 190.40625 141.25 190.128906 141.617188 189.886719 C 141.980469 189.644531 142.363281 189.4375 142.769531 189.269531 C 143.171875 189.101562 143.589844 188.976562 144.019531 188.890625 C 144.449219 188.804688 144.882812 188.761719 145.324219 188.761719 L 154.863281 188.761719 C 155.304688 188.761719 155.738281 188.804688 156.167969 188.890625 C 156.597656 188.976562 157.011719 189.101562 157.417969 189.269531 C 157.824219 189.4375 158.207031 189.644531 158.570312 189.886719 C 158.9375 190.128906 159.273438 190.40625 159.582031 190.714844 C 159.894531 191.027344 160.167969 191.363281 160.414062 191.726562 C 160.65625 192.09375 160.863281 192.476562 161.03125 192.882812 C 161.195312 193.285156 161.324219 193.703125 161.410156 194.132812 C 161.496094 194.5625 161.539062 194.996094 161.539062 195.433594 C 161.539062 195.875 161.496094 196.308594 161.410156 196.738281 C 161.324219 197.167969 161.195312 197.582031 161.03125 197.988281 C 160.863281 198.394531 160.65625 198.777344 160.414062 199.140625 C 160.167969 199.507812 159.894531 199.84375 159.582031 200.152344 C 159.273438 200.464844 158.9375 200.738281 158.570312 200.984375 C 158.207031 201.226562 157.824219 201.433594 157.417969 201.601562 C 157.011719 201.769531 156.597656 201.894531 156.167969 201.980469 C 155.738281 202.066406 155.304688 202.109375 154.863281 202.109375 Z M 154.863281 202.109375 " fill-opacity="1" fill-rule="nonzero"/><path fill="#11355c" d="M 214.1875 202.109375 L 181.355469 202.109375 C 180.917969 202.109375 180.484375 202.066406 180.054688 201.980469 C 179.625 201.894531 179.207031 201.769531 178.800781 201.601562 C 178.398438 201.433594 178.011719 201.226562 177.648438 200.984375 C 177.285156 200.738281 176.945312 200.464844 176.636719 200.152344 C 176.328125 199.84375 176.050781 199.507812 175.808594 199.140625 C 175.5625 198.777344 175.359375 198.394531 175.191406 197.988281 C 175.023438 197.582031 174.898438 197.167969 174.8125 196.738281 C 174.726562 196.308594 174.683594 195.875 174.683594 195.433594 C 174.683594 194.996094 174.726562 194.5625 174.8125 194.132812 C 174.898438 193.703125 175.023438 193.285156 175.191406 192.882812 C 175.359375 192.476562 175.5625 192.09375 175.808594 191.726562 C 176.050781 191.363281 176.328125 191.027344 176.636719 190.714844 C 176.945312 190.40625 177.285156 190.128906 177.648438 189.886719 C 178.011719 189.644531 178.398438 189.4375 178.800781 189.269531 C 179.207031 189.101562 179.625 188.976562 180.054688 188.890625 C 180.484375 188.804688 180.917969 188.761719 181.355469 188.761719 L 214.1875 188.761719 C 214.625 188.761719 215.058594 188.804688 215.488281 188.890625 C 215.917969 188.976562 216.335938 189.101562 216.738281 189.269531 C 217.144531 189.4375 217.527344 189.644531 217.894531 189.886719 C 218.257812 190.128906 218.59375 190.40625 218.902344 190.714844 C 219.214844 191.027344 219.492188 191.363281 219.734375 191.726562 C 219.976562 192.09375 220.183594 192.476562 220.351562 192.882812 C 220.519531 193.285156 220.644531 193.703125 220.730469 194.132812 C 220.816406 194.5625 220.859375 194.996094 220.859375 195.433594 C 220.859375 195.875 220.816406 196.308594 220.730469 196.738281 C 220.644531 197.167969 220.519531 197.582031 220.351562 197.988281 C 220.183594 198.394531 219.976562 198.777344 219.734375 199.140625 C 219.492188 199.507812 219.214844 199.84375 218.902344 200.152344 C 218.59375 200.464844 218.257812 200.738281 217.894531 200.984375 C 217.527344 201.226562 217.144531 201.433594 216.738281 201.601562 C 216.335938 201.769531 215.917969 201.894531 215.488281 201.980469 C 215.058594 202.066406 214.625 202.109375 214.1875 202.109375 Z M 214.1875 202.109375 " fill-opacity="1" fill-rule="nonzero"/></svg>